G75*
%MOIN*%
%OFA0B0*%
%FSLAX25Y25*%
%IPPOS*%
%LPD*%
%AMOC8*
5,1,8,0,0,1.08239X$1,22.5*
%
%ADD10C,0.00004*%
%ADD11R,0.01240X0.04331*%
%ADD12R,0.18701X0.10827*%
%ADD13R,0.21654X0.15157*%
%ADD14R,0.02913X0.03642*%
%ADD15R,0.03543X0.02756*%
%ADD16R,0.03642X0.02913*%
%ADD17R,0.02756X0.03543*%
%ADD18R,0.03937X0.03937*%
%ADD19R,0.02559X0.01181*%
%ADD20R,0.01181X0.02559*%
%ADD21R,0.04724X0.05906*%
%ADD22R,0.06299X0.07087*%
%ADD23R,0.04000X0.04000*%
%ADD24C,0.04331*%
%ADD25C,0.01181*%
%ADD26C,0.00600*%
%ADD27C,0.03150*%
%ADD28C,0.02362*%
%ADD29C,0.02775*%
%ADD30C,0.00630*%
%ADD31C,0.02400*%
%ADD32C,0.01600*%
D10*
X0003244Y0070252D02*
X0003263Y0071798D01*
X0003320Y0073343D01*
X0003415Y0074886D01*
X0003547Y0076426D01*
X0003718Y0077963D01*
X0003926Y0079495D01*
X0004171Y0081021D01*
X0004454Y0082541D01*
X0004775Y0084054D01*
X0005132Y0085558D01*
X0005526Y0087053D01*
X0005956Y0088538D01*
X0006423Y0090011D01*
X0006926Y0091473D01*
X0007465Y0092923D01*
X0008039Y0094358D01*
X0008648Y0095779D01*
X0009292Y0097185D01*
X0009970Y0098574D01*
X0010682Y0099946D01*
X0011427Y0101301D01*
X0012206Y0102636D01*
X0013017Y0103953D01*
X0013860Y0105248D01*
X0014735Y0106523D01*
X0015640Y0107776D01*
X0016576Y0109007D01*
X0017543Y0110214D01*
X0018538Y0111397D01*
X0019562Y0112555D01*
X0020614Y0113688D01*
X0021694Y0114794D01*
X0022800Y0115874D01*
X0023933Y0116926D01*
X0025091Y0117950D01*
X0026274Y0118945D01*
X0027481Y0119912D01*
X0028712Y0120848D01*
X0029965Y0121753D01*
X0031240Y0122628D01*
X0032535Y0123471D01*
X0033852Y0124282D01*
X0035187Y0125061D01*
X0036542Y0125806D01*
X0037914Y0126518D01*
X0039303Y0127196D01*
X0040709Y0127840D01*
X0042130Y0128449D01*
X0043565Y0129023D01*
X0045015Y0129562D01*
X0046477Y0130065D01*
X0047950Y0130532D01*
X0049435Y0130962D01*
X0050930Y0131356D01*
X0052434Y0131713D01*
X0053947Y0132034D01*
X0055467Y0132317D01*
X0056993Y0132562D01*
X0058525Y0132770D01*
X0060062Y0132941D01*
X0061602Y0133073D01*
X0063145Y0133168D01*
X0064690Y0133225D01*
X0066236Y0133244D01*
X0067782Y0133225D01*
X0069327Y0133168D01*
X0070870Y0133073D01*
X0072410Y0132941D01*
X0073947Y0132770D01*
X0075479Y0132562D01*
X0077005Y0132317D01*
X0078525Y0132034D01*
X0080038Y0131713D01*
X0081542Y0131356D01*
X0083037Y0130962D01*
X0084522Y0130532D01*
X0085995Y0130065D01*
X0087457Y0129562D01*
X0088907Y0129023D01*
X0090342Y0128449D01*
X0091763Y0127840D01*
X0093169Y0127196D01*
X0094558Y0126518D01*
X0095930Y0125806D01*
X0097285Y0125061D01*
X0098620Y0124282D01*
X0099937Y0123471D01*
X0101232Y0122628D01*
X0102507Y0121753D01*
X0103760Y0120848D01*
X0104991Y0119912D01*
X0106198Y0118945D01*
X0107381Y0117950D01*
X0108539Y0116926D01*
X0109672Y0115874D01*
X0110778Y0114794D01*
X0111858Y0113688D01*
X0112910Y0112555D01*
X0113934Y0111397D01*
X0114929Y0110214D01*
X0115896Y0109007D01*
X0116832Y0107776D01*
X0117737Y0106523D01*
X0118612Y0105248D01*
X0119455Y0103953D01*
X0120266Y0102636D01*
X0121045Y0101301D01*
X0121790Y0099946D01*
X0122502Y0098574D01*
X0123180Y0097185D01*
X0123824Y0095779D01*
X0124433Y0094358D01*
X0125007Y0092923D01*
X0125546Y0091473D01*
X0126049Y0090011D01*
X0126516Y0088538D01*
X0126946Y0087053D01*
X0127340Y0085558D01*
X0127697Y0084054D01*
X0128018Y0082541D01*
X0128301Y0081021D01*
X0128546Y0079495D01*
X0128754Y0077963D01*
X0128925Y0076426D01*
X0129057Y0074886D01*
X0129152Y0073343D01*
X0129209Y0071798D01*
X0129228Y0070252D01*
X0129209Y0068706D01*
X0129152Y0067161D01*
X0129057Y0065618D01*
X0128925Y0064078D01*
X0128754Y0062541D01*
X0128546Y0061009D01*
X0128301Y0059483D01*
X0128018Y0057963D01*
X0127697Y0056450D01*
X0127340Y0054946D01*
X0126946Y0053451D01*
X0126516Y0051966D01*
X0126049Y0050493D01*
X0125546Y0049031D01*
X0125007Y0047581D01*
X0124433Y0046146D01*
X0123824Y0044725D01*
X0123180Y0043319D01*
X0122502Y0041930D01*
X0121790Y0040558D01*
X0121045Y0039203D01*
X0120266Y0037868D01*
X0119455Y0036551D01*
X0118612Y0035256D01*
X0117737Y0033981D01*
X0116832Y0032728D01*
X0115896Y0031497D01*
X0114929Y0030290D01*
X0113934Y0029107D01*
X0112910Y0027949D01*
X0111858Y0026816D01*
X0110778Y0025710D01*
X0109672Y0024630D01*
X0108539Y0023578D01*
X0107381Y0022554D01*
X0106198Y0021559D01*
X0104991Y0020592D01*
X0103760Y0019656D01*
X0102507Y0018751D01*
X0101232Y0017876D01*
X0099937Y0017033D01*
X0098620Y0016222D01*
X0097285Y0015443D01*
X0095930Y0014698D01*
X0094558Y0013986D01*
X0093169Y0013308D01*
X0091763Y0012664D01*
X0090342Y0012055D01*
X0088907Y0011481D01*
X0087457Y0010942D01*
X0085995Y0010439D01*
X0084522Y0009972D01*
X0083037Y0009542D01*
X0081542Y0009148D01*
X0080038Y0008791D01*
X0078525Y0008470D01*
X0077005Y0008187D01*
X0075479Y0007942D01*
X0073947Y0007734D01*
X0072410Y0007563D01*
X0070870Y0007431D01*
X0069327Y0007336D01*
X0067782Y0007279D01*
X0066236Y0007260D01*
X0064690Y0007279D01*
X0063145Y0007336D01*
X0061602Y0007431D01*
X0060062Y0007563D01*
X0058525Y0007734D01*
X0056993Y0007942D01*
X0055467Y0008187D01*
X0053947Y0008470D01*
X0052434Y0008791D01*
X0050930Y0009148D01*
X0049435Y0009542D01*
X0047950Y0009972D01*
X0046477Y0010439D01*
X0045015Y0010942D01*
X0043565Y0011481D01*
X0042130Y0012055D01*
X0040709Y0012664D01*
X0039303Y0013308D01*
X0037914Y0013986D01*
X0036542Y0014698D01*
X0035187Y0015443D01*
X0033852Y0016222D01*
X0032535Y0017033D01*
X0031240Y0017876D01*
X0029965Y0018751D01*
X0028712Y0019656D01*
X0027481Y0020592D01*
X0026274Y0021559D01*
X0025091Y0022554D01*
X0023933Y0023578D01*
X0022800Y0024630D01*
X0021694Y0025710D01*
X0020614Y0026816D01*
X0019562Y0027949D01*
X0018538Y0029107D01*
X0017543Y0030290D01*
X0016576Y0031497D01*
X0015640Y0032728D01*
X0014735Y0033981D01*
X0013860Y0035256D01*
X0013017Y0036551D01*
X0012206Y0037868D01*
X0011427Y0039203D01*
X0010682Y0040558D01*
X0009970Y0041930D01*
X0009292Y0043319D01*
X0008648Y0044725D01*
X0008039Y0046146D01*
X0007465Y0047581D01*
X0006926Y0049031D01*
X0006423Y0050493D01*
X0005956Y0051966D01*
X0005526Y0053451D01*
X0005132Y0054946D01*
X0004775Y0056450D01*
X0004454Y0057963D01*
X0004171Y0059483D01*
X0003926Y0061009D01*
X0003718Y0062541D01*
X0003547Y0064078D01*
X0003415Y0065618D01*
X0003320Y0067161D01*
X0003263Y0068706D01*
X0003244Y0070252D01*
D11*
X0011807Y0074071D03*
X0013776Y0074071D03*
X0015744Y0074071D03*
X0017713Y0074071D03*
X0019681Y0074071D03*
X0021650Y0074071D03*
X0023618Y0074071D03*
X0025587Y0074071D03*
X0027555Y0074071D03*
X0029524Y0074071D03*
X0031492Y0074071D03*
X0033461Y0074071D03*
X0035429Y0074071D03*
X0037398Y0074071D03*
X0039366Y0074071D03*
X0041335Y0074071D03*
X0043303Y0074071D03*
X0045272Y0074071D03*
X0047240Y0074071D03*
X0047240Y0052417D03*
X0045272Y0052417D03*
X0043303Y0052417D03*
X0041335Y0052417D03*
X0039366Y0052417D03*
X0037398Y0052417D03*
X0035429Y0052417D03*
X0033461Y0052417D03*
X0031492Y0052417D03*
X0029524Y0052417D03*
X0027555Y0052417D03*
X0025587Y0052417D03*
X0023618Y0052417D03*
X0021650Y0052417D03*
X0019681Y0052417D03*
X0017713Y0052417D03*
X0015744Y0052417D03*
X0013776Y0052417D03*
X0011807Y0052417D03*
D12*
X0029524Y0063244D03*
D13*
X0076472Y0051689D03*
X0076472Y0090862D03*
D14*
X0020843Y0084406D03*
X0020843Y0079681D03*
D15*
X0013776Y0080882D03*
X0008677Y0080823D03*
X0008677Y0085941D03*
X0013776Y0086000D03*
X0008008Y0074012D03*
X0008008Y0068894D03*
X0008008Y0062083D03*
X0008008Y0056965D03*
X0045744Y0119681D03*
X0045744Y0124799D03*
D16*
X0031728Y0083598D03*
X0027004Y0083598D03*
X0020252Y0047083D03*
X0015528Y0047083D03*
D17*
X0032201Y0087122D03*
X0032201Y0091315D03*
X0037319Y0091315D03*
X0037319Y0087122D03*
X0025488Y0088480D03*
X0020370Y0088480D03*
D18*
X0063500Y0117358D03*
D19*
X0070980Y0117358D03*
X0070980Y0119327D03*
X0070980Y0121295D03*
X0070980Y0115390D03*
X0070980Y0113421D03*
X0056020Y0113421D03*
X0056020Y0115390D03*
X0056020Y0117358D03*
X0056020Y0119327D03*
X0056020Y0121295D03*
D20*
X0059563Y0124839D03*
X0061531Y0124839D03*
X0063500Y0124839D03*
X0065469Y0124839D03*
X0067437Y0124839D03*
X0067437Y0109878D03*
X0065469Y0109878D03*
X0063500Y0109878D03*
X0061531Y0109878D03*
X0059563Y0109878D03*
D21*
X0039189Y0106886D03*
X0039189Y0118303D03*
D22*
G36*
X0024906Y0113953D02*
X0029359Y0118406D01*
X0034368Y0113397D01*
X0029915Y0108944D01*
X0024906Y0113953D01*
G37*
G36*
X0017111Y0106158D02*
X0021564Y0110611D01*
X0026573Y0105602D01*
X0022120Y0101149D01*
X0017111Y0106158D01*
G37*
D23*
X0045587Y0089862D03*
X0048087Y0084862D03*
X0050587Y0089862D03*
D24*
X0076079Y0110606D03*
X0076079Y0117496D03*
X0076079Y0125370D03*
X0063283Y0129307D03*
X0050646Y0119169D03*
D25*
X0048928Y0119169D01*
X0047956Y0117113D02*
X0048745Y0116324D01*
X0049978Y0115813D01*
X0051313Y0115813D01*
X0052547Y0116324D01*
X0053491Y0117268D01*
X0053540Y0117388D01*
X0054420Y0117388D01*
X0054578Y0117546D01*
X0057792Y0117546D01*
X0058490Y0118243D01*
X0058490Y0121168D01*
X0065946Y0121168D01*
X0065946Y0116157D01*
X0065541Y0115989D01*
X0064869Y0115317D01*
X0064505Y0114438D01*
X0064505Y0113487D01*
X0064869Y0112609D01*
X0065130Y0112348D01*
X0058490Y0112348D01*
X0058490Y0116473D01*
X0057792Y0117171D01*
X0054247Y0117171D01*
X0053550Y0116473D01*
X0053550Y0112338D01*
X0054247Y0111640D01*
X0057782Y0111640D01*
X0057782Y0108598D01*
X0055921Y0108598D01*
X0052679Y0105356D01*
X0048752Y0105356D01*
X0041676Y0098280D01*
X0041676Y0100050D01*
X0040970Y0100755D01*
X0040970Y0102743D01*
X0042044Y0102743D01*
X0042742Y0103440D01*
X0042742Y0110332D01*
X0042044Y0111029D01*
X0036334Y0111029D01*
X0035636Y0110332D01*
X0035636Y0103440D01*
X0035688Y0103388D01*
X0035020Y0103111D01*
X0034347Y0102438D01*
X0033983Y0101560D01*
X0033983Y0100609D01*
X0034347Y0099730D01*
X0035020Y0099058D01*
X0035828Y0098723D01*
X0035828Y0094277D01*
X0035448Y0094277D01*
X0034760Y0093589D01*
X0034072Y0094277D01*
X0030330Y0094277D01*
X0029632Y0093580D01*
X0029632Y0093096D01*
X0029185Y0093096D01*
X0028142Y0092053D01*
X0028142Y0091375D01*
X0027784Y0091017D01*
X0027359Y0091443D01*
X0023617Y0091443D01*
X0022920Y0090745D01*
X0022920Y0089376D01*
X0022789Y0089245D01*
X0022422Y0089084D01*
X0022288Y0088744D01*
X0022029Y0088485D01*
X0022029Y0088084D01*
X0021883Y0087711D01*
X0022029Y0087376D01*
X0022029Y0082693D01*
X0019343Y0082693D01*
X0019416Y0082870D01*
X0019416Y0083821D01*
X0019052Y0084699D01*
X0018380Y0085372D01*
X0017501Y0085736D01*
X0016550Y0085736D01*
X0015671Y0085372D01*
X0014999Y0084699D01*
X0014635Y0083821D01*
X0014635Y0083450D01*
X0011511Y0083450D01*
X0011197Y0083136D01*
X0010942Y0083391D01*
X0006412Y0083391D01*
X0006303Y0083282D01*
X0006452Y0084242D01*
X0009288Y0093204D01*
X0013459Y0101628D01*
X0018867Y0109317D01*
X0023714Y0114353D01*
X0023714Y0113461D01*
X0029423Y0107752D01*
X0030409Y0107752D01*
X0035560Y0112904D01*
X0035560Y0113890D01*
X0034902Y0114548D01*
X0035945Y0114548D01*
X0036334Y0114160D01*
X0042044Y0114160D01*
X0042742Y0114857D01*
X0042742Y0117691D01*
X0042901Y0117691D01*
X0043479Y0117113D01*
X0047956Y0117113D01*
X0048105Y0116964D02*
X0042742Y0116964D01*
X0042742Y0115784D02*
X0053550Y0115784D01*
X0053550Y0114605D02*
X0042489Y0114605D01*
X0042742Y0109886D02*
X0057782Y0109886D01*
X0057782Y0108707D02*
X0042742Y0108707D01*
X0042742Y0107527D02*
X0054850Y0107527D01*
X0053670Y0106347D02*
X0042742Y0106347D01*
X0042742Y0105168D02*
X0048563Y0105168D01*
X0047384Y0103988D02*
X0042742Y0103988D01*
X0042110Y0102809D02*
X0046204Y0102809D01*
X0045024Y0101629D02*
X0040970Y0101629D01*
X0041276Y0100449D02*
X0043845Y0100449D01*
X0042665Y0099270D02*
X0041676Y0099270D01*
X0039895Y0099312D02*
X0039895Y0084572D01*
X0036197Y0080875D01*
X0036197Y0079582D01*
X0036197Y0078185D01*
X0035429Y0077417D01*
X0035429Y0074071D01*
X0037398Y0074071D02*
X0037398Y0076582D01*
X0040517Y0079701D01*
X0040517Y0082303D01*
X0041903Y0083689D01*
X0041903Y0095988D01*
X0049490Y0103575D01*
X0083309Y0103575D01*
X0090932Y0095069D02*
X0090932Y0093314D01*
X0088480Y0090862D01*
X0076472Y0090862D01*
X0084490Y0079057D02*
X0077181Y0071748D01*
X0063244Y0071748D01*
X0063008Y0071512D01*
X0062943Y0071498D01*
X0060519Y0069074D01*
X0056051Y0069074D01*
X0054637Y0070488D01*
X0045272Y0070488D01*
X0045272Y0074071D01*
X0047240Y0074071D02*
X0056899Y0074071D01*
X0058904Y0072066D01*
X0063367Y0069180D02*
X0061252Y0067066D01*
X0055081Y0067066D01*
X0054296Y0067851D01*
X0044208Y0067851D01*
X0041335Y0070724D01*
X0041335Y0074071D01*
X0043303Y0074071D02*
X0043303Y0077417D01*
X0043303Y0079378D01*
X0045783Y0079378D01*
X0048087Y0081681D01*
X0048087Y0084862D01*
X0049905Y0086681D01*
X0050587Y0086681D01*
X0050587Y0089862D01*
X0047396Y0089833D02*
X0043684Y0089833D01*
X0043684Y0091012D02*
X0047396Y0091012D01*
X0047396Y0092192D02*
X0043684Y0092192D01*
X0043684Y0093372D02*
X0047654Y0093372D01*
X0047654Y0092613D02*
X0047654Y0099220D01*
X0043684Y0095251D01*
X0043684Y0082951D01*
X0042875Y0082143D01*
X0043853Y0082143D01*
X0044870Y0081722D01*
X0045239Y0081352D01*
X0045576Y0081689D01*
X0044896Y0082369D01*
X0044896Y0087355D01*
X0045593Y0088053D01*
X0047396Y0088053D01*
X0047396Y0092355D01*
X0047654Y0092613D01*
X0047654Y0094551D02*
X0043684Y0094551D01*
X0044164Y0095731D02*
X0047654Y0095731D01*
X0047654Y0096910D02*
X0045344Y0096910D01*
X0046523Y0098090D02*
X0047654Y0098090D01*
X0039895Y0099312D02*
X0039189Y0100018D01*
X0039189Y0106650D01*
X0039189Y0106886D01*
X0035636Y0106347D02*
X0016778Y0106347D01*
X0015949Y0105168D02*
X0035636Y0105168D01*
X0035636Y0103988D02*
X0015119Y0103988D01*
X0014289Y0102809D02*
X0034718Y0102809D01*
X0034012Y0101629D02*
X0013459Y0101629D01*
X0012875Y0100449D02*
X0034049Y0100449D01*
X0034808Y0099270D02*
X0012291Y0099270D01*
X0011707Y0098090D02*
X0035828Y0098090D01*
X0035828Y0096910D02*
X0011123Y0096910D01*
X0010539Y0095731D02*
X0035828Y0095731D01*
X0035828Y0094551D02*
X0009955Y0094551D01*
X0009371Y0093372D02*
X0029632Y0093372D01*
X0028281Y0092192D02*
X0008968Y0092192D01*
X0008594Y0091012D02*
X0023187Y0091012D01*
X0022920Y0089833D02*
X0008221Y0089833D01*
X0007848Y0088653D02*
X0022197Y0088653D01*
X0021987Y0087474D02*
X0007474Y0087474D01*
X0007101Y0086294D02*
X0022029Y0086294D01*
X0022029Y0085114D02*
X0018637Y0085114D01*
X0019369Y0083935D02*
X0022029Y0083935D01*
X0022029Y0082755D02*
X0019369Y0082755D01*
X0020843Y0084406D02*
X0020843Y0087126D01*
X0020370Y0087261D02*
X0017709Y0087261D01*
X0016447Y0086000D01*
X0013776Y0086000D01*
X0011748Y0086000D01*
X0011104Y0086000D01*
X0011045Y0085941D01*
X0008677Y0085941D01*
X0006728Y0085114D02*
X0015414Y0085114D01*
X0014682Y0083935D02*
X0006404Y0083935D01*
X0008677Y0080823D02*
X0008677Y0074012D01*
X0010680Y0074012D01*
X0010739Y0074071D01*
X0011807Y0074071D01*
X0013776Y0074071D02*
X0013776Y0080882D01*
X0017025Y0078821D02*
X0015744Y0077540D01*
X0015744Y0074071D01*
X0012083Y0070297D02*
X0010680Y0068894D01*
X0008008Y0068894D01*
X0005046Y0068600D02*
X0005017Y0068600D01*
X0005017Y0069779D02*
X0005046Y0069779D01*
X0005046Y0070765D02*
X0005046Y0067023D01*
X0005743Y0066325D01*
X0010273Y0066325D01*
X0010970Y0067023D01*
X0010970Y0067113D01*
X0011417Y0067113D01*
X0012820Y0068516D01*
X0022387Y0068516D01*
X0023431Y0069559D01*
X0023431Y0070715D01*
X0037585Y0070715D01*
X0037585Y0069326D01*
X0038628Y0068283D01*
X0042849Y0064062D01*
X0046740Y0064062D01*
X0046512Y0063834D01*
X0040927Y0058250D01*
X0032151Y0058250D01*
X0031278Y0057377D01*
X0030875Y0056973D01*
X0030875Y0056973D01*
X0030002Y0056100D01*
X0030002Y0055396D01*
X0029681Y0055076D01*
X0029681Y0050016D01*
X0029256Y0050016D01*
X0028429Y0050842D01*
X0027397Y0050842D01*
X0027397Y0055076D01*
X0026700Y0055773D01*
X0020536Y0055773D01*
X0019839Y0055076D01*
X0019839Y0050016D01*
X0019523Y0050016D01*
X0019523Y0055076D01*
X0019203Y0055396D01*
X0019203Y0056223D01*
X0018330Y0057096D01*
X0016272Y0059154D01*
X0015399Y0060027D01*
X0011634Y0060027D01*
X0010706Y0059099D01*
X0010273Y0059533D01*
X0005946Y0059533D01*
X0005017Y0065552D01*
X0005017Y0074952D01*
X0005046Y0075139D01*
X0005046Y0072141D01*
X0005734Y0071453D01*
X0005046Y0070765D01*
X0005017Y0070959D02*
X0005240Y0070959D01*
X0005048Y0072139D02*
X0005017Y0072139D01*
X0005017Y0073318D02*
X0005046Y0073318D01*
X0005017Y0074498D02*
X0005046Y0074498D01*
X0005017Y0067420D02*
X0005046Y0067420D01*
X0005017Y0066241D02*
X0040671Y0066241D01*
X0039491Y0067420D02*
X0011725Y0067420D01*
X0012083Y0070297D02*
X0021650Y0070297D01*
X0021650Y0074071D01*
X0021650Y0078874D01*
X0023811Y0080881D02*
X0023811Y0087748D01*
X0025488Y0088480D01*
X0027766Y0088480D01*
X0029923Y0090637D01*
X0029923Y0091315D01*
X0032201Y0091315D01*
X0032201Y0087122D02*
X0032201Y0084450D01*
X0031728Y0083598D02*
X0031728Y0081242D01*
X0031492Y0081005D01*
X0031492Y0074071D01*
X0029524Y0074071D02*
X0029524Y0078722D01*
X0027004Y0081242D01*
X0027004Y0083598D01*
X0023811Y0080881D02*
X0027555Y0077136D01*
X0027555Y0074071D01*
X0023431Y0069779D02*
X0037585Y0069779D01*
X0038312Y0068600D02*
X0022471Y0068600D01*
X0029524Y0063244D02*
X0029524Y0055955D01*
X0029524Y0052417D01*
X0029681Y0052085D02*
X0027397Y0052085D01*
X0027555Y0052644D02*
X0027555Y0055955D01*
X0029524Y0055955D01*
X0030002Y0055624D02*
X0026849Y0055624D01*
X0027555Y0055955D02*
X0019681Y0055955D01*
X0019681Y0052417D01*
X0019681Y0049538D01*
X0020252Y0048967D01*
X0020252Y0047083D01*
X0023618Y0048826D02*
X0026151Y0046293D01*
X0026417Y0049061D02*
X0027692Y0049061D01*
X0050578Y0026175D01*
X0039852Y0017792D02*
X0072901Y0017792D01*
X0079495Y0024386D01*
X0094694Y0039585D01*
X0094694Y0062925D01*
X0092639Y0064980D01*
X0066068Y0064980D01*
X0059055Y0057968D01*
X0056078Y0057968D01*
X0054976Y0056866D01*
X0049071Y0056866D01*
X0048126Y0057811D01*
X0048066Y0057968D01*
X0047240Y0057142D01*
X0047240Y0054091D01*
X0047240Y0052417D01*
X0045272Y0052417D02*
X0045272Y0049071D01*
X0045272Y0048618D01*
X0046472Y0047417D01*
X0060173Y0047417D01*
X0061591Y0048835D01*
X0061846Y0049071D01*
X0064465Y0051689D01*
X0076472Y0051689D01*
X0086535Y0061719D02*
X0088487Y0059767D01*
X0088487Y0043610D01*
X0087800Y0042923D01*
X0047908Y0042923D01*
X0043303Y0047527D01*
X0043303Y0052417D01*
X0039366Y0052417D02*
X0039366Y0049071D01*
X0039653Y0048784D01*
X0039653Y0048074D01*
X0031278Y0057377D02*
X0031278Y0057377D01*
X0030705Y0056804D02*
X0018622Y0056804D01*
X0018330Y0057096D02*
X0018330Y0057096D01*
X0017442Y0057983D02*
X0031885Y0057983D01*
X0029681Y0054444D02*
X0027397Y0054444D01*
X0027397Y0053265D02*
X0029681Y0053265D01*
X0029681Y0050906D02*
X0027397Y0050906D01*
X0025587Y0049892D02*
X0026417Y0049061D01*
X0025587Y0049892D02*
X0025587Y0052417D01*
X0023618Y0052417D02*
X0023618Y0048826D01*
X0019839Y0050906D02*
X0019523Y0050906D01*
X0019523Y0052085D02*
X0019839Y0052085D01*
X0019839Y0053265D02*
X0019523Y0053265D01*
X0019523Y0054444D02*
X0019839Y0054444D01*
X0020387Y0055624D02*
X0019203Y0055624D01*
X0016272Y0059154D02*
X0016272Y0059154D01*
X0016263Y0059163D02*
X0041840Y0059163D01*
X0043020Y0060342D02*
X0005821Y0060342D01*
X0005639Y0061522D02*
X0044199Y0061522D01*
X0045379Y0062702D02*
X0005457Y0062702D01*
X0005275Y0063881D02*
X0046559Y0063881D01*
X0043587Y0065844D02*
X0039366Y0070064D01*
X0039366Y0074071D01*
X0043587Y0065844D02*
X0053326Y0065844D01*
X0054111Y0065058D01*
X0062459Y0065058D01*
X0064337Y0066936D01*
X0079578Y0066936D01*
X0091979Y0079337D01*
X0091979Y0081712D01*
X0088480Y0079063D02*
X0078598Y0069180D01*
X0063367Y0069180D01*
X0063076Y0055803D02*
X0063076Y0053078D01*
X0064465Y0051689D01*
X0041851Y0065061D02*
X0005093Y0065061D01*
X0010643Y0059163D02*
X0010770Y0059163D01*
X0011807Y0052417D02*
X0011807Y0045837D01*
X0039852Y0017792D01*
X0015528Y0047083D02*
X0015528Y0049439D01*
X0015744Y0049656D01*
X0015744Y0052417D01*
X0017025Y0078821D02*
X0017025Y0083345D01*
X0020370Y0088480D02*
X0020370Y0101626D01*
X0018979Y0103017D01*
X0021782Y0105820D01*
X0018438Y0108707D02*
X0028468Y0108707D01*
X0027288Y0109886D02*
X0019415Y0109886D01*
X0020550Y0111066D02*
X0026109Y0111066D01*
X0024929Y0112245D02*
X0021685Y0112245D01*
X0022821Y0113425D02*
X0023750Y0113425D01*
X0017608Y0107527D02*
X0035636Y0107527D01*
X0035636Y0108707D02*
X0031363Y0108707D01*
X0032543Y0109886D02*
X0035636Y0109886D01*
X0033723Y0111066D02*
X0057782Y0111066D01*
X0058490Y0113425D02*
X0064531Y0113425D01*
X0064574Y0114605D02*
X0058490Y0114605D01*
X0058490Y0115784D02*
X0065336Y0115784D01*
X0065946Y0116964D02*
X0057999Y0116964D01*
X0058390Y0118144D02*
X0065946Y0118144D01*
X0065946Y0119323D02*
X0058490Y0119323D01*
X0058490Y0120503D02*
X0065946Y0120503D01*
X0063500Y0117358D02*
X0056020Y0117358D01*
X0056020Y0119327D02*
X0053840Y0119327D01*
X0053683Y0119169D01*
X0050646Y0119169D01*
X0053186Y0116964D02*
X0054040Y0116964D01*
X0053550Y0113425D02*
X0035560Y0113425D01*
X0034902Y0112245D02*
X0053642Y0112245D01*
X0037319Y0091315D02*
X0037319Y0087122D01*
X0043488Y0082755D02*
X0044896Y0082755D01*
X0044896Y0083935D02*
X0043684Y0083935D01*
X0043684Y0085114D02*
X0044896Y0085114D01*
X0044896Y0086294D02*
X0043684Y0086294D01*
X0043684Y0087474D02*
X0045014Y0087474D01*
X0043684Y0088653D02*
X0047396Y0088653D01*
X0045462Y0081576D02*
X0045016Y0081576D01*
X0029637Y0113675D02*
X0029637Y0113675D01*
X0084490Y0079057D02*
X0084553Y0079057D01*
X0088480Y0079063D02*
X0088480Y0090862D01*
D26*
X0076729Y0105256D02*
X0076729Y0105311D01*
X0078126Y0106709D01*
X0078126Y0107654D01*
X0081433Y0110961D01*
X0081446Y0113752D01*
X0076079Y0110606D02*
X0076000Y0110488D01*
X0072895Y0107383D01*
X0067752Y0107383D01*
X0067437Y0107698D01*
X0067437Y0109878D01*
X0066896Y0113963D02*
X0067437Y0114504D01*
X0067437Y0124839D01*
X0068409Y0127018D02*
X0070201Y0125226D01*
X0070201Y0124048D01*
X0070980Y0121295D02*
X0073160Y0121295D01*
X0073160Y0121605D01*
X0076079Y0125370D01*
X0076079Y0117496D02*
X0076000Y0117339D01*
X0073657Y0114996D01*
X0073657Y0113421D01*
X0070980Y0113421D01*
X0076729Y0105256D02*
X0062006Y0105256D01*
X0059563Y0107698D01*
X0059563Y0109878D01*
X0056020Y0117358D02*
X0053840Y0117358D01*
X0049347Y0112866D01*
X0044871Y0112866D01*
X0044871Y0112866D01*
X0036216Y0112866D01*
X0031380Y0108030D01*
X0025420Y0108030D01*
X0024706Y0108744D01*
X0021842Y0105880D01*
X0021782Y0105820D01*
X0032501Y0116539D02*
X0032501Y0116539D01*
X0039189Y0118303D02*
X0039688Y0120429D01*
X0045744Y0124799D02*
X0056059Y0124799D01*
X0058199Y0122659D01*
X0065469Y0122659D01*
X0065469Y0124839D01*
X0065469Y0125089D01*
X0065469Y0127018D01*
X0068409Y0127018D01*
X0063500Y0124839D02*
X0063500Y0129268D01*
X0063283Y0129307D01*
X0044871Y0112866D02*
X0044871Y0108333D01*
X0037319Y0100128D02*
X0037319Y0091315D01*
X0037319Y0087122D02*
X0037319Y0084450D01*
X0033461Y0080592D01*
X0033461Y0077136D01*
X0033461Y0074071D01*
X0031728Y0083598D02*
X0031728Y0083978D01*
X0032201Y0084450D01*
X0021650Y0078874D02*
X0020843Y0079681D01*
X0020843Y0087126D02*
X0020505Y0087126D01*
X0020370Y0087261D01*
X0020370Y0088480D01*
X0008677Y0074012D02*
X0008008Y0074012D01*
X0012222Y0064210D02*
X0019681Y0056751D01*
X0019681Y0055955D01*
X0017713Y0055605D02*
X0014782Y0058536D01*
X0012251Y0058536D01*
X0010680Y0056965D01*
X0008008Y0056965D01*
X0017713Y0055605D02*
X0017713Y0055483D01*
X0017713Y0052417D01*
X0027555Y0052417D02*
X0027555Y0052644D01*
X0031492Y0052417D02*
X0031492Y0055483D01*
X0032769Y0056759D01*
X0041545Y0056759D01*
X0048002Y0063217D01*
X0052335Y0063217D01*
X0050496Y0060638D02*
X0051197Y0059937D01*
X0053054Y0059929D01*
X0050496Y0060638D02*
X0047157Y0060638D01*
X0042002Y0055483D01*
X0033461Y0055483D01*
X0033461Y0053950D01*
X0033461Y0052417D01*
X0035429Y0052417D02*
X0035429Y0049352D01*
X0035429Y0047101D01*
X0042368Y0040161D01*
X0042786Y0040161D01*
X0042786Y0040161D01*
X0041659Y0042568D02*
X0044622Y0042568D01*
X0045027Y0042163D01*
X0041659Y0042568D02*
X0037178Y0047049D01*
X0037178Y0049132D01*
X0037398Y0049352D01*
X0037398Y0052417D01*
X0037319Y0100128D02*
X0036374Y0101084D01*
D27*
X0036197Y0079582D03*
X0043303Y0079378D03*
X0058904Y0072066D03*
X0048066Y0057968D03*
X0039653Y0048074D03*
X0026151Y0046293D03*
X0050578Y0026175D03*
X0076068Y0051551D03*
X0079848Y0051551D03*
X0078666Y0055803D03*
X0074887Y0055803D03*
X0071107Y0055803D03*
X0067328Y0055803D03*
X0063076Y0055803D03*
X0074887Y0059583D03*
X0078666Y0059583D03*
X0086535Y0061719D03*
X0090756Y0061988D03*
X0100164Y0060803D03*
X0100164Y0065724D03*
X0105086Y0065724D03*
X0105086Y0060803D03*
X0105086Y0055882D03*
X0105086Y0050961D03*
X0100164Y0050961D03*
X0100164Y0055882D03*
X0095243Y0032260D03*
X0091306Y0030291D03*
X0093275Y0026354D03*
X0095243Y0022417D03*
X0091306Y0020449D03*
X0089338Y0024386D03*
X0087369Y0028323D03*
X0083432Y0026354D03*
X0085401Y0022417D03*
X0081464Y0020449D03*
X0083432Y0016512D03*
X0087369Y0018480D03*
X0079495Y0024386D03*
X0097212Y0028323D03*
X0099180Y0024386D03*
X0084553Y0079057D03*
X0080538Y0084440D03*
X0076995Y0084440D03*
X0073452Y0084440D03*
X0073452Y0088219D03*
X0076995Y0088219D03*
X0076995Y0091999D03*
X0073452Y0091999D03*
X0083309Y0103575D03*
X0090932Y0095069D03*
X0101149Y0089347D03*
X0103117Y0085410D03*
X0108038Y0087378D03*
X0106070Y0091315D03*
X0110991Y0093284D03*
X0112960Y0089347D03*
X0091979Y0081712D03*
X0095243Y0111984D03*
X0095243Y0116906D03*
X0095243Y0121827D03*
X0100164Y0116906D03*
X0100164Y0111984D03*
X0105086Y0111984D03*
X0011276Y0089701D03*
D28*
X0024536Y0026146D02*
X0040581Y0026146D01*
X0038220Y0028506D02*
X0022264Y0028506D01*
X0019992Y0030867D02*
X0035859Y0030867D01*
X0033499Y0033228D02*
X0018152Y0033228D01*
X0019323Y0031563D02*
X0013967Y0039177D01*
X0010004Y0047181D01*
X0011926Y0047181D01*
X0011926Y0044888D01*
X0012969Y0043845D01*
X0022811Y0043845D01*
X0023189Y0044223D01*
X0023189Y0044175D01*
X0023640Y0043086D01*
X0045804Y0020922D01*
X0046637Y0020089D01*
X0047726Y0019638D01*
X0071283Y0019638D01*
X0071863Y0019635D01*
X0071871Y0019638D01*
X0071880Y0019638D01*
X0072416Y0019860D01*
X0072954Y0020079D01*
X0072961Y0020086D01*
X0072969Y0020089D01*
X0073379Y0020499D01*
X0092904Y0039793D01*
X0092921Y0039800D01*
X0093323Y0040207D01*
X0093729Y0040608D01*
X0093736Y0040625D01*
X0093750Y0040638D01*
X0093965Y0041168D01*
X0094187Y0041694D01*
X0094187Y0041713D01*
X0094194Y0041730D01*
X0094190Y0042302D01*
X0094194Y0042873D01*
X0094187Y0042890D01*
X0094080Y0060182D01*
X0094080Y0061245D01*
X0094111Y0061320D01*
X0094111Y0062656D01*
X0093601Y0063889D01*
X0092657Y0064833D01*
X0091423Y0065344D01*
X0090088Y0065344D01*
X0088855Y0064833D01*
X0088511Y0064489D01*
X0088436Y0064564D01*
X0087202Y0065075D01*
X0085867Y0065075D01*
X0084634Y0064564D01*
X0083690Y0063620D01*
X0083179Y0062386D01*
X0083179Y0061051D01*
X0083180Y0061049D01*
X0081692Y0061049D01*
X0081511Y0061484D01*
X0080567Y0062428D01*
X0079334Y0062939D01*
X0077999Y0062939D01*
X0076777Y0062432D01*
X0075555Y0062939D01*
X0074219Y0062939D01*
X0072986Y0062428D01*
X0072042Y0061484D01*
X0071862Y0061049D01*
X0064908Y0061049D01*
X0063865Y0060005D01*
X0063865Y0059109D01*
X0063743Y0059159D01*
X0062408Y0059159D01*
X0061175Y0058648D01*
X0060231Y0057704D01*
X0059720Y0056471D01*
X0059720Y0055136D01*
X0060231Y0053902D01*
X0060704Y0053429D01*
X0060704Y0052095D01*
X0061111Y0051689D01*
X0060628Y0051206D01*
X0060608Y0051206D01*
X0059947Y0050545D01*
X0059260Y0049911D01*
X0059258Y0049856D01*
X0059191Y0049789D01*
X0051445Y0049789D01*
X0051479Y0057355D01*
X0052461Y0056948D01*
X0053647Y0056948D01*
X0054743Y0057402D01*
X0055581Y0058240D01*
X0056035Y0059336D01*
X0056035Y0060522D01*
X0055581Y0061618D01*
X0055099Y0062100D01*
X0055316Y0062624D01*
X0055316Y0062686D01*
X0063441Y0062686D01*
X0064830Y0064075D01*
X0065319Y0064565D01*
X0080561Y0064565D01*
X0081950Y0065954D01*
X0094351Y0078354D01*
X0094351Y0079338D01*
X0094824Y0079811D01*
X0095335Y0081045D01*
X0095335Y0082380D01*
X0094824Y0083613D01*
X0093880Y0084557D01*
X0092646Y0085068D01*
X0091311Y0085068D01*
X0090852Y0084878D01*
X0090852Y0089880D01*
X0091914Y0090942D01*
X0093304Y0092331D01*
X0093304Y0092695D01*
X0093777Y0093168D01*
X0094288Y0094402D01*
X0094288Y0095737D01*
X0093777Y0096970D01*
X0092833Y0097914D01*
X0091599Y0098425D01*
X0090264Y0098425D01*
X0089080Y0097935D01*
X0089080Y0099179D01*
X0088037Y0100222D01*
X0083983Y0100222D01*
X0085210Y0100730D01*
X0086154Y0101674D01*
X0086665Y0102908D01*
X0086665Y0104243D01*
X0086190Y0105391D01*
X0093717Y0105291D01*
X0093717Y0124377D01*
X0095286Y0123673D01*
X0103100Y0118613D01*
X0110050Y0112419D01*
X0115974Y0105237D01*
X0120731Y0097234D01*
X0124211Y0088599D01*
X0126333Y0079534D01*
X0127045Y0070252D01*
X0126333Y0060970D01*
X0124211Y0051905D01*
X0120731Y0043270D01*
X0115974Y0035267D01*
X0110050Y0028085D01*
X0103100Y0021891D01*
X0095286Y0016830D01*
X0086791Y0013022D01*
X0077814Y0010555D01*
X0068565Y0009488D01*
X0059262Y0009844D01*
X0050123Y0011617D01*
X0041361Y0014763D01*
X0033182Y0019211D01*
X0025778Y0024855D01*
X0019323Y0031563D01*
X0016491Y0035588D02*
X0031138Y0035588D01*
X0028777Y0037949D02*
X0014831Y0037949D01*
X0013406Y0040310D02*
X0026417Y0040310D01*
X0024056Y0042671D02*
X0012237Y0042671D01*
X0011926Y0045031D02*
X0011068Y0045031D01*
X0026151Y0044764D02*
X0048315Y0022600D01*
X0071291Y0022600D01*
X0091228Y0042301D01*
X0091118Y0060173D01*
X0091118Y0061626D01*
X0090756Y0061988D01*
X0093573Y0063917D02*
X0126559Y0063917D01*
X0126740Y0066278D02*
X0082274Y0066278D01*
X0083987Y0063917D02*
X0064672Y0063917D01*
X0063865Y0059196D02*
X0055977Y0059196D01*
X0055607Y0061556D02*
X0072115Y0061556D01*
X0081439Y0061556D02*
X0083179Y0061556D01*
X0084635Y0068638D02*
X0126921Y0068638D01*
X0126988Y0070999D02*
X0086995Y0070999D01*
X0089356Y0073360D02*
X0126807Y0073360D01*
X0126625Y0075721D02*
X0091717Y0075721D01*
X0094077Y0078081D02*
X0126444Y0078081D01*
X0126120Y0080442D02*
X0095085Y0080442D01*
X0095160Y0082803D02*
X0125568Y0082803D01*
X0125015Y0085163D02*
X0090852Y0085163D01*
X0090852Y0087524D02*
X0124463Y0087524D01*
X0123693Y0089885D02*
X0090857Y0089885D01*
X0093218Y0092246D02*
X0122742Y0092246D01*
X0121790Y0094606D02*
X0094288Y0094606D01*
X0093778Y0096967D02*
X0120839Y0096967D01*
X0119487Y0099328D02*
X0088931Y0099328D01*
X0086160Y0101688D02*
X0118083Y0101688D01*
X0116680Y0104049D02*
X0086665Y0104049D01*
X0082636Y0100222D02*
X0064908Y0100222D01*
X0063865Y0099179D01*
X0063865Y0082546D01*
X0064908Y0081502D01*
X0071773Y0081502D01*
X0072784Y0081084D01*
X0074119Y0081084D01*
X0075130Y0081502D01*
X0075316Y0081502D01*
X0076327Y0081084D01*
X0077662Y0081084D01*
X0078673Y0081502D01*
X0078860Y0081502D01*
X0079871Y0081084D01*
X0081206Y0081084D01*
X0082217Y0081502D01*
X0082253Y0081502D01*
X0081708Y0080958D01*
X0081197Y0079724D01*
X0081197Y0079118D01*
X0076199Y0074120D01*
X0062262Y0074120D01*
X0062011Y0073869D01*
X0061960Y0073869D01*
X0061840Y0073749D01*
X0061749Y0073967D01*
X0060805Y0074911D01*
X0059572Y0075422D01*
X0058903Y0075422D01*
X0057882Y0076443D01*
X0051565Y0076443D01*
X0051669Y0099386D01*
X0053487Y0101204D01*
X0080935Y0101204D01*
X0081408Y0100730D01*
X0082636Y0100222D01*
X0093717Y0106410D02*
X0115006Y0106410D01*
X0115974Y0105237D02*
X0115974Y0105237D01*
X0113059Y0108771D02*
X0093717Y0108771D01*
X0093717Y0111131D02*
X0111112Y0111131D01*
X0108846Y0113492D02*
X0093717Y0113492D01*
X0093717Y0115853D02*
X0106197Y0115853D01*
X0103548Y0118213D02*
X0093717Y0118213D01*
X0093717Y0120574D02*
X0100072Y0120574D01*
X0096426Y0122935D02*
X0093717Y0122935D01*
X0064014Y0099328D02*
X0051669Y0099328D01*
X0051658Y0096967D02*
X0063865Y0096967D01*
X0063865Y0094606D02*
X0051648Y0094606D01*
X0051637Y0092246D02*
X0063865Y0092246D01*
X0063865Y0089885D02*
X0051626Y0089885D01*
X0051616Y0087524D02*
X0063865Y0087524D01*
X0063865Y0085163D02*
X0051605Y0085163D01*
X0051594Y0082803D02*
X0063865Y0082803D01*
X0058604Y0075721D02*
X0077800Y0075721D01*
X0080160Y0078081D02*
X0051573Y0078081D01*
X0051584Y0080442D02*
X0081495Y0080442D01*
X0094111Y0061556D02*
X0126378Y0061556D01*
X0126333Y0060970D02*
X0126333Y0060970D01*
X0125918Y0059196D02*
X0094086Y0059196D01*
X0094101Y0056835D02*
X0125365Y0056835D01*
X0124813Y0054474D02*
X0094115Y0054474D01*
X0094130Y0052113D02*
X0124260Y0052113D01*
X0123344Y0049753D02*
X0094144Y0049753D01*
X0094159Y0047392D02*
X0122393Y0047392D01*
X0121441Y0045031D02*
X0094173Y0045031D01*
X0094192Y0042671D02*
X0120375Y0042671D01*
X0118972Y0040310D02*
X0093427Y0040310D01*
X0091038Y0037949D02*
X0117568Y0037949D01*
X0116165Y0035588D02*
X0088649Y0035588D01*
X0086260Y0033228D02*
X0114292Y0033228D01*
X0112345Y0030867D02*
X0083871Y0030867D01*
X0081482Y0028506D02*
X0110398Y0028506D01*
X0107874Y0026146D02*
X0079093Y0026146D01*
X0076704Y0023785D02*
X0105225Y0023785D01*
X0102379Y0021424D02*
X0074315Y0021424D01*
X0083003Y0011981D02*
X0049108Y0011981D01*
X0042535Y0014342D02*
X0089735Y0014342D01*
X0095001Y0016703D02*
X0037795Y0016703D01*
X0033454Y0019063D02*
X0098734Y0019063D01*
X0069718Y0009621D02*
X0065095Y0009621D01*
X0045302Y0021424D02*
X0030279Y0021424D01*
X0027182Y0023785D02*
X0042942Y0023785D01*
X0026151Y0044764D02*
X0026151Y0046293D01*
X0051455Y0052113D02*
X0060704Y0052113D01*
X0059994Y0054474D02*
X0051466Y0054474D01*
X0051477Y0056835D02*
X0059871Y0056835D01*
D29*
X0059150Y0087693D03*
X0063087Y0087693D03*
X0063087Y0091630D03*
X0059150Y0091630D03*
X0059150Y0095567D03*
X0063087Y0095567D03*
X0055213Y0095567D03*
X0055213Y0091630D03*
X0055213Y0087693D03*
X0051276Y0087693D03*
X0051276Y0091630D03*
X0051276Y0095567D03*
X0021748Y0043402D03*
X0019780Y0040449D03*
X0021748Y0037496D03*
X0023717Y0040449D03*
X0017811Y0043402D03*
X0015843Y0040449D03*
X0017811Y0037496D03*
X0013874Y0043402D03*
D30*
X0013776Y0052417D02*
X0013776Y0056256D01*
X0013638Y0056394D01*
X0011748Y0086000D02*
X0011276Y0086472D01*
X0011276Y0089701D01*
D31*
X0012222Y0086179D03*
X0017025Y0083345D03*
X0015175Y0067163D03*
X0015175Y0064210D03*
X0012222Y0064210D03*
X0012222Y0067045D03*
X0013638Y0056394D03*
X0042786Y0040161D03*
X0045027Y0042163D03*
X0053054Y0059929D03*
X0052335Y0063217D03*
X0046242Y0096702D03*
X0036374Y0101084D03*
X0032351Y0101010D03*
X0034005Y0097467D03*
X0044871Y0108333D03*
X0048414Y0108333D03*
X0052194Y0108333D03*
X0066896Y0113963D03*
X0070201Y0124048D03*
X0081446Y0113752D03*
D32*
X0048928Y0119169D02*
X0048416Y0119681D01*
X0045744Y0119681D01*
X0043072Y0119681D01*
X0042324Y0120429D01*
X0039688Y0120429D01*
X0035797Y0116539D01*
X0032501Y0116539D01*
X0029637Y0113675D01*
X0045587Y0096282D02*
X0046242Y0096702D01*
X0045587Y0096282D02*
X0045587Y0089862D01*
X0012222Y0064210D02*
X0010680Y0062667D01*
X0010680Y0062083D01*
X0008008Y0062083D01*
M02*
