G75*
%MOIN*%
%OFA0B0*%
%FSLAX25Y25*%
%IPPOS*%
%LPD*%
%AMOC8*
5,1,8,0,0,1.08239X$1,22.5*
%
%ADD10C,0.00004*%
D10*
X0003244Y0070252D02*
X0003263Y0071798D01*
X0003320Y0073343D01*
X0003415Y0074886D01*
X0003547Y0076426D01*
X0003718Y0077963D01*
X0003926Y0079495D01*
X0004171Y0081021D01*
X0004454Y0082541D01*
X0004775Y0084054D01*
X0005132Y0085558D01*
X0005526Y0087053D01*
X0005956Y0088538D01*
X0006423Y0090011D01*
X0006926Y0091473D01*
X0007465Y0092923D01*
X0008039Y0094358D01*
X0008648Y0095779D01*
X0009292Y0097185D01*
X0009970Y0098574D01*
X0010682Y0099946D01*
X0011427Y0101301D01*
X0012206Y0102636D01*
X0013017Y0103953D01*
X0013860Y0105248D01*
X0014735Y0106523D01*
X0015640Y0107776D01*
X0016576Y0109007D01*
X0017543Y0110214D01*
X0018538Y0111397D01*
X0019562Y0112555D01*
X0020614Y0113688D01*
X0021694Y0114794D01*
X0022800Y0115874D01*
X0023933Y0116926D01*
X0025091Y0117950D01*
X0026274Y0118945D01*
X0027481Y0119912D01*
X0028712Y0120848D01*
X0029965Y0121753D01*
X0031240Y0122628D01*
X0032535Y0123471D01*
X0033852Y0124282D01*
X0035187Y0125061D01*
X0036542Y0125806D01*
X0037914Y0126518D01*
X0039303Y0127196D01*
X0040709Y0127840D01*
X0042130Y0128449D01*
X0043565Y0129023D01*
X0045015Y0129562D01*
X0046477Y0130065D01*
X0047950Y0130532D01*
X0049435Y0130962D01*
X0050930Y0131356D01*
X0052434Y0131713D01*
X0053947Y0132034D01*
X0055467Y0132317D01*
X0056993Y0132562D01*
X0058525Y0132770D01*
X0060062Y0132941D01*
X0061602Y0133073D01*
X0063145Y0133168D01*
X0064690Y0133225D01*
X0066236Y0133244D01*
X0067782Y0133225D01*
X0069327Y0133168D01*
X0070870Y0133073D01*
X0072410Y0132941D01*
X0073947Y0132770D01*
X0075479Y0132562D01*
X0077005Y0132317D01*
X0078525Y0132034D01*
X0080038Y0131713D01*
X0081542Y0131356D01*
X0083037Y0130962D01*
X0084522Y0130532D01*
X0085995Y0130065D01*
X0087457Y0129562D01*
X0088907Y0129023D01*
X0090342Y0128449D01*
X0091763Y0127840D01*
X0093169Y0127196D01*
X0094558Y0126518D01*
X0095930Y0125806D01*
X0097285Y0125061D01*
X0098620Y0124282D01*
X0099937Y0123471D01*
X0101232Y0122628D01*
X0102507Y0121753D01*
X0103760Y0120848D01*
X0104991Y0119912D01*
X0106198Y0118945D01*
X0107381Y0117950D01*
X0108539Y0116926D01*
X0109672Y0115874D01*
X0110778Y0114794D01*
X0111858Y0113688D01*
X0112910Y0112555D01*
X0113934Y0111397D01*
X0114929Y0110214D01*
X0115896Y0109007D01*
X0116832Y0107776D01*
X0117737Y0106523D01*
X0118612Y0105248D01*
X0119455Y0103953D01*
X0120266Y0102636D01*
X0121045Y0101301D01*
X0121790Y0099946D01*
X0122502Y0098574D01*
X0123180Y0097185D01*
X0123824Y0095779D01*
X0124433Y0094358D01*
X0125007Y0092923D01*
X0125546Y0091473D01*
X0126049Y0090011D01*
X0126516Y0088538D01*
X0126946Y0087053D01*
X0127340Y0085558D01*
X0127697Y0084054D01*
X0128018Y0082541D01*
X0128301Y0081021D01*
X0128546Y0079495D01*
X0128754Y0077963D01*
X0128925Y0076426D01*
X0129057Y0074886D01*
X0129152Y0073343D01*
X0129209Y0071798D01*
X0129228Y0070252D01*
X0129209Y0068706D01*
X0129152Y0067161D01*
X0129057Y0065618D01*
X0128925Y0064078D01*
X0128754Y0062541D01*
X0128546Y0061009D01*
X0128301Y0059483D01*
X0128018Y0057963D01*
X0127697Y0056450D01*
X0127340Y0054946D01*
X0126946Y0053451D01*
X0126516Y0051966D01*
X0126049Y0050493D01*
X0125546Y0049031D01*
X0125007Y0047581D01*
X0124433Y0046146D01*
X0123824Y0044725D01*
X0123180Y0043319D01*
X0122502Y0041930D01*
X0121790Y0040558D01*
X0121045Y0039203D01*
X0120266Y0037868D01*
X0119455Y0036551D01*
X0118612Y0035256D01*
X0117737Y0033981D01*
X0116832Y0032728D01*
X0115896Y0031497D01*
X0114929Y0030290D01*
X0113934Y0029107D01*
X0112910Y0027949D01*
X0111858Y0026816D01*
X0110778Y0025710D01*
X0109672Y0024630D01*
X0108539Y0023578D01*
X0107381Y0022554D01*
X0106198Y0021559D01*
X0104991Y0020592D01*
X0103760Y0019656D01*
X0102507Y0018751D01*
X0101232Y0017876D01*
X0099937Y0017033D01*
X0098620Y0016222D01*
X0097285Y0015443D01*
X0095930Y0014698D01*
X0094558Y0013986D01*
X0093169Y0013308D01*
X0091763Y0012664D01*
X0090342Y0012055D01*
X0088907Y0011481D01*
X0087457Y0010942D01*
X0085995Y0010439D01*
X0084522Y0009972D01*
X0083037Y0009542D01*
X0081542Y0009148D01*
X0080038Y0008791D01*
X0078525Y0008470D01*
X0077005Y0008187D01*
X0075479Y0007942D01*
X0073947Y0007734D01*
X0072410Y0007563D01*
X0070870Y0007431D01*
X0069327Y0007336D01*
X0067782Y0007279D01*
X0066236Y0007260D01*
X0064690Y0007279D01*
X0063145Y0007336D01*
X0061602Y0007431D01*
X0060062Y0007563D01*
X0058525Y0007734D01*
X0056993Y0007942D01*
X0055467Y0008187D01*
X0053947Y0008470D01*
X0052434Y0008791D01*
X0050930Y0009148D01*
X0049435Y0009542D01*
X0047950Y0009972D01*
X0046477Y0010439D01*
X0045015Y0010942D01*
X0043565Y0011481D01*
X0042130Y0012055D01*
X0040709Y0012664D01*
X0039303Y0013308D01*
X0037914Y0013986D01*
X0036542Y0014698D01*
X0035187Y0015443D01*
X0033852Y0016222D01*
X0032535Y0017033D01*
X0031240Y0017876D01*
X0029965Y0018751D01*
X0028712Y0019656D01*
X0027481Y0020592D01*
X0026274Y0021559D01*
X0025091Y0022554D01*
X0023933Y0023578D01*
X0022800Y0024630D01*
X0021694Y0025710D01*
X0020614Y0026816D01*
X0019562Y0027949D01*
X0018538Y0029107D01*
X0017543Y0030290D01*
X0016576Y0031497D01*
X0015640Y0032728D01*
X0014735Y0033981D01*
X0013860Y0035256D01*
X0013017Y0036551D01*
X0012206Y0037868D01*
X0011427Y0039203D01*
X0010682Y0040558D01*
X0009970Y0041930D01*
X0009292Y0043319D01*
X0008648Y0044725D01*
X0008039Y0046146D01*
X0007465Y0047581D01*
X0006926Y0049031D01*
X0006423Y0050493D01*
X0005956Y0051966D01*
X0005526Y0053451D01*
X0005132Y0054946D01*
X0004775Y0056450D01*
X0004454Y0057963D01*
X0004171Y0059483D01*
X0003926Y0061009D01*
X0003718Y0062541D01*
X0003547Y0064078D01*
X0003415Y0065618D01*
X0003320Y0067161D01*
X0003263Y0068706D01*
X0003244Y0070252D01*
M02*
