%
M48
M72
T01C0.0120
T02C0.0157
%
T01
X1222Y6704
X1222Y6421
X1518Y6421
X1518Y6716
X1364Y5639
X1703Y8335
X1222Y8618
X3235Y10101
X3637Y10108
X3400Y9747
X4624Y9670
X4487Y10833
X4841Y10833
X5219Y10833
X6690Y11396
X7020Y12405
X8145Y11375
X4279Y4016
X4503Y4216
X5305Y5993
X5234Y6322
T02
X1781Y3750
X1584Y4045
X1387Y4340
X1781Y4340
X1978Y4045
X2175Y4340
X2372Y4045
X2175Y3750
X2615Y4629
X3965Y4807
X4807Y5797
X5890Y7207
X1128Y8970
X3620Y7958
X4330Y7938
X5128Y8769
X5128Y9163
X5521Y9163
X5521Y8769
X5915Y8769
X6309Y8769
X6309Y9163
X5915Y9163
X5915Y9557
X6309Y9557
X5521Y9557
X5128Y9557
X7345Y9200
X7699Y9200
X7699Y8822
X7345Y8822
X7345Y8444
X7699Y8444
X8054Y8444
X8455Y7906
X9198Y8171
X10115Y8935
X10312Y8541
X10804Y8738
X10607Y9132
X11099Y9328
X11296Y8935
X10509Y11198
X10016Y11198
X10016Y11691
X9524Y11691
X9524Y11198
X9524Y12183
X8331Y10358
X9093Y9507
X10016Y6572
X10016Y6080
X10509Y6080
X10509Y6572
X10509Y5588
X10509Y5096
X10016Y5096
X10016Y5588
X9076Y6199
X8653Y6172
X7867Y5958
X7867Y5580
X7489Y5580
X7111Y5580
X6733Y5580
X6308Y5580
X7489Y5958
X7607Y5155
X7985Y5155
X9524Y3226
X9131Y3029
X9327Y2635
X9524Y2242
X9131Y2045
X8934Y2439
X8737Y2832
X8343Y2635
X8540Y2242
X8146Y2045
X8343Y1651
X8737Y1848
X7950Y2439
X9721Y2832
X9918Y2439
X5058Y2617
M30
