G75*
%MOIN*%
%OFA0B0*%
%FSLAX25Y25*%
%IPPOS*%
%LPD*%
%AMOC8*
5,1,8,0,0,1.08239X$1,22.5*
%
%ADD10C,0.00004*%
%ADD11C,0.00500*%
%ADD12C,0.00800*%
%ADD13C,0.00400*%
%ADD14C,0.00600*%
D10*
X0003244Y0070252D02*
X0003263Y0071798D01*
X0003320Y0073343D01*
X0003415Y0074886D01*
X0003547Y0076426D01*
X0003718Y0077963D01*
X0003926Y0079495D01*
X0004171Y0081021D01*
X0004454Y0082541D01*
X0004775Y0084054D01*
X0005132Y0085558D01*
X0005526Y0087053D01*
X0005956Y0088538D01*
X0006423Y0090011D01*
X0006926Y0091473D01*
X0007465Y0092923D01*
X0008039Y0094358D01*
X0008648Y0095779D01*
X0009292Y0097185D01*
X0009970Y0098574D01*
X0010682Y0099946D01*
X0011427Y0101301D01*
X0012206Y0102636D01*
X0013017Y0103953D01*
X0013860Y0105248D01*
X0014735Y0106523D01*
X0015640Y0107776D01*
X0016576Y0109007D01*
X0017543Y0110214D01*
X0018538Y0111397D01*
X0019562Y0112555D01*
X0020614Y0113688D01*
X0021694Y0114794D01*
X0022800Y0115874D01*
X0023933Y0116926D01*
X0025091Y0117950D01*
X0026274Y0118945D01*
X0027481Y0119912D01*
X0028712Y0120848D01*
X0029965Y0121753D01*
X0031240Y0122628D01*
X0032535Y0123471D01*
X0033852Y0124282D01*
X0035187Y0125061D01*
X0036542Y0125806D01*
X0037914Y0126518D01*
X0039303Y0127196D01*
X0040709Y0127840D01*
X0042130Y0128449D01*
X0043565Y0129023D01*
X0045015Y0129562D01*
X0046477Y0130065D01*
X0047950Y0130532D01*
X0049435Y0130962D01*
X0050930Y0131356D01*
X0052434Y0131713D01*
X0053947Y0132034D01*
X0055467Y0132317D01*
X0056993Y0132562D01*
X0058525Y0132770D01*
X0060062Y0132941D01*
X0061602Y0133073D01*
X0063145Y0133168D01*
X0064690Y0133225D01*
X0066236Y0133244D01*
X0067782Y0133225D01*
X0069327Y0133168D01*
X0070870Y0133073D01*
X0072410Y0132941D01*
X0073947Y0132770D01*
X0075479Y0132562D01*
X0077005Y0132317D01*
X0078525Y0132034D01*
X0080038Y0131713D01*
X0081542Y0131356D01*
X0083037Y0130962D01*
X0084522Y0130532D01*
X0085995Y0130065D01*
X0087457Y0129562D01*
X0088907Y0129023D01*
X0090342Y0128449D01*
X0091763Y0127840D01*
X0093169Y0127196D01*
X0094558Y0126518D01*
X0095930Y0125806D01*
X0097285Y0125061D01*
X0098620Y0124282D01*
X0099937Y0123471D01*
X0101232Y0122628D01*
X0102507Y0121753D01*
X0103760Y0120848D01*
X0104991Y0119912D01*
X0106198Y0118945D01*
X0107381Y0117950D01*
X0108539Y0116926D01*
X0109672Y0115874D01*
X0110778Y0114794D01*
X0111858Y0113688D01*
X0112910Y0112555D01*
X0113934Y0111397D01*
X0114929Y0110214D01*
X0115896Y0109007D01*
X0116832Y0107776D01*
X0117737Y0106523D01*
X0118612Y0105248D01*
X0119455Y0103953D01*
X0120266Y0102636D01*
X0121045Y0101301D01*
X0121790Y0099946D01*
X0122502Y0098574D01*
X0123180Y0097185D01*
X0123824Y0095779D01*
X0124433Y0094358D01*
X0125007Y0092923D01*
X0125546Y0091473D01*
X0126049Y0090011D01*
X0126516Y0088538D01*
X0126946Y0087053D01*
X0127340Y0085558D01*
X0127697Y0084054D01*
X0128018Y0082541D01*
X0128301Y0081021D01*
X0128546Y0079495D01*
X0128754Y0077963D01*
X0128925Y0076426D01*
X0129057Y0074886D01*
X0129152Y0073343D01*
X0129209Y0071798D01*
X0129228Y0070252D01*
X0129209Y0068706D01*
X0129152Y0067161D01*
X0129057Y0065618D01*
X0128925Y0064078D01*
X0128754Y0062541D01*
X0128546Y0061009D01*
X0128301Y0059483D01*
X0128018Y0057963D01*
X0127697Y0056450D01*
X0127340Y0054946D01*
X0126946Y0053451D01*
X0126516Y0051966D01*
X0126049Y0050493D01*
X0125546Y0049031D01*
X0125007Y0047581D01*
X0124433Y0046146D01*
X0123824Y0044725D01*
X0123180Y0043319D01*
X0122502Y0041930D01*
X0121790Y0040558D01*
X0121045Y0039203D01*
X0120266Y0037868D01*
X0119455Y0036551D01*
X0118612Y0035256D01*
X0117737Y0033981D01*
X0116832Y0032728D01*
X0115896Y0031497D01*
X0114929Y0030290D01*
X0113934Y0029107D01*
X0112910Y0027949D01*
X0111858Y0026816D01*
X0110778Y0025710D01*
X0109672Y0024630D01*
X0108539Y0023578D01*
X0107381Y0022554D01*
X0106198Y0021559D01*
X0104991Y0020592D01*
X0103760Y0019656D01*
X0102507Y0018751D01*
X0101232Y0017876D01*
X0099937Y0017033D01*
X0098620Y0016222D01*
X0097285Y0015443D01*
X0095930Y0014698D01*
X0094558Y0013986D01*
X0093169Y0013308D01*
X0091763Y0012664D01*
X0090342Y0012055D01*
X0088907Y0011481D01*
X0087457Y0010942D01*
X0085995Y0010439D01*
X0084522Y0009972D01*
X0083037Y0009542D01*
X0081542Y0009148D01*
X0080038Y0008791D01*
X0078525Y0008470D01*
X0077005Y0008187D01*
X0075479Y0007942D01*
X0073947Y0007734D01*
X0072410Y0007563D01*
X0070870Y0007431D01*
X0069327Y0007336D01*
X0067782Y0007279D01*
X0066236Y0007260D01*
X0064690Y0007279D01*
X0063145Y0007336D01*
X0061602Y0007431D01*
X0060062Y0007563D01*
X0058525Y0007734D01*
X0056993Y0007942D01*
X0055467Y0008187D01*
X0053947Y0008470D01*
X0052434Y0008791D01*
X0050930Y0009148D01*
X0049435Y0009542D01*
X0047950Y0009972D01*
X0046477Y0010439D01*
X0045015Y0010942D01*
X0043565Y0011481D01*
X0042130Y0012055D01*
X0040709Y0012664D01*
X0039303Y0013308D01*
X0037914Y0013986D01*
X0036542Y0014698D01*
X0035187Y0015443D01*
X0033852Y0016222D01*
X0032535Y0017033D01*
X0031240Y0017876D01*
X0029965Y0018751D01*
X0028712Y0019656D01*
X0027481Y0020592D01*
X0026274Y0021559D01*
X0025091Y0022554D01*
X0023933Y0023578D01*
X0022800Y0024630D01*
X0021694Y0025710D01*
X0020614Y0026816D01*
X0019562Y0027949D01*
X0018538Y0029107D01*
X0017543Y0030290D01*
X0016576Y0031497D01*
X0015640Y0032728D01*
X0014735Y0033981D01*
X0013860Y0035256D01*
X0013017Y0036551D01*
X0012206Y0037868D01*
X0011427Y0039203D01*
X0010682Y0040558D01*
X0009970Y0041930D01*
X0009292Y0043319D01*
X0008648Y0044725D01*
X0008039Y0046146D01*
X0007465Y0047581D01*
X0006926Y0049031D01*
X0006423Y0050493D01*
X0005956Y0051966D01*
X0005526Y0053451D01*
X0005132Y0054946D01*
X0004775Y0056450D01*
X0004454Y0057963D01*
X0004171Y0059483D01*
X0003926Y0061009D01*
X0003718Y0062541D01*
X0003547Y0064078D01*
X0003415Y0065618D01*
X0003320Y0067161D01*
X0003263Y0068706D01*
X0003244Y0070252D01*
D11*
X0010232Y0054583D02*
X0048815Y0054583D01*
X0048815Y0071906D01*
X0011020Y0071906D01*
X0010232Y0071118D01*
X0010232Y0054583D01*
D12*
X0050882Y0045587D02*
X0050882Y0096866D01*
X0102063Y0096866D01*
X0102063Y0045587D01*
X0050882Y0045587D01*
X0089169Y0051788D02*
X0089636Y0052102D01*
X0090097Y0052426D01*
X0090549Y0052762D01*
X0090992Y0053109D01*
X0091428Y0053466D01*
X0091854Y0053834D01*
X0092272Y0054212D01*
X0092680Y0054600D01*
X0093078Y0054998D01*
X0093467Y0055405D01*
X0093846Y0055822D01*
X0094215Y0056248D01*
X0094573Y0056682D01*
X0094921Y0057126D01*
X0095257Y0057577D01*
X0095583Y0058036D01*
X0095897Y0058504D01*
X0096200Y0058978D01*
X0096492Y0059460D01*
X0096772Y0059949D01*
X0097039Y0060444D01*
X0097295Y0060946D01*
X0097538Y0061454D01*
X0097769Y0061968D01*
X0097988Y0062487D01*
X0098194Y0063011D01*
X0098387Y0063540D01*
X0098567Y0064073D01*
X0098734Y0064611D01*
X0098888Y0065153D01*
X0099029Y0065698D01*
X0099157Y0066247D01*
X0099272Y0066798D01*
X0099372Y0067352D01*
X0099460Y0067908D01*
X0099534Y0068467D01*
X0099594Y0069027D01*
X0099641Y0069588D01*
X0099674Y0070150D01*
X0099694Y0070713D01*
X0099700Y0071276D01*
X0099692Y0071846D01*
X0099671Y0072415D01*
X0099635Y0072983D01*
X0099585Y0073551D01*
X0099522Y0074117D01*
X0099445Y0074681D01*
X0099353Y0075244D01*
X0099248Y0075804D01*
X0099130Y0076361D01*
X0098998Y0076915D01*
X0098852Y0077466D01*
X0098693Y0078013D01*
X0098520Y0078556D01*
X0098334Y0079094D01*
X0098135Y0079628D01*
X0097923Y0080157D01*
X0097698Y0080680D01*
X0097460Y0081198D01*
X0097210Y0081709D01*
X0096947Y0082215D01*
X0096672Y0082714D01*
X0096385Y0083206D01*
X0096085Y0083690D01*
X0095774Y0084167D01*
X0095452Y0084637D01*
X0095117Y0085098D01*
X0094772Y0085551D01*
X0094416Y0085996D01*
X0094049Y0086432D01*
X0093671Y0086858D01*
X0093283Y0087275D01*
X0092885Y0087683D01*
X0092477Y0088080D01*
X0092059Y0088468D01*
X0091632Y0088845D01*
X0091196Y0089211D01*
X0090751Y0089567D01*
X0090297Y0089911D01*
X0089835Y0090245D01*
X0089365Y0090567D01*
X0063775Y0090764D02*
X0063308Y0090450D01*
X0062847Y0090126D01*
X0062395Y0089790D01*
X0061952Y0089443D01*
X0061516Y0089086D01*
X0061090Y0088718D01*
X0060672Y0088340D01*
X0060264Y0087952D01*
X0059866Y0087554D01*
X0059477Y0087147D01*
X0059098Y0086730D01*
X0058729Y0086304D01*
X0058371Y0085870D01*
X0058023Y0085426D01*
X0057687Y0084975D01*
X0057361Y0084516D01*
X0057047Y0084048D01*
X0056744Y0083574D01*
X0056452Y0083092D01*
X0056172Y0082603D01*
X0055905Y0082108D01*
X0055649Y0081606D01*
X0055406Y0081098D01*
X0055175Y0080584D01*
X0054956Y0080065D01*
X0054750Y0079541D01*
X0054557Y0079012D01*
X0054377Y0078479D01*
X0054210Y0077941D01*
X0054056Y0077399D01*
X0053915Y0076854D01*
X0053787Y0076305D01*
X0053672Y0075754D01*
X0053572Y0075200D01*
X0053484Y0074644D01*
X0053410Y0074085D01*
X0053350Y0073525D01*
X0053303Y0072964D01*
X0053270Y0072402D01*
X0053250Y0071839D01*
X0053244Y0071276D01*
X0053244Y0071275D02*
X0053252Y0070705D01*
X0053273Y0070136D01*
X0053309Y0069568D01*
X0053359Y0069000D01*
X0053422Y0068434D01*
X0053499Y0067870D01*
X0053591Y0067307D01*
X0053696Y0066747D01*
X0053814Y0066190D01*
X0053946Y0065636D01*
X0054092Y0065085D01*
X0054251Y0064538D01*
X0054424Y0063995D01*
X0054610Y0063457D01*
X0054809Y0062923D01*
X0055021Y0062394D01*
X0055246Y0061871D01*
X0055484Y0061353D01*
X0055734Y0060842D01*
X0055997Y0060336D01*
X0056272Y0059837D01*
X0056559Y0059345D01*
X0056859Y0058861D01*
X0057170Y0058384D01*
X0057492Y0057914D01*
X0057827Y0057453D01*
X0058172Y0057000D01*
X0058528Y0056555D01*
X0058895Y0056119D01*
X0059273Y0055693D01*
X0059661Y0055276D01*
X0060059Y0054868D01*
X0060467Y0054471D01*
X0060885Y0054083D01*
X0061312Y0053706D01*
X0061748Y0053340D01*
X0062193Y0052984D01*
X0062647Y0052640D01*
X0063109Y0052306D01*
X0063579Y0051984D01*
X0069406Y0109484D02*
X0071374Y0111453D01*
D13*
X0062982Y0090227D02*
X0059908Y0088244D01*
X0059908Y0088245D02*
X0059876Y0088254D01*
X0059843Y0088261D01*
X0059809Y0088263D01*
X0059775Y0088262D01*
X0059741Y0088256D01*
X0059708Y0088248D01*
X0059677Y0088235D01*
X0059647Y0088220D01*
X0059619Y0088200D01*
X0059593Y0088178D01*
X0059570Y0088154D01*
X0059549Y0088127D01*
X0059532Y0088097D01*
X0059518Y0088066D01*
X0059508Y0088034D01*
X0059501Y0088001D01*
X0059498Y0087967D01*
X0059499Y0087933D01*
X0059503Y0087899D01*
X0059512Y0087866D01*
X0057386Y0084891D01*
X0057385Y0084890D01*
X0057289Y0084968D01*
X0057196Y0085050D01*
X0057105Y0085134D01*
X0057017Y0085221D01*
X0056931Y0085310D01*
X0056849Y0085403D01*
X0056769Y0085498D01*
X0056693Y0085595D01*
X0056620Y0085695D01*
X0056550Y0085797D01*
X0056483Y0085901D01*
X0056419Y0086008D01*
X0056359Y0086116D01*
X0056302Y0086226D01*
X0056249Y0086338D01*
X0056200Y0086451D01*
X0056154Y0086566D01*
X0056112Y0086683D01*
X0056073Y0086801D01*
X0056038Y0086919D01*
X0056007Y0087039D01*
X0055980Y0087160D01*
X0055957Y0087282D01*
X0055937Y0087404D01*
X0055922Y0087527D01*
X0055910Y0087650D01*
X0055902Y0087774D01*
X0055898Y0087898D01*
X0055899Y0088021D01*
X0055903Y0088145D01*
X0055910Y0088269D01*
X0055922Y0088392D01*
X0055938Y0088515D01*
X0055958Y0088637D01*
X0055981Y0088759D01*
X0056009Y0088880D01*
X0056040Y0088999D01*
X0056075Y0089118D01*
X0056113Y0089236D01*
X0056156Y0089352D01*
X0056202Y0089467D01*
X0056251Y0089581D01*
X0056305Y0089692D01*
X0056361Y0089803D01*
X0056422Y0089911D01*
X0056485Y0090017D01*
X0056552Y0090121D01*
X0056623Y0090223D01*
X0056696Y0090323D01*
X0056773Y0090420D01*
X0056852Y0090515D01*
X0056935Y0090607D01*
X0057020Y0090697D01*
X0057108Y0090784D01*
X0057199Y0090868D01*
X0057293Y0090949D01*
X0057389Y0091027D01*
X0057488Y0091102D01*
X0057589Y0091174D01*
X0057692Y0091243D01*
X0057797Y0091308D01*
X0057904Y0091370D01*
X0058013Y0091428D01*
X0058124Y0091483D01*
X0058237Y0091535D01*
X0058351Y0091583D01*
X0058467Y0091627D01*
X0058584Y0091667D01*
X0058702Y0091704D01*
X0058821Y0091737D01*
X0058942Y0091767D01*
X0059063Y0091792D01*
X0059185Y0091814D01*
X0059307Y0091831D01*
X0059430Y0091845D01*
X0059554Y0091855D01*
X0059678Y0091861D01*
X0059801Y0091863D01*
X0059925Y0091861D01*
X0060049Y0091855D01*
X0060172Y0091846D01*
X0060295Y0091832D01*
X0060418Y0091814D01*
X0060540Y0091793D01*
X0060661Y0091768D01*
X0060782Y0091739D01*
X0060901Y0091706D01*
X0061019Y0091669D01*
X0061136Y0091629D01*
X0061252Y0091585D01*
X0061366Y0091537D01*
X0061479Y0091486D01*
X0061590Y0091431D01*
X0061699Y0091372D01*
X0061807Y0091311D01*
X0061912Y0091245D01*
X0062015Y0091177D01*
X0062116Y0091105D01*
X0062215Y0091030D01*
X0062311Y0090952D01*
X0062405Y0090871D01*
X0062496Y0090787D01*
X0062584Y0090701D01*
X0062670Y0090611D01*
X0062752Y0090519D01*
X0062832Y0090424D01*
X0062909Y0090327D01*
X0062982Y0090227D01*
X0062663Y0090023D01*
X0062592Y0090117D01*
X0062518Y0090209D01*
X0062441Y0090299D01*
X0062361Y0090386D01*
X0062279Y0090470D01*
X0062193Y0090551D01*
X0062105Y0090630D01*
X0062014Y0090705D01*
X0061921Y0090778D01*
X0061826Y0090847D01*
X0061728Y0090913D01*
X0061628Y0090976D01*
X0061526Y0091035D01*
X0061422Y0091091D01*
X0061316Y0091143D01*
X0061209Y0091192D01*
X0061100Y0091237D01*
X0060989Y0091279D01*
X0060877Y0091317D01*
X0060764Y0091351D01*
X0060650Y0091381D01*
X0060535Y0091407D01*
X0060419Y0091430D01*
X0060303Y0091449D01*
X0060186Y0091463D01*
X0060068Y0091474D01*
X0059950Y0091481D01*
X0059832Y0091484D01*
X0059714Y0091483D01*
X0059596Y0091478D01*
X0059479Y0091469D01*
X0059361Y0091456D01*
X0059245Y0091439D01*
X0059128Y0091419D01*
X0059013Y0091394D01*
X0058898Y0091366D01*
X0058785Y0091334D01*
X0058672Y0091298D01*
X0058561Y0091258D01*
X0058452Y0091214D01*
X0058343Y0091167D01*
X0058237Y0091117D01*
X0058132Y0091062D01*
X0058029Y0091005D01*
X0057928Y0090944D01*
X0057829Y0090879D01*
X0057732Y0090812D01*
X0057638Y0090741D01*
X0057546Y0090667D01*
X0057457Y0090590D01*
X0057370Y0090510D01*
X0057286Y0090427D01*
X0057205Y0090341D01*
X0057126Y0090253D01*
X0057051Y0090162D01*
X0056979Y0090069D01*
X0056910Y0089973D01*
X0056844Y0089875D01*
X0056782Y0089775D01*
X0056722Y0089673D01*
X0056667Y0089569D01*
X0056615Y0089463D01*
X0056566Y0089355D01*
X0056521Y0089246D01*
X0056480Y0089135D01*
X0056442Y0089024D01*
X0056408Y0088910D01*
X0056378Y0088796D01*
X0056352Y0088681D01*
X0056330Y0088565D01*
X0056311Y0088449D01*
X0056297Y0088332D01*
X0056286Y0088214D01*
X0056280Y0088096D01*
X0056277Y0087978D01*
X0056278Y0087860D01*
X0056284Y0087742D01*
X0056293Y0087625D01*
X0056306Y0087507D01*
X0056323Y0087391D01*
X0056344Y0087274D01*
X0056368Y0087159D01*
X0056397Y0087045D01*
X0056429Y0086931D01*
X0056466Y0086819D01*
X0056506Y0086708D01*
X0056549Y0086598D01*
X0056597Y0086490D01*
X0056647Y0086383D01*
X0056702Y0086279D01*
X0056760Y0086176D01*
X0056821Y0086075D01*
X0056886Y0085976D01*
X0056954Y0085880D01*
X0057025Y0085786D01*
X0057099Y0085694D01*
X0057176Y0085605D01*
X0057256Y0085518D01*
X0057339Y0085434D01*
X0057425Y0085353D01*
X0057514Y0085275D01*
X0057605Y0085200D01*
X0057824Y0085509D01*
X0057739Y0085581D01*
X0057656Y0085656D01*
X0057576Y0085733D01*
X0057499Y0085813D01*
X0057424Y0085896D01*
X0057353Y0085982D01*
X0057284Y0086070D01*
X0057219Y0086160D01*
X0057157Y0086253D01*
X0057098Y0086348D01*
X0057043Y0086445D01*
X0056991Y0086543D01*
X0056943Y0086644D01*
X0056898Y0086746D01*
X0056857Y0086850D01*
X0056820Y0086955D01*
X0056786Y0087061D01*
X0056756Y0087168D01*
X0056730Y0087277D01*
X0056708Y0087386D01*
X0056690Y0087496D01*
X0056676Y0087607D01*
X0056665Y0087717D01*
X0056659Y0087829D01*
X0056656Y0087940D01*
X0056657Y0088052D01*
X0056663Y0088163D01*
X0056672Y0088274D01*
X0056685Y0088385D01*
X0056702Y0088495D01*
X0056723Y0088604D01*
X0056748Y0088713D01*
X0056777Y0088821D01*
X0056809Y0088927D01*
X0056846Y0089033D01*
X0056886Y0089137D01*
X0056929Y0089240D01*
X0056976Y0089341D01*
X0057027Y0089440D01*
X0057081Y0089537D01*
X0057139Y0089633D01*
X0057200Y0089726D01*
X0057264Y0089817D01*
X0057332Y0089906D01*
X0057402Y0089992D01*
X0057476Y0090076D01*
X0057552Y0090157D01*
X0057632Y0090235D01*
X0057714Y0090311D01*
X0057798Y0090383D01*
X0057885Y0090453D01*
X0057975Y0090519D01*
X0058067Y0090582D01*
X0058161Y0090642D01*
X0058257Y0090699D01*
X0058355Y0090752D01*
X0058455Y0090801D01*
X0058556Y0090847D01*
X0058660Y0090890D01*
X0058764Y0090928D01*
X0058870Y0090963D01*
X0058977Y0090994D01*
X0059085Y0091022D01*
X0059194Y0091045D01*
X0059304Y0091065D01*
X0059414Y0091081D01*
X0059525Y0091093D01*
X0059636Y0091101D01*
X0059747Y0091104D01*
X0059859Y0091105D01*
X0059970Y0091101D01*
X0060082Y0091093D01*
X0060192Y0091081D01*
X0060303Y0091065D01*
X0060412Y0091046D01*
X0060521Y0091022D01*
X0060630Y0090995D01*
X0060737Y0090964D01*
X0060842Y0090929D01*
X0060947Y0090890D01*
X0061050Y0090848D01*
X0061152Y0090802D01*
X0061252Y0090752D01*
X0061350Y0090699D01*
X0061446Y0090643D01*
X0061540Y0090583D01*
X0061632Y0090520D01*
X0061721Y0090454D01*
X0061809Y0090384D01*
X0061893Y0090312D01*
X0061975Y0090236D01*
X0062055Y0090158D01*
X0062131Y0090077D01*
X0062205Y0089993D01*
X0062275Y0089907D01*
X0062343Y0089818D01*
X0062023Y0089614D01*
X0061959Y0089696D01*
X0061892Y0089775D01*
X0061822Y0089853D01*
X0061750Y0089927D01*
X0061674Y0089999D01*
X0061596Y0090068D01*
X0061516Y0090134D01*
X0061433Y0090196D01*
X0061347Y0090256D01*
X0061260Y0090312D01*
X0061171Y0090365D01*
X0061079Y0090415D01*
X0060986Y0090461D01*
X0060891Y0090504D01*
X0060794Y0090543D01*
X0060697Y0090578D01*
X0060597Y0090610D01*
X0060497Y0090638D01*
X0060396Y0090662D01*
X0060294Y0090682D01*
X0060191Y0090699D01*
X0060088Y0090711D01*
X0059984Y0090720D01*
X0059880Y0090725D01*
X0059776Y0090726D01*
X0059672Y0090723D01*
X0059568Y0090716D01*
X0059465Y0090705D01*
X0059362Y0090690D01*
X0059260Y0090672D01*
X0059158Y0090650D01*
X0059057Y0090623D01*
X0058958Y0090593D01*
X0058859Y0090560D01*
X0058762Y0090522D01*
X0058666Y0090481D01*
X0058572Y0090437D01*
X0058480Y0090389D01*
X0058390Y0090337D01*
X0058301Y0090283D01*
X0058215Y0090225D01*
X0058131Y0090163D01*
X0058049Y0090099D01*
X0057970Y0090031D01*
X0057893Y0089961D01*
X0057819Y0089888D01*
X0057748Y0089812D01*
X0057680Y0089733D01*
X0057615Y0089652D01*
X0057552Y0089569D01*
X0057493Y0089483D01*
X0057438Y0089395D01*
X0057385Y0089305D01*
X0057336Y0089213D01*
X0057291Y0089120D01*
X0057249Y0089025D01*
X0057211Y0088928D01*
X0057176Y0088830D01*
X0057145Y0088730D01*
X0057118Y0088630D01*
X0057095Y0088528D01*
X0057075Y0088426D01*
X0057059Y0088323D01*
X0057048Y0088220D01*
X0057040Y0088116D01*
X0057036Y0088012D01*
X0057035Y0087908D01*
X0057039Y0087804D01*
X0057047Y0087700D01*
X0057058Y0087597D01*
X0057074Y0087494D01*
X0057093Y0087392D01*
X0057116Y0087290D01*
X0057143Y0087190D01*
X0057174Y0087091D01*
X0057208Y0086992D01*
X0057247Y0086896D01*
X0057288Y0086800D01*
X0057333Y0086706D01*
X0057382Y0086615D01*
X0057434Y0086524D01*
X0057490Y0086436D01*
X0057549Y0086351D01*
X0057611Y0086267D01*
X0057676Y0086186D01*
X0057744Y0086107D01*
X0057815Y0086031D01*
X0057888Y0085958D01*
X0057965Y0085887D01*
X0058044Y0085819D01*
X0058264Y0086129D01*
X0058191Y0086193D01*
X0058121Y0086260D01*
X0058054Y0086329D01*
X0057989Y0086402D01*
X0057928Y0086476D01*
X0057870Y0086553D01*
X0057814Y0086633D01*
X0057762Y0086714D01*
X0057714Y0086798D01*
X0057669Y0086884D01*
X0057627Y0086971D01*
X0057589Y0087060D01*
X0057554Y0087150D01*
X0057523Y0087242D01*
X0057496Y0087335D01*
X0057473Y0087429D01*
X0057454Y0087523D01*
X0057438Y0087619D01*
X0057426Y0087715D01*
X0057418Y0087811D01*
X0057415Y0087908D01*
X0057414Y0088005D01*
X0057418Y0088101D01*
X0057426Y0088198D01*
X0057438Y0088294D01*
X0057453Y0088389D01*
X0057473Y0088484D01*
X0057496Y0088578D01*
X0057523Y0088671D01*
X0057554Y0088762D01*
X0057588Y0088853D01*
X0057626Y0088942D01*
X0057668Y0089029D01*
X0057713Y0089115D01*
X0057762Y0089198D01*
X0057813Y0089280D01*
X0057869Y0089359D01*
X0057927Y0089436D01*
X0057988Y0089511D01*
X0058053Y0089583D01*
X0058120Y0089653D01*
X0058190Y0089720D01*
X0058263Y0089784D01*
X0058338Y0089844D01*
X0058415Y0089902D01*
X0058495Y0089957D01*
X0058577Y0090008D01*
X0058661Y0090056D01*
X0058747Y0090101D01*
X0058835Y0090142D01*
X0058924Y0090179D01*
X0059015Y0090213D01*
X0059106Y0090243D01*
X0059200Y0090269D01*
X0059294Y0090292D01*
X0059388Y0090311D01*
X0059484Y0090325D01*
X0059580Y0090336D01*
X0059677Y0090344D01*
X0059773Y0090347D01*
X0059870Y0090346D01*
X0059967Y0090341D01*
X0060063Y0090333D01*
X0060159Y0090321D01*
X0060254Y0090304D01*
X0060349Y0090284D01*
X0060443Y0090260D01*
X0060535Y0090232D01*
X0060627Y0090201D01*
X0060717Y0090166D01*
X0060805Y0090127D01*
X0060892Y0090085D01*
X0060978Y0090039D01*
X0061061Y0089990D01*
X0061142Y0089937D01*
X0061221Y0089882D01*
X0061298Y0089823D01*
X0061372Y0089761D01*
X0061444Y0089696D01*
X0061513Y0089628D01*
X0061579Y0089557D01*
X0061642Y0089484D01*
X0061703Y0089409D01*
X0061382Y0089203D01*
X0061325Y0089272D01*
X0061265Y0089338D01*
X0061203Y0089402D01*
X0061137Y0089463D01*
X0061069Y0089520D01*
X0060999Y0089575D01*
X0060926Y0089626D01*
X0060851Y0089674D01*
X0060773Y0089719D01*
X0060694Y0089760D01*
X0060613Y0089798D01*
X0060531Y0089832D01*
X0060447Y0089862D01*
X0060362Y0089889D01*
X0060276Y0089912D01*
X0060188Y0089931D01*
X0060100Y0089946D01*
X0060012Y0089957D01*
X0059923Y0089964D01*
X0059834Y0089968D01*
X0059745Y0089967D01*
X0059656Y0089963D01*
X0059567Y0089954D01*
X0059478Y0089941D01*
X0059391Y0089925D01*
X0059304Y0089905D01*
X0059218Y0089881D01*
X0059133Y0089853D01*
X0059050Y0089821D01*
X0058968Y0089786D01*
X0058887Y0089747D01*
X0058809Y0089705D01*
X0058732Y0089659D01*
X0058658Y0089610D01*
X0058586Y0089557D01*
X0058516Y0089501D01*
X0058449Y0089443D01*
X0058384Y0089381D01*
X0058322Y0089317D01*
X0058264Y0089250D01*
X0058208Y0089180D01*
X0058155Y0089108D01*
X0058106Y0089034D01*
X0058060Y0088958D01*
X0058017Y0088879D01*
X0057978Y0088799D01*
X0057942Y0088717D01*
X0057910Y0088634D01*
X0057882Y0088549D01*
X0057858Y0088463D01*
X0057837Y0088377D01*
X0057821Y0088289D01*
X0057808Y0088201D01*
X0057799Y0088112D01*
X0057794Y0088023D01*
X0057793Y0087933D01*
X0057796Y0087844D01*
X0057803Y0087755D01*
X0057814Y0087667D01*
X0057829Y0087579D01*
X0057848Y0087492D01*
X0057870Y0087405D01*
X0057897Y0087320D01*
X0057927Y0087236D01*
X0057960Y0087154D01*
X0057998Y0087073D01*
X0058039Y0086993D01*
X0058083Y0086916D01*
X0058131Y0086841D01*
X0058182Y0086768D01*
X0058237Y0086697D01*
X0058294Y0086629D01*
X0058355Y0086563D01*
X0058418Y0086500D01*
X0058484Y0086440D01*
X0058705Y0086751D01*
X0058647Y0086806D01*
X0058592Y0086864D01*
X0058540Y0086925D01*
X0058491Y0086988D01*
X0058445Y0087053D01*
X0058402Y0087121D01*
X0058363Y0087191D01*
X0058327Y0087262D01*
X0058295Y0087335D01*
X0058266Y0087410D01*
X0058241Y0087486D01*
X0058220Y0087563D01*
X0058203Y0087641D01*
X0058189Y0087720D01*
X0058180Y0087799D01*
X0058174Y0087879D01*
X0058172Y0087959D01*
X0058174Y0088039D01*
X0058180Y0088118D01*
X0058190Y0088198D01*
X0058204Y0088276D01*
X0058221Y0088354D01*
X0058242Y0088431D01*
X0058268Y0088507D01*
X0058296Y0088582D01*
X0058329Y0088655D01*
X0058365Y0088726D01*
X0058404Y0088796D01*
X0058447Y0088863D01*
X0058493Y0088929D01*
X0058542Y0088992D01*
X0058594Y0089052D01*
X0058649Y0089110D01*
X0058707Y0089165D01*
X0058767Y0089218D01*
X0058830Y0089267D01*
X0058896Y0089313D01*
X0058963Y0089356D01*
X0059033Y0089395D01*
X0059104Y0089431D01*
X0059177Y0089464D01*
X0059252Y0089493D01*
X0059327Y0089518D01*
X0059404Y0089539D01*
X0059482Y0089557D01*
X0059561Y0089571D01*
X0059640Y0089581D01*
X0059720Y0089587D01*
X0059800Y0089589D01*
X0059880Y0089587D01*
X0059960Y0089582D01*
X0060039Y0089572D01*
X0060118Y0089559D01*
X0060196Y0089541D01*
X0060273Y0089520D01*
X0060349Y0089495D01*
X0060424Y0089467D01*
X0060497Y0089435D01*
X0060568Y0089399D01*
X0060638Y0089360D01*
X0060706Y0089317D01*
X0060771Y0089272D01*
X0060834Y0089223D01*
X0060895Y0089171D01*
X0060953Y0089116D01*
X0061009Y0089058D01*
X0061061Y0088998D01*
X0060739Y0088791D01*
X0060691Y0088842D01*
X0060641Y0088889D01*
X0060588Y0088934D01*
X0060533Y0088976D01*
X0060476Y0089015D01*
X0060416Y0089050D01*
X0060355Y0089083D01*
X0060292Y0089111D01*
X0060227Y0089136D01*
X0060161Y0089158D01*
X0060094Y0089176D01*
X0060026Y0089190D01*
X0059958Y0089201D01*
X0059889Y0089207D01*
X0059820Y0089210D01*
X0059750Y0089209D01*
X0059681Y0089204D01*
X0059613Y0089195D01*
X0059544Y0089183D01*
X0059477Y0089167D01*
X0059411Y0089147D01*
X0059346Y0089123D01*
X0059282Y0089096D01*
X0059220Y0089065D01*
X0059159Y0089031D01*
X0059101Y0088994D01*
X0059045Y0088954D01*
X0058991Y0088910D01*
X0058939Y0088864D01*
X0058891Y0088815D01*
X0058844Y0088763D01*
X0058801Y0088709D01*
X0058761Y0088652D01*
X0058725Y0088593D01*
X0058691Y0088533D01*
X0058661Y0088470D01*
X0058634Y0088406D01*
X0058611Y0088341D01*
X0058592Y0088274D01*
X0058576Y0088207D01*
X0058564Y0088139D01*
X0058556Y0088070D01*
X0058552Y0088001D01*
X0058551Y0087931D01*
X0058555Y0087862D01*
X0058562Y0087793D01*
X0058573Y0087725D01*
X0058587Y0087657D01*
X0058606Y0087590D01*
X0058628Y0087525D01*
X0058654Y0087460D01*
X0058683Y0087398D01*
X0058715Y0087337D01*
X0058751Y0087277D01*
X0058791Y0087220D01*
X0058833Y0087165D01*
X0058878Y0087113D01*
X0058926Y0087063D01*
X0059150Y0087377D01*
X0059113Y0087422D01*
X0059079Y0087469D01*
X0059048Y0087519D01*
X0059020Y0087570D01*
X0058996Y0087623D01*
X0058976Y0087678D01*
X0058959Y0087734D01*
X0058946Y0087791D01*
X0058937Y0087848D01*
X0058931Y0087906D01*
X0058930Y0087964D01*
X0058932Y0088023D01*
X0058939Y0088081D01*
X0058949Y0088138D01*
X0058963Y0088195D01*
X0058981Y0088250D01*
X0059002Y0088304D01*
X0059027Y0088357D01*
X0059055Y0088408D01*
X0059087Y0088457D01*
X0059122Y0088504D01*
X0059160Y0088548D01*
X0059201Y0088590D01*
X0059244Y0088628D01*
X0059290Y0088664D01*
X0059339Y0088697D01*
X0059389Y0088726D01*
X0059441Y0088752D01*
X0059495Y0088775D01*
X0059550Y0088793D01*
X0059607Y0088808D01*
X0059664Y0088820D01*
X0059722Y0088827D01*
X0059780Y0088831D01*
X0059838Y0088830D01*
X0059896Y0088826D01*
X0059954Y0088818D01*
X0060011Y0088806D01*
X0060067Y0088790D01*
X0060122Y0088771D01*
X0060176Y0088748D01*
X0060228Y0088721D01*
X0060278Y0088692D01*
X0060326Y0088658D01*
X0060371Y0088622D01*
X0060414Y0088583D01*
X0060083Y0088366D01*
X0060046Y0088389D01*
X0060007Y0088409D01*
X0059967Y0088425D01*
X0059925Y0088437D01*
X0059882Y0088446D01*
X0059839Y0088451D01*
X0059796Y0088452D01*
X0059753Y0088449D01*
X0059710Y0088443D01*
X0059668Y0088433D01*
X0059626Y0088419D01*
X0059587Y0088402D01*
X0059548Y0088381D01*
X0059512Y0088357D01*
X0059478Y0088330D01*
X0059447Y0088300D01*
X0059418Y0088267D01*
X0059393Y0088232D01*
X0059370Y0088195D01*
X0059351Y0088156D01*
X0059335Y0088116D01*
X0059323Y0088074D01*
X0059315Y0088032D01*
X0059310Y0087989D01*
X0059309Y0087945D01*
X0059312Y0087902D01*
X0059319Y0087859D01*
X0059329Y0087817D01*
X0059343Y0087776D01*
X0059361Y0087736D01*
X0059382Y0087698D01*
X0057521Y0057785D02*
X0059504Y0054711D01*
X0059503Y0054711D02*
X0059494Y0054679D01*
X0059487Y0054646D01*
X0059485Y0054612D01*
X0059486Y0054578D01*
X0059492Y0054544D01*
X0059500Y0054511D01*
X0059513Y0054480D01*
X0059528Y0054450D01*
X0059548Y0054422D01*
X0059570Y0054396D01*
X0059594Y0054373D01*
X0059621Y0054352D01*
X0059651Y0054335D01*
X0059682Y0054321D01*
X0059714Y0054311D01*
X0059747Y0054304D01*
X0059781Y0054301D01*
X0059815Y0054302D01*
X0059849Y0054306D01*
X0059882Y0054315D01*
X0062857Y0052189D01*
X0062858Y0052188D01*
X0062780Y0052092D01*
X0062698Y0051999D01*
X0062614Y0051908D01*
X0062527Y0051820D01*
X0062438Y0051734D01*
X0062345Y0051652D01*
X0062250Y0051572D01*
X0062153Y0051496D01*
X0062053Y0051423D01*
X0061951Y0051353D01*
X0061847Y0051286D01*
X0061740Y0051222D01*
X0061632Y0051162D01*
X0061522Y0051105D01*
X0061410Y0051052D01*
X0061297Y0051003D01*
X0061182Y0050957D01*
X0061065Y0050915D01*
X0060947Y0050876D01*
X0060829Y0050841D01*
X0060709Y0050810D01*
X0060588Y0050783D01*
X0060466Y0050760D01*
X0060344Y0050740D01*
X0060221Y0050725D01*
X0060098Y0050713D01*
X0059974Y0050705D01*
X0059850Y0050701D01*
X0059727Y0050702D01*
X0059603Y0050706D01*
X0059479Y0050713D01*
X0059356Y0050725D01*
X0059233Y0050741D01*
X0059111Y0050761D01*
X0058989Y0050784D01*
X0058868Y0050812D01*
X0058749Y0050843D01*
X0058630Y0050878D01*
X0058512Y0050916D01*
X0058396Y0050959D01*
X0058281Y0051005D01*
X0058167Y0051054D01*
X0058056Y0051108D01*
X0057945Y0051164D01*
X0057837Y0051225D01*
X0057731Y0051288D01*
X0057627Y0051355D01*
X0057525Y0051426D01*
X0057425Y0051499D01*
X0057328Y0051576D01*
X0057233Y0051655D01*
X0057141Y0051738D01*
X0057051Y0051823D01*
X0056964Y0051911D01*
X0056880Y0052002D01*
X0056799Y0052096D01*
X0056721Y0052192D01*
X0056646Y0052291D01*
X0056574Y0052392D01*
X0056505Y0052495D01*
X0056440Y0052600D01*
X0056378Y0052707D01*
X0056320Y0052816D01*
X0056265Y0052927D01*
X0056213Y0053040D01*
X0056165Y0053154D01*
X0056121Y0053270D01*
X0056081Y0053387D01*
X0056044Y0053505D01*
X0056011Y0053624D01*
X0055981Y0053745D01*
X0055956Y0053866D01*
X0055934Y0053988D01*
X0055917Y0054110D01*
X0055903Y0054233D01*
X0055893Y0054357D01*
X0055887Y0054481D01*
X0055885Y0054604D01*
X0055887Y0054728D01*
X0055893Y0054852D01*
X0055902Y0054975D01*
X0055916Y0055098D01*
X0055934Y0055221D01*
X0055955Y0055343D01*
X0055980Y0055464D01*
X0056009Y0055585D01*
X0056042Y0055704D01*
X0056079Y0055822D01*
X0056119Y0055939D01*
X0056163Y0056055D01*
X0056211Y0056169D01*
X0056262Y0056282D01*
X0056317Y0056393D01*
X0056376Y0056502D01*
X0056437Y0056610D01*
X0056503Y0056715D01*
X0056571Y0056818D01*
X0056643Y0056919D01*
X0056718Y0057018D01*
X0056796Y0057114D01*
X0056877Y0057208D01*
X0056961Y0057299D01*
X0057047Y0057387D01*
X0057137Y0057473D01*
X0057229Y0057555D01*
X0057324Y0057635D01*
X0057421Y0057712D01*
X0057521Y0057785D01*
X0057725Y0057466D01*
X0057631Y0057395D01*
X0057539Y0057321D01*
X0057449Y0057244D01*
X0057362Y0057164D01*
X0057278Y0057082D01*
X0057197Y0056996D01*
X0057118Y0056908D01*
X0057043Y0056817D01*
X0056970Y0056724D01*
X0056901Y0056629D01*
X0056835Y0056531D01*
X0056772Y0056431D01*
X0056713Y0056329D01*
X0056657Y0056225D01*
X0056605Y0056119D01*
X0056556Y0056012D01*
X0056511Y0055903D01*
X0056469Y0055792D01*
X0056431Y0055680D01*
X0056397Y0055567D01*
X0056367Y0055453D01*
X0056341Y0055338D01*
X0056318Y0055222D01*
X0056299Y0055106D01*
X0056285Y0054989D01*
X0056274Y0054871D01*
X0056267Y0054753D01*
X0056264Y0054635D01*
X0056265Y0054517D01*
X0056270Y0054399D01*
X0056279Y0054282D01*
X0056292Y0054164D01*
X0056309Y0054048D01*
X0056329Y0053931D01*
X0056354Y0053816D01*
X0056382Y0053701D01*
X0056414Y0053588D01*
X0056450Y0053475D01*
X0056490Y0053364D01*
X0056534Y0053255D01*
X0056581Y0053146D01*
X0056631Y0053040D01*
X0056686Y0052935D01*
X0056743Y0052832D01*
X0056804Y0052731D01*
X0056869Y0052632D01*
X0056936Y0052535D01*
X0057007Y0052441D01*
X0057081Y0052349D01*
X0057158Y0052260D01*
X0057238Y0052173D01*
X0057321Y0052089D01*
X0057407Y0052008D01*
X0057495Y0051929D01*
X0057586Y0051854D01*
X0057679Y0051782D01*
X0057775Y0051713D01*
X0057873Y0051647D01*
X0057973Y0051585D01*
X0058075Y0051525D01*
X0058179Y0051470D01*
X0058285Y0051418D01*
X0058393Y0051369D01*
X0058502Y0051324D01*
X0058613Y0051283D01*
X0058724Y0051245D01*
X0058838Y0051211D01*
X0058952Y0051181D01*
X0059067Y0051155D01*
X0059183Y0051133D01*
X0059299Y0051114D01*
X0059416Y0051100D01*
X0059534Y0051089D01*
X0059652Y0051083D01*
X0059770Y0051080D01*
X0059888Y0051081D01*
X0060006Y0051087D01*
X0060123Y0051096D01*
X0060241Y0051109D01*
X0060357Y0051126D01*
X0060474Y0051147D01*
X0060589Y0051171D01*
X0060703Y0051200D01*
X0060817Y0051232D01*
X0060929Y0051269D01*
X0061040Y0051309D01*
X0061150Y0051352D01*
X0061258Y0051400D01*
X0061365Y0051450D01*
X0061469Y0051505D01*
X0061572Y0051563D01*
X0061673Y0051624D01*
X0061772Y0051689D01*
X0061868Y0051757D01*
X0061962Y0051828D01*
X0062054Y0051902D01*
X0062143Y0051979D01*
X0062230Y0052059D01*
X0062314Y0052142D01*
X0062395Y0052228D01*
X0062473Y0052317D01*
X0062548Y0052408D01*
X0062239Y0052627D01*
X0062167Y0052542D01*
X0062092Y0052459D01*
X0062015Y0052379D01*
X0061935Y0052302D01*
X0061852Y0052227D01*
X0061766Y0052156D01*
X0061678Y0052087D01*
X0061588Y0052022D01*
X0061495Y0051960D01*
X0061400Y0051901D01*
X0061303Y0051846D01*
X0061205Y0051794D01*
X0061104Y0051746D01*
X0061002Y0051701D01*
X0060898Y0051660D01*
X0060793Y0051623D01*
X0060687Y0051589D01*
X0060580Y0051559D01*
X0060471Y0051533D01*
X0060362Y0051511D01*
X0060252Y0051493D01*
X0060141Y0051479D01*
X0060031Y0051468D01*
X0059919Y0051462D01*
X0059808Y0051459D01*
X0059696Y0051460D01*
X0059585Y0051466D01*
X0059474Y0051475D01*
X0059363Y0051488D01*
X0059253Y0051505D01*
X0059144Y0051526D01*
X0059035Y0051551D01*
X0058927Y0051580D01*
X0058821Y0051612D01*
X0058715Y0051649D01*
X0058611Y0051689D01*
X0058508Y0051732D01*
X0058407Y0051779D01*
X0058308Y0051830D01*
X0058211Y0051884D01*
X0058115Y0051942D01*
X0058022Y0052003D01*
X0057931Y0052067D01*
X0057842Y0052135D01*
X0057756Y0052205D01*
X0057672Y0052279D01*
X0057591Y0052355D01*
X0057513Y0052435D01*
X0057437Y0052517D01*
X0057365Y0052601D01*
X0057295Y0052688D01*
X0057229Y0052778D01*
X0057166Y0052870D01*
X0057106Y0052964D01*
X0057049Y0053060D01*
X0056996Y0053158D01*
X0056947Y0053258D01*
X0056901Y0053359D01*
X0056858Y0053463D01*
X0056820Y0053567D01*
X0056785Y0053673D01*
X0056754Y0053780D01*
X0056726Y0053888D01*
X0056703Y0053997D01*
X0056683Y0054107D01*
X0056667Y0054217D01*
X0056655Y0054328D01*
X0056647Y0054439D01*
X0056644Y0054550D01*
X0056643Y0054662D01*
X0056647Y0054773D01*
X0056655Y0054885D01*
X0056667Y0054995D01*
X0056683Y0055106D01*
X0056702Y0055215D01*
X0056726Y0055324D01*
X0056753Y0055433D01*
X0056784Y0055540D01*
X0056819Y0055645D01*
X0056858Y0055750D01*
X0056900Y0055853D01*
X0056946Y0055955D01*
X0056996Y0056055D01*
X0057049Y0056153D01*
X0057105Y0056249D01*
X0057165Y0056343D01*
X0057228Y0056435D01*
X0057294Y0056524D01*
X0057364Y0056612D01*
X0057436Y0056696D01*
X0057512Y0056778D01*
X0057590Y0056858D01*
X0057671Y0056934D01*
X0057755Y0057008D01*
X0057841Y0057078D01*
X0057930Y0057146D01*
X0058134Y0056826D01*
X0058052Y0056762D01*
X0057973Y0056695D01*
X0057895Y0056625D01*
X0057821Y0056553D01*
X0057749Y0056477D01*
X0057680Y0056399D01*
X0057614Y0056319D01*
X0057552Y0056236D01*
X0057492Y0056150D01*
X0057436Y0056063D01*
X0057383Y0055974D01*
X0057333Y0055882D01*
X0057287Y0055789D01*
X0057244Y0055694D01*
X0057205Y0055597D01*
X0057170Y0055500D01*
X0057138Y0055400D01*
X0057110Y0055300D01*
X0057086Y0055199D01*
X0057066Y0055097D01*
X0057049Y0054994D01*
X0057037Y0054891D01*
X0057028Y0054787D01*
X0057023Y0054683D01*
X0057022Y0054579D01*
X0057025Y0054475D01*
X0057032Y0054371D01*
X0057043Y0054268D01*
X0057058Y0054165D01*
X0057076Y0054063D01*
X0057098Y0053961D01*
X0057125Y0053860D01*
X0057155Y0053761D01*
X0057188Y0053662D01*
X0057226Y0053565D01*
X0057267Y0053469D01*
X0057311Y0053375D01*
X0057359Y0053283D01*
X0057411Y0053193D01*
X0057465Y0053104D01*
X0057523Y0053018D01*
X0057585Y0052934D01*
X0057649Y0052852D01*
X0057717Y0052773D01*
X0057787Y0052696D01*
X0057860Y0052622D01*
X0057936Y0052551D01*
X0058015Y0052483D01*
X0058096Y0052418D01*
X0058179Y0052355D01*
X0058265Y0052296D01*
X0058353Y0052241D01*
X0058443Y0052188D01*
X0058535Y0052139D01*
X0058628Y0052094D01*
X0058723Y0052052D01*
X0058820Y0052014D01*
X0058918Y0051979D01*
X0059018Y0051948D01*
X0059118Y0051921D01*
X0059220Y0051898D01*
X0059322Y0051878D01*
X0059425Y0051862D01*
X0059528Y0051851D01*
X0059632Y0051843D01*
X0059736Y0051839D01*
X0059840Y0051838D01*
X0059944Y0051842D01*
X0060048Y0051850D01*
X0060151Y0051861D01*
X0060254Y0051877D01*
X0060356Y0051896D01*
X0060458Y0051919D01*
X0060558Y0051946D01*
X0060657Y0051977D01*
X0060756Y0052011D01*
X0060852Y0052050D01*
X0060948Y0052091D01*
X0061042Y0052136D01*
X0061133Y0052185D01*
X0061224Y0052237D01*
X0061312Y0052293D01*
X0061397Y0052352D01*
X0061481Y0052414D01*
X0061562Y0052479D01*
X0061641Y0052547D01*
X0061717Y0052618D01*
X0061790Y0052691D01*
X0061861Y0052768D01*
X0061929Y0052847D01*
X0061619Y0053067D01*
X0061555Y0052994D01*
X0061488Y0052924D01*
X0061419Y0052857D01*
X0061346Y0052792D01*
X0061272Y0052731D01*
X0061195Y0052673D01*
X0061115Y0052617D01*
X0061034Y0052565D01*
X0060950Y0052517D01*
X0060864Y0052472D01*
X0060777Y0052430D01*
X0060688Y0052392D01*
X0060598Y0052357D01*
X0060506Y0052326D01*
X0060413Y0052299D01*
X0060319Y0052276D01*
X0060225Y0052257D01*
X0060129Y0052241D01*
X0060033Y0052229D01*
X0059937Y0052221D01*
X0059840Y0052218D01*
X0059743Y0052217D01*
X0059647Y0052221D01*
X0059550Y0052229D01*
X0059454Y0052241D01*
X0059359Y0052256D01*
X0059264Y0052276D01*
X0059170Y0052299D01*
X0059077Y0052326D01*
X0058986Y0052357D01*
X0058895Y0052391D01*
X0058806Y0052429D01*
X0058719Y0052471D01*
X0058633Y0052516D01*
X0058550Y0052565D01*
X0058468Y0052616D01*
X0058389Y0052672D01*
X0058312Y0052730D01*
X0058237Y0052791D01*
X0058165Y0052856D01*
X0058095Y0052923D01*
X0058028Y0052993D01*
X0057964Y0053066D01*
X0057904Y0053141D01*
X0057846Y0053218D01*
X0057791Y0053298D01*
X0057740Y0053380D01*
X0057692Y0053464D01*
X0057647Y0053550D01*
X0057606Y0053638D01*
X0057569Y0053727D01*
X0057535Y0053818D01*
X0057505Y0053909D01*
X0057479Y0054003D01*
X0057456Y0054097D01*
X0057437Y0054191D01*
X0057423Y0054287D01*
X0057412Y0054383D01*
X0057404Y0054480D01*
X0057401Y0054576D01*
X0057402Y0054673D01*
X0057407Y0054770D01*
X0057415Y0054866D01*
X0057427Y0054962D01*
X0057444Y0055057D01*
X0057464Y0055152D01*
X0057488Y0055246D01*
X0057516Y0055338D01*
X0057547Y0055430D01*
X0057582Y0055520D01*
X0057621Y0055608D01*
X0057663Y0055695D01*
X0057709Y0055781D01*
X0057758Y0055864D01*
X0057811Y0055945D01*
X0057866Y0056024D01*
X0057925Y0056101D01*
X0057987Y0056175D01*
X0058052Y0056247D01*
X0058120Y0056316D01*
X0058191Y0056382D01*
X0058264Y0056445D01*
X0058339Y0056506D01*
X0058545Y0056185D01*
X0058476Y0056128D01*
X0058410Y0056068D01*
X0058346Y0056006D01*
X0058285Y0055940D01*
X0058228Y0055872D01*
X0058173Y0055802D01*
X0058122Y0055729D01*
X0058074Y0055654D01*
X0058029Y0055576D01*
X0057988Y0055497D01*
X0057950Y0055416D01*
X0057916Y0055334D01*
X0057886Y0055250D01*
X0057859Y0055165D01*
X0057836Y0055079D01*
X0057817Y0054991D01*
X0057802Y0054903D01*
X0057791Y0054815D01*
X0057784Y0054726D01*
X0057780Y0054637D01*
X0057781Y0054548D01*
X0057785Y0054459D01*
X0057794Y0054370D01*
X0057807Y0054281D01*
X0057823Y0054194D01*
X0057843Y0054107D01*
X0057867Y0054021D01*
X0057895Y0053936D01*
X0057927Y0053853D01*
X0057962Y0053771D01*
X0058001Y0053690D01*
X0058043Y0053612D01*
X0058089Y0053535D01*
X0058138Y0053461D01*
X0058191Y0053389D01*
X0058247Y0053319D01*
X0058305Y0053252D01*
X0058367Y0053187D01*
X0058431Y0053125D01*
X0058498Y0053067D01*
X0058568Y0053011D01*
X0058640Y0052958D01*
X0058714Y0052909D01*
X0058790Y0052863D01*
X0058869Y0052820D01*
X0058949Y0052781D01*
X0059031Y0052745D01*
X0059114Y0052713D01*
X0059199Y0052685D01*
X0059285Y0052661D01*
X0059371Y0052640D01*
X0059459Y0052624D01*
X0059547Y0052611D01*
X0059636Y0052602D01*
X0059725Y0052597D01*
X0059815Y0052596D01*
X0059904Y0052599D01*
X0059993Y0052606D01*
X0060081Y0052617D01*
X0060169Y0052632D01*
X0060256Y0052651D01*
X0060343Y0052673D01*
X0060428Y0052700D01*
X0060512Y0052730D01*
X0060594Y0052763D01*
X0060675Y0052801D01*
X0060755Y0052842D01*
X0060832Y0052886D01*
X0060907Y0052934D01*
X0060980Y0052985D01*
X0061051Y0053040D01*
X0061119Y0053097D01*
X0061185Y0053158D01*
X0061248Y0053221D01*
X0061308Y0053287D01*
X0060997Y0053508D01*
X0060942Y0053450D01*
X0060884Y0053395D01*
X0060823Y0053343D01*
X0060760Y0053294D01*
X0060695Y0053248D01*
X0060627Y0053205D01*
X0060557Y0053166D01*
X0060486Y0053130D01*
X0060413Y0053098D01*
X0060338Y0053069D01*
X0060262Y0053044D01*
X0060185Y0053023D01*
X0060107Y0053006D01*
X0060028Y0052992D01*
X0059949Y0052983D01*
X0059869Y0052977D01*
X0059789Y0052975D01*
X0059709Y0052977D01*
X0059630Y0052983D01*
X0059550Y0052993D01*
X0059472Y0053007D01*
X0059394Y0053024D01*
X0059317Y0053045D01*
X0059241Y0053071D01*
X0059166Y0053099D01*
X0059093Y0053132D01*
X0059022Y0053168D01*
X0058952Y0053207D01*
X0058885Y0053250D01*
X0058819Y0053296D01*
X0058756Y0053345D01*
X0058696Y0053397D01*
X0058638Y0053452D01*
X0058583Y0053510D01*
X0058530Y0053570D01*
X0058481Y0053633D01*
X0058435Y0053699D01*
X0058392Y0053766D01*
X0058353Y0053836D01*
X0058317Y0053907D01*
X0058284Y0053980D01*
X0058255Y0054055D01*
X0058230Y0054130D01*
X0058209Y0054207D01*
X0058191Y0054285D01*
X0058177Y0054364D01*
X0058167Y0054443D01*
X0058161Y0054523D01*
X0058159Y0054603D01*
X0058161Y0054683D01*
X0058166Y0054763D01*
X0058176Y0054842D01*
X0058189Y0054921D01*
X0058207Y0054999D01*
X0058228Y0055076D01*
X0058253Y0055152D01*
X0058281Y0055227D01*
X0058313Y0055300D01*
X0058349Y0055371D01*
X0058388Y0055441D01*
X0058431Y0055509D01*
X0058476Y0055574D01*
X0058525Y0055637D01*
X0058577Y0055698D01*
X0058632Y0055756D01*
X0058690Y0055812D01*
X0058750Y0055864D01*
X0058957Y0055542D01*
X0058906Y0055494D01*
X0058859Y0055444D01*
X0058814Y0055391D01*
X0058772Y0055336D01*
X0058733Y0055279D01*
X0058698Y0055219D01*
X0058665Y0055158D01*
X0058637Y0055095D01*
X0058612Y0055030D01*
X0058590Y0054964D01*
X0058572Y0054897D01*
X0058558Y0054829D01*
X0058547Y0054761D01*
X0058541Y0054692D01*
X0058538Y0054623D01*
X0058539Y0054553D01*
X0058544Y0054484D01*
X0058553Y0054416D01*
X0058565Y0054347D01*
X0058581Y0054280D01*
X0058601Y0054214D01*
X0058625Y0054149D01*
X0058652Y0054085D01*
X0058683Y0054023D01*
X0058717Y0053962D01*
X0058754Y0053904D01*
X0058794Y0053848D01*
X0058838Y0053794D01*
X0058884Y0053742D01*
X0058933Y0053694D01*
X0058985Y0053647D01*
X0059039Y0053604D01*
X0059096Y0053564D01*
X0059155Y0053528D01*
X0059215Y0053494D01*
X0059278Y0053464D01*
X0059342Y0053437D01*
X0059407Y0053414D01*
X0059474Y0053395D01*
X0059541Y0053379D01*
X0059609Y0053367D01*
X0059678Y0053359D01*
X0059747Y0053355D01*
X0059817Y0053354D01*
X0059886Y0053358D01*
X0059955Y0053365D01*
X0060023Y0053376D01*
X0060091Y0053390D01*
X0060158Y0053409D01*
X0060223Y0053431D01*
X0060288Y0053457D01*
X0060350Y0053486D01*
X0060411Y0053518D01*
X0060471Y0053554D01*
X0060528Y0053594D01*
X0060583Y0053636D01*
X0060635Y0053681D01*
X0060685Y0053729D01*
X0060371Y0053953D01*
X0060326Y0053916D01*
X0060279Y0053882D01*
X0060229Y0053851D01*
X0060178Y0053823D01*
X0060125Y0053799D01*
X0060070Y0053779D01*
X0060014Y0053762D01*
X0059957Y0053749D01*
X0059900Y0053740D01*
X0059842Y0053734D01*
X0059784Y0053733D01*
X0059725Y0053735D01*
X0059667Y0053742D01*
X0059610Y0053752D01*
X0059553Y0053766D01*
X0059498Y0053784D01*
X0059444Y0053805D01*
X0059391Y0053830D01*
X0059340Y0053858D01*
X0059291Y0053890D01*
X0059244Y0053925D01*
X0059200Y0053963D01*
X0059158Y0054004D01*
X0059120Y0054047D01*
X0059084Y0054093D01*
X0059051Y0054142D01*
X0059022Y0054192D01*
X0058996Y0054244D01*
X0058973Y0054298D01*
X0058955Y0054353D01*
X0058940Y0054410D01*
X0058928Y0054467D01*
X0058921Y0054525D01*
X0058917Y0054583D01*
X0058918Y0054641D01*
X0058922Y0054699D01*
X0058930Y0054757D01*
X0058942Y0054814D01*
X0058958Y0054870D01*
X0058977Y0054925D01*
X0059000Y0054979D01*
X0059027Y0055031D01*
X0059056Y0055081D01*
X0059090Y0055129D01*
X0059126Y0055174D01*
X0059165Y0055217D01*
X0059382Y0054886D01*
X0059359Y0054849D01*
X0059339Y0054810D01*
X0059323Y0054770D01*
X0059311Y0054728D01*
X0059302Y0054685D01*
X0059297Y0054642D01*
X0059296Y0054599D01*
X0059299Y0054556D01*
X0059305Y0054513D01*
X0059315Y0054471D01*
X0059329Y0054429D01*
X0059346Y0054390D01*
X0059367Y0054351D01*
X0059391Y0054315D01*
X0059418Y0054281D01*
X0059448Y0054250D01*
X0059481Y0054221D01*
X0059516Y0054196D01*
X0059553Y0054173D01*
X0059592Y0054154D01*
X0059632Y0054138D01*
X0059674Y0054126D01*
X0059716Y0054118D01*
X0059759Y0054113D01*
X0059803Y0054112D01*
X0059846Y0054115D01*
X0059889Y0054122D01*
X0059931Y0054132D01*
X0059972Y0054146D01*
X0060012Y0054164D01*
X0060050Y0054185D01*
X0089963Y0052324D02*
X0093037Y0054307D01*
X0093037Y0054306D02*
X0093069Y0054297D01*
X0093102Y0054290D01*
X0093136Y0054288D01*
X0093170Y0054289D01*
X0093204Y0054295D01*
X0093237Y0054303D01*
X0093268Y0054316D01*
X0093298Y0054331D01*
X0093326Y0054351D01*
X0093352Y0054373D01*
X0093375Y0054397D01*
X0093396Y0054424D01*
X0093413Y0054454D01*
X0093427Y0054485D01*
X0093437Y0054517D01*
X0093444Y0054550D01*
X0093447Y0054584D01*
X0093446Y0054618D01*
X0093442Y0054652D01*
X0093433Y0054685D01*
X0095559Y0057660D01*
X0095560Y0057661D01*
X0095656Y0057583D01*
X0095749Y0057501D01*
X0095840Y0057417D01*
X0095928Y0057330D01*
X0096014Y0057241D01*
X0096096Y0057148D01*
X0096176Y0057053D01*
X0096252Y0056956D01*
X0096325Y0056856D01*
X0096395Y0056754D01*
X0096462Y0056650D01*
X0096526Y0056543D01*
X0096586Y0056435D01*
X0096643Y0056325D01*
X0096696Y0056213D01*
X0096745Y0056100D01*
X0096791Y0055985D01*
X0096833Y0055868D01*
X0096872Y0055750D01*
X0096907Y0055632D01*
X0096938Y0055512D01*
X0096965Y0055391D01*
X0096988Y0055269D01*
X0097008Y0055147D01*
X0097023Y0055024D01*
X0097035Y0054901D01*
X0097043Y0054777D01*
X0097047Y0054653D01*
X0097046Y0054530D01*
X0097042Y0054406D01*
X0097035Y0054282D01*
X0097023Y0054159D01*
X0097007Y0054036D01*
X0096987Y0053914D01*
X0096964Y0053792D01*
X0096936Y0053671D01*
X0096905Y0053552D01*
X0096870Y0053433D01*
X0096832Y0053315D01*
X0096789Y0053199D01*
X0096743Y0053084D01*
X0096694Y0052970D01*
X0096640Y0052859D01*
X0096584Y0052748D01*
X0096523Y0052640D01*
X0096460Y0052534D01*
X0096393Y0052430D01*
X0096322Y0052328D01*
X0096249Y0052228D01*
X0096172Y0052131D01*
X0096093Y0052036D01*
X0096010Y0051944D01*
X0095925Y0051854D01*
X0095837Y0051767D01*
X0095746Y0051683D01*
X0095652Y0051602D01*
X0095556Y0051524D01*
X0095457Y0051449D01*
X0095356Y0051377D01*
X0095253Y0051308D01*
X0095148Y0051243D01*
X0095041Y0051181D01*
X0094932Y0051123D01*
X0094821Y0051068D01*
X0094708Y0051016D01*
X0094594Y0050968D01*
X0094478Y0050924D01*
X0094361Y0050884D01*
X0094243Y0050847D01*
X0094124Y0050814D01*
X0094003Y0050784D01*
X0093882Y0050759D01*
X0093760Y0050737D01*
X0093638Y0050720D01*
X0093515Y0050706D01*
X0093391Y0050696D01*
X0093267Y0050690D01*
X0093144Y0050688D01*
X0093020Y0050690D01*
X0092896Y0050696D01*
X0092773Y0050705D01*
X0092650Y0050719D01*
X0092527Y0050737D01*
X0092405Y0050758D01*
X0092284Y0050783D01*
X0092163Y0050812D01*
X0092044Y0050845D01*
X0091926Y0050882D01*
X0091809Y0050922D01*
X0091693Y0050966D01*
X0091579Y0051014D01*
X0091466Y0051065D01*
X0091355Y0051120D01*
X0091246Y0051179D01*
X0091138Y0051240D01*
X0091033Y0051306D01*
X0090930Y0051374D01*
X0090829Y0051446D01*
X0090730Y0051521D01*
X0090634Y0051599D01*
X0090540Y0051680D01*
X0090449Y0051764D01*
X0090361Y0051850D01*
X0090275Y0051940D01*
X0090193Y0052032D01*
X0090113Y0052127D01*
X0090036Y0052224D01*
X0089963Y0052324D01*
X0090282Y0052528D01*
X0090353Y0052434D01*
X0090427Y0052342D01*
X0090504Y0052252D01*
X0090584Y0052165D01*
X0090666Y0052081D01*
X0090752Y0052000D01*
X0090840Y0051921D01*
X0090931Y0051846D01*
X0091024Y0051773D01*
X0091119Y0051704D01*
X0091217Y0051638D01*
X0091317Y0051575D01*
X0091419Y0051516D01*
X0091523Y0051460D01*
X0091629Y0051408D01*
X0091736Y0051359D01*
X0091845Y0051314D01*
X0091956Y0051272D01*
X0092068Y0051234D01*
X0092181Y0051200D01*
X0092295Y0051170D01*
X0092410Y0051144D01*
X0092526Y0051121D01*
X0092642Y0051102D01*
X0092759Y0051088D01*
X0092877Y0051077D01*
X0092995Y0051070D01*
X0093113Y0051067D01*
X0093231Y0051068D01*
X0093349Y0051073D01*
X0093466Y0051082D01*
X0093584Y0051095D01*
X0093700Y0051112D01*
X0093817Y0051132D01*
X0093932Y0051157D01*
X0094047Y0051185D01*
X0094160Y0051217D01*
X0094273Y0051253D01*
X0094384Y0051293D01*
X0094493Y0051337D01*
X0094602Y0051384D01*
X0094708Y0051434D01*
X0094813Y0051489D01*
X0094916Y0051546D01*
X0095017Y0051607D01*
X0095116Y0051672D01*
X0095213Y0051739D01*
X0095307Y0051810D01*
X0095399Y0051884D01*
X0095488Y0051961D01*
X0095575Y0052041D01*
X0095659Y0052124D01*
X0095740Y0052210D01*
X0095819Y0052298D01*
X0095894Y0052389D01*
X0095966Y0052482D01*
X0096035Y0052578D01*
X0096101Y0052676D01*
X0096163Y0052776D01*
X0096223Y0052878D01*
X0096278Y0052982D01*
X0096330Y0053088D01*
X0096379Y0053196D01*
X0096424Y0053305D01*
X0096465Y0053416D01*
X0096503Y0053527D01*
X0096537Y0053641D01*
X0096567Y0053755D01*
X0096593Y0053870D01*
X0096615Y0053986D01*
X0096634Y0054102D01*
X0096648Y0054219D01*
X0096659Y0054337D01*
X0096665Y0054455D01*
X0096668Y0054573D01*
X0096667Y0054691D01*
X0096661Y0054809D01*
X0096652Y0054926D01*
X0096639Y0055044D01*
X0096622Y0055160D01*
X0096601Y0055277D01*
X0096577Y0055392D01*
X0096548Y0055506D01*
X0096516Y0055620D01*
X0096479Y0055732D01*
X0096439Y0055843D01*
X0096396Y0055953D01*
X0096348Y0056061D01*
X0096298Y0056168D01*
X0096243Y0056272D01*
X0096185Y0056375D01*
X0096124Y0056476D01*
X0096059Y0056575D01*
X0095991Y0056671D01*
X0095920Y0056765D01*
X0095846Y0056857D01*
X0095769Y0056946D01*
X0095689Y0057033D01*
X0095606Y0057117D01*
X0095520Y0057198D01*
X0095431Y0057276D01*
X0095340Y0057351D01*
X0095121Y0057042D01*
X0095206Y0056970D01*
X0095289Y0056895D01*
X0095369Y0056818D01*
X0095446Y0056738D01*
X0095521Y0056655D01*
X0095592Y0056569D01*
X0095661Y0056481D01*
X0095726Y0056391D01*
X0095788Y0056298D01*
X0095847Y0056203D01*
X0095902Y0056106D01*
X0095954Y0056008D01*
X0096002Y0055907D01*
X0096047Y0055805D01*
X0096088Y0055701D01*
X0096125Y0055596D01*
X0096159Y0055490D01*
X0096189Y0055383D01*
X0096215Y0055274D01*
X0096237Y0055165D01*
X0096255Y0055055D01*
X0096269Y0054944D01*
X0096280Y0054834D01*
X0096286Y0054722D01*
X0096289Y0054611D01*
X0096288Y0054499D01*
X0096282Y0054388D01*
X0096273Y0054277D01*
X0096260Y0054166D01*
X0096243Y0054056D01*
X0096222Y0053947D01*
X0096197Y0053838D01*
X0096168Y0053730D01*
X0096136Y0053624D01*
X0096099Y0053518D01*
X0096059Y0053414D01*
X0096016Y0053311D01*
X0095969Y0053210D01*
X0095918Y0053111D01*
X0095864Y0053014D01*
X0095806Y0052918D01*
X0095745Y0052825D01*
X0095681Y0052734D01*
X0095613Y0052645D01*
X0095543Y0052559D01*
X0095469Y0052475D01*
X0095393Y0052394D01*
X0095313Y0052316D01*
X0095231Y0052240D01*
X0095147Y0052168D01*
X0095060Y0052098D01*
X0094970Y0052032D01*
X0094878Y0051969D01*
X0094784Y0051909D01*
X0094688Y0051852D01*
X0094590Y0051799D01*
X0094490Y0051750D01*
X0094389Y0051704D01*
X0094285Y0051661D01*
X0094181Y0051623D01*
X0094075Y0051588D01*
X0093968Y0051557D01*
X0093860Y0051529D01*
X0093751Y0051506D01*
X0093641Y0051486D01*
X0093531Y0051470D01*
X0093420Y0051458D01*
X0093309Y0051450D01*
X0093198Y0051447D01*
X0093086Y0051446D01*
X0092975Y0051450D01*
X0092863Y0051458D01*
X0092753Y0051470D01*
X0092642Y0051486D01*
X0092533Y0051505D01*
X0092424Y0051529D01*
X0092315Y0051556D01*
X0092208Y0051587D01*
X0092103Y0051622D01*
X0091998Y0051661D01*
X0091895Y0051703D01*
X0091793Y0051749D01*
X0091693Y0051799D01*
X0091595Y0051852D01*
X0091499Y0051908D01*
X0091405Y0051968D01*
X0091313Y0052031D01*
X0091224Y0052097D01*
X0091136Y0052167D01*
X0091052Y0052239D01*
X0090970Y0052315D01*
X0090890Y0052393D01*
X0090814Y0052474D01*
X0090740Y0052558D01*
X0090670Y0052644D01*
X0090602Y0052733D01*
X0090922Y0052937D01*
X0090986Y0052855D01*
X0091053Y0052776D01*
X0091123Y0052698D01*
X0091195Y0052624D01*
X0091271Y0052552D01*
X0091349Y0052483D01*
X0091429Y0052417D01*
X0091512Y0052355D01*
X0091598Y0052295D01*
X0091685Y0052239D01*
X0091774Y0052186D01*
X0091866Y0052136D01*
X0091959Y0052090D01*
X0092054Y0052047D01*
X0092151Y0052008D01*
X0092248Y0051973D01*
X0092348Y0051941D01*
X0092448Y0051913D01*
X0092549Y0051889D01*
X0092651Y0051869D01*
X0092754Y0051852D01*
X0092857Y0051840D01*
X0092961Y0051831D01*
X0093065Y0051826D01*
X0093169Y0051825D01*
X0093273Y0051828D01*
X0093377Y0051835D01*
X0093480Y0051846D01*
X0093583Y0051861D01*
X0093685Y0051879D01*
X0093787Y0051901D01*
X0093888Y0051928D01*
X0093987Y0051958D01*
X0094086Y0051991D01*
X0094183Y0052029D01*
X0094279Y0052070D01*
X0094373Y0052114D01*
X0094465Y0052162D01*
X0094555Y0052214D01*
X0094644Y0052268D01*
X0094730Y0052326D01*
X0094814Y0052388D01*
X0094896Y0052452D01*
X0094975Y0052520D01*
X0095052Y0052590D01*
X0095126Y0052663D01*
X0095197Y0052739D01*
X0095265Y0052818D01*
X0095330Y0052899D01*
X0095393Y0052982D01*
X0095452Y0053068D01*
X0095507Y0053156D01*
X0095560Y0053246D01*
X0095609Y0053338D01*
X0095654Y0053431D01*
X0095696Y0053526D01*
X0095734Y0053623D01*
X0095769Y0053721D01*
X0095800Y0053821D01*
X0095827Y0053921D01*
X0095850Y0054023D01*
X0095870Y0054125D01*
X0095886Y0054228D01*
X0095897Y0054331D01*
X0095905Y0054435D01*
X0095909Y0054539D01*
X0095910Y0054643D01*
X0095906Y0054747D01*
X0095898Y0054851D01*
X0095887Y0054954D01*
X0095871Y0055057D01*
X0095852Y0055159D01*
X0095829Y0055261D01*
X0095802Y0055361D01*
X0095771Y0055460D01*
X0095737Y0055559D01*
X0095698Y0055655D01*
X0095657Y0055751D01*
X0095612Y0055845D01*
X0095563Y0055936D01*
X0095511Y0056027D01*
X0095455Y0056115D01*
X0095396Y0056200D01*
X0095334Y0056284D01*
X0095269Y0056365D01*
X0095201Y0056444D01*
X0095130Y0056520D01*
X0095057Y0056593D01*
X0094980Y0056664D01*
X0094901Y0056732D01*
X0094681Y0056422D01*
X0094754Y0056358D01*
X0094824Y0056291D01*
X0094891Y0056222D01*
X0094956Y0056149D01*
X0095017Y0056075D01*
X0095075Y0055998D01*
X0095131Y0055918D01*
X0095183Y0055837D01*
X0095231Y0055753D01*
X0095276Y0055667D01*
X0095318Y0055580D01*
X0095356Y0055491D01*
X0095391Y0055401D01*
X0095422Y0055309D01*
X0095449Y0055216D01*
X0095472Y0055122D01*
X0095491Y0055028D01*
X0095507Y0054932D01*
X0095519Y0054836D01*
X0095527Y0054740D01*
X0095530Y0054643D01*
X0095531Y0054546D01*
X0095527Y0054450D01*
X0095519Y0054353D01*
X0095507Y0054257D01*
X0095492Y0054162D01*
X0095472Y0054067D01*
X0095449Y0053973D01*
X0095422Y0053880D01*
X0095391Y0053789D01*
X0095357Y0053698D01*
X0095319Y0053609D01*
X0095277Y0053522D01*
X0095232Y0053436D01*
X0095183Y0053353D01*
X0095132Y0053271D01*
X0095076Y0053192D01*
X0095018Y0053115D01*
X0094957Y0053040D01*
X0094892Y0052968D01*
X0094825Y0052898D01*
X0094755Y0052831D01*
X0094682Y0052767D01*
X0094607Y0052707D01*
X0094530Y0052649D01*
X0094450Y0052594D01*
X0094368Y0052543D01*
X0094284Y0052495D01*
X0094198Y0052450D01*
X0094110Y0052409D01*
X0094021Y0052372D01*
X0093930Y0052338D01*
X0093839Y0052308D01*
X0093745Y0052282D01*
X0093651Y0052259D01*
X0093557Y0052240D01*
X0093461Y0052226D01*
X0093365Y0052215D01*
X0093268Y0052207D01*
X0093172Y0052204D01*
X0093075Y0052205D01*
X0092978Y0052210D01*
X0092882Y0052218D01*
X0092786Y0052230D01*
X0092691Y0052247D01*
X0092596Y0052267D01*
X0092502Y0052291D01*
X0092410Y0052319D01*
X0092318Y0052350D01*
X0092228Y0052385D01*
X0092140Y0052424D01*
X0092053Y0052466D01*
X0091967Y0052512D01*
X0091884Y0052561D01*
X0091803Y0052614D01*
X0091724Y0052669D01*
X0091647Y0052728D01*
X0091573Y0052790D01*
X0091501Y0052855D01*
X0091432Y0052923D01*
X0091366Y0052994D01*
X0091303Y0053067D01*
X0091242Y0053142D01*
X0091563Y0053348D01*
X0091620Y0053279D01*
X0091680Y0053213D01*
X0091742Y0053149D01*
X0091808Y0053088D01*
X0091876Y0053031D01*
X0091946Y0052976D01*
X0092019Y0052925D01*
X0092094Y0052877D01*
X0092172Y0052832D01*
X0092251Y0052791D01*
X0092332Y0052753D01*
X0092414Y0052719D01*
X0092498Y0052689D01*
X0092583Y0052662D01*
X0092669Y0052639D01*
X0092757Y0052620D01*
X0092845Y0052605D01*
X0092933Y0052594D01*
X0093022Y0052587D01*
X0093111Y0052583D01*
X0093200Y0052584D01*
X0093289Y0052588D01*
X0093378Y0052597D01*
X0093467Y0052610D01*
X0093554Y0052626D01*
X0093641Y0052646D01*
X0093727Y0052670D01*
X0093812Y0052698D01*
X0093895Y0052730D01*
X0093977Y0052765D01*
X0094058Y0052804D01*
X0094136Y0052846D01*
X0094213Y0052892D01*
X0094287Y0052941D01*
X0094359Y0052994D01*
X0094429Y0053050D01*
X0094496Y0053108D01*
X0094561Y0053170D01*
X0094623Y0053234D01*
X0094681Y0053301D01*
X0094737Y0053371D01*
X0094790Y0053443D01*
X0094839Y0053517D01*
X0094885Y0053593D01*
X0094928Y0053672D01*
X0094967Y0053752D01*
X0095003Y0053834D01*
X0095035Y0053917D01*
X0095063Y0054002D01*
X0095087Y0054088D01*
X0095108Y0054174D01*
X0095124Y0054262D01*
X0095137Y0054350D01*
X0095146Y0054439D01*
X0095151Y0054528D01*
X0095152Y0054618D01*
X0095149Y0054707D01*
X0095142Y0054796D01*
X0095131Y0054884D01*
X0095116Y0054972D01*
X0095097Y0055059D01*
X0095075Y0055146D01*
X0095048Y0055231D01*
X0095018Y0055315D01*
X0094985Y0055397D01*
X0094947Y0055478D01*
X0094906Y0055558D01*
X0094862Y0055635D01*
X0094814Y0055710D01*
X0094763Y0055783D01*
X0094708Y0055854D01*
X0094651Y0055922D01*
X0094590Y0055988D01*
X0094527Y0056051D01*
X0094461Y0056111D01*
X0094240Y0055800D01*
X0094298Y0055745D01*
X0094353Y0055687D01*
X0094405Y0055626D01*
X0094454Y0055563D01*
X0094500Y0055498D01*
X0094543Y0055430D01*
X0094582Y0055360D01*
X0094618Y0055289D01*
X0094650Y0055216D01*
X0094679Y0055141D01*
X0094704Y0055065D01*
X0094725Y0054988D01*
X0094742Y0054910D01*
X0094756Y0054831D01*
X0094765Y0054752D01*
X0094771Y0054672D01*
X0094773Y0054592D01*
X0094771Y0054512D01*
X0094765Y0054433D01*
X0094755Y0054353D01*
X0094741Y0054275D01*
X0094724Y0054197D01*
X0094703Y0054120D01*
X0094677Y0054044D01*
X0094649Y0053969D01*
X0094616Y0053896D01*
X0094580Y0053825D01*
X0094541Y0053755D01*
X0094498Y0053688D01*
X0094452Y0053622D01*
X0094403Y0053559D01*
X0094351Y0053499D01*
X0094296Y0053441D01*
X0094238Y0053386D01*
X0094178Y0053333D01*
X0094115Y0053284D01*
X0094049Y0053238D01*
X0093982Y0053195D01*
X0093912Y0053156D01*
X0093841Y0053120D01*
X0093768Y0053087D01*
X0093693Y0053058D01*
X0093618Y0053033D01*
X0093541Y0053012D01*
X0093463Y0052994D01*
X0093384Y0052980D01*
X0093305Y0052970D01*
X0093225Y0052964D01*
X0093145Y0052962D01*
X0093065Y0052964D01*
X0092985Y0052969D01*
X0092906Y0052979D01*
X0092827Y0052992D01*
X0092749Y0053010D01*
X0092672Y0053031D01*
X0092596Y0053056D01*
X0092521Y0053084D01*
X0092448Y0053116D01*
X0092377Y0053152D01*
X0092307Y0053191D01*
X0092239Y0053234D01*
X0092174Y0053279D01*
X0092111Y0053328D01*
X0092050Y0053380D01*
X0091992Y0053435D01*
X0091936Y0053493D01*
X0091884Y0053553D01*
X0092206Y0053760D01*
X0092254Y0053709D01*
X0092304Y0053662D01*
X0092357Y0053617D01*
X0092412Y0053575D01*
X0092469Y0053536D01*
X0092529Y0053501D01*
X0092590Y0053468D01*
X0092653Y0053440D01*
X0092718Y0053415D01*
X0092784Y0053393D01*
X0092851Y0053375D01*
X0092919Y0053361D01*
X0092987Y0053350D01*
X0093056Y0053344D01*
X0093125Y0053341D01*
X0093195Y0053342D01*
X0093264Y0053347D01*
X0093332Y0053356D01*
X0093401Y0053368D01*
X0093468Y0053384D01*
X0093534Y0053404D01*
X0093599Y0053428D01*
X0093663Y0053455D01*
X0093725Y0053486D01*
X0093786Y0053520D01*
X0093844Y0053557D01*
X0093900Y0053597D01*
X0093954Y0053641D01*
X0094006Y0053687D01*
X0094054Y0053736D01*
X0094101Y0053788D01*
X0094144Y0053842D01*
X0094184Y0053899D01*
X0094220Y0053958D01*
X0094254Y0054018D01*
X0094284Y0054081D01*
X0094311Y0054145D01*
X0094334Y0054210D01*
X0094353Y0054277D01*
X0094369Y0054344D01*
X0094381Y0054412D01*
X0094389Y0054481D01*
X0094393Y0054550D01*
X0094394Y0054620D01*
X0094390Y0054689D01*
X0094383Y0054758D01*
X0094372Y0054826D01*
X0094358Y0054894D01*
X0094339Y0054961D01*
X0094317Y0055026D01*
X0094291Y0055091D01*
X0094262Y0055153D01*
X0094230Y0055214D01*
X0094194Y0055274D01*
X0094154Y0055331D01*
X0094112Y0055386D01*
X0094067Y0055438D01*
X0094019Y0055488D01*
X0093795Y0055174D01*
X0093832Y0055129D01*
X0093866Y0055082D01*
X0093897Y0055032D01*
X0093925Y0054981D01*
X0093949Y0054928D01*
X0093969Y0054873D01*
X0093986Y0054817D01*
X0093999Y0054760D01*
X0094008Y0054703D01*
X0094014Y0054645D01*
X0094015Y0054587D01*
X0094013Y0054528D01*
X0094006Y0054470D01*
X0093996Y0054413D01*
X0093982Y0054356D01*
X0093964Y0054301D01*
X0093943Y0054247D01*
X0093918Y0054194D01*
X0093890Y0054143D01*
X0093858Y0054094D01*
X0093823Y0054047D01*
X0093785Y0054003D01*
X0093744Y0053961D01*
X0093701Y0053923D01*
X0093655Y0053887D01*
X0093606Y0053854D01*
X0093556Y0053825D01*
X0093504Y0053799D01*
X0093450Y0053776D01*
X0093395Y0053758D01*
X0093338Y0053743D01*
X0093281Y0053731D01*
X0093223Y0053724D01*
X0093165Y0053720D01*
X0093107Y0053721D01*
X0093049Y0053725D01*
X0092991Y0053733D01*
X0092934Y0053745D01*
X0092878Y0053761D01*
X0092823Y0053780D01*
X0092769Y0053803D01*
X0092717Y0053830D01*
X0092667Y0053859D01*
X0092619Y0053893D01*
X0092574Y0053929D01*
X0092531Y0053968D01*
X0092862Y0054185D01*
X0092899Y0054162D01*
X0092938Y0054142D01*
X0092978Y0054126D01*
X0093020Y0054114D01*
X0093063Y0054105D01*
X0093106Y0054100D01*
X0093149Y0054099D01*
X0093192Y0054102D01*
X0093235Y0054108D01*
X0093277Y0054118D01*
X0093319Y0054132D01*
X0093358Y0054149D01*
X0093397Y0054170D01*
X0093433Y0054194D01*
X0093467Y0054221D01*
X0093498Y0054251D01*
X0093527Y0054284D01*
X0093552Y0054319D01*
X0093575Y0054356D01*
X0093594Y0054395D01*
X0093610Y0054435D01*
X0093622Y0054477D01*
X0093630Y0054519D01*
X0093635Y0054562D01*
X0093636Y0054606D01*
X0093633Y0054649D01*
X0093626Y0054692D01*
X0093616Y0054734D01*
X0093602Y0054775D01*
X0093584Y0054815D01*
X0093563Y0054853D01*
X0095424Y0084766D02*
X0093441Y0087840D01*
X0093442Y0087840D02*
X0093451Y0087872D01*
X0093458Y0087905D01*
X0093460Y0087939D01*
X0093459Y0087973D01*
X0093453Y0088007D01*
X0093445Y0088040D01*
X0093432Y0088071D01*
X0093417Y0088101D01*
X0093397Y0088129D01*
X0093375Y0088155D01*
X0093351Y0088178D01*
X0093324Y0088199D01*
X0093294Y0088216D01*
X0093263Y0088230D01*
X0093231Y0088240D01*
X0093198Y0088247D01*
X0093164Y0088250D01*
X0093130Y0088249D01*
X0093096Y0088245D01*
X0093063Y0088236D01*
X0090088Y0090362D01*
X0090087Y0090363D01*
X0090165Y0090459D01*
X0090247Y0090552D01*
X0090331Y0090643D01*
X0090418Y0090731D01*
X0090507Y0090817D01*
X0090600Y0090899D01*
X0090695Y0090979D01*
X0090792Y0091055D01*
X0090892Y0091128D01*
X0090994Y0091198D01*
X0091098Y0091265D01*
X0091205Y0091329D01*
X0091313Y0091389D01*
X0091423Y0091446D01*
X0091535Y0091499D01*
X0091648Y0091548D01*
X0091763Y0091594D01*
X0091880Y0091636D01*
X0091998Y0091675D01*
X0092116Y0091710D01*
X0092236Y0091741D01*
X0092357Y0091768D01*
X0092479Y0091791D01*
X0092601Y0091811D01*
X0092724Y0091826D01*
X0092847Y0091838D01*
X0092971Y0091846D01*
X0093095Y0091850D01*
X0093218Y0091849D01*
X0093342Y0091845D01*
X0093466Y0091838D01*
X0093589Y0091826D01*
X0093712Y0091810D01*
X0093834Y0091790D01*
X0093956Y0091767D01*
X0094077Y0091739D01*
X0094196Y0091708D01*
X0094315Y0091673D01*
X0094433Y0091635D01*
X0094549Y0091592D01*
X0094664Y0091546D01*
X0094778Y0091497D01*
X0094889Y0091443D01*
X0095000Y0091387D01*
X0095108Y0091326D01*
X0095214Y0091263D01*
X0095318Y0091196D01*
X0095420Y0091125D01*
X0095520Y0091052D01*
X0095617Y0090975D01*
X0095712Y0090896D01*
X0095804Y0090813D01*
X0095894Y0090728D01*
X0095981Y0090640D01*
X0096065Y0090549D01*
X0096146Y0090455D01*
X0096224Y0090359D01*
X0096299Y0090260D01*
X0096371Y0090159D01*
X0096440Y0090056D01*
X0096505Y0089951D01*
X0096567Y0089844D01*
X0096625Y0089735D01*
X0096680Y0089624D01*
X0096732Y0089511D01*
X0096780Y0089397D01*
X0096824Y0089281D01*
X0096864Y0089164D01*
X0096901Y0089046D01*
X0096934Y0088927D01*
X0096964Y0088806D01*
X0096989Y0088685D01*
X0097011Y0088563D01*
X0097028Y0088441D01*
X0097042Y0088318D01*
X0097052Y0088194D01*
X0097058Y0088070D01*
X0097060Y0087947D01*
X0097058Y0087823D01*
X0097052Y0087699D01*
X0097043Y0087576D01*
X0097029Y0087453D01*
X0097011Y0087330D01*
X0096990Y0087208D01*
X0096965Y0087087D01*
X0096936Y0086966D01*
X0096903Y0086847D01*
X0096866Y0086729D01*
X0096826Y0086612D01*
X0096782Y0086496D01*
X0096734Y0086382D01*
X0096683Y0086269D01*
X0096628Y0086158D01*
X0096569Y0086049D01*
X0096508Y0085941D01*
X0096442Y0085836D01*
X0096374Y0085733D01*
X0096302Y0085632D01*
X0096227Y0085533D01*
X0096149Y0085437D01*
X0096068Y0085343D01*
X0095984Y0085252D01*
X0095898Y0085164D01*
X0095808Y0085078D01*
X0095716Y0084996D01*
X0095621Y0084916D01*
X0095524Y0084839D01*
X0095424Y0084766D01*
X0095220Y0085085D01*
X0095314Y0085156D01*
X0095406Y0085230D01*
X0095496Y0085307D01*
X0095583Y0085387D01*
X0095667Y0085469D01*
X0095748Y0085555D01*
X0095827Y0085643D01*
X0095902Y0085734D01*
X0095975Y0085827D01*
X0096044Y0085922D01*
X0096110Y0086020D01*
X0096173Y0086120D01*
X0096232Y0086222D01*
X0096288Y0086326D01*
X0096340Y0086432D01*
X0096389Y0086539D01*
X0096434Y0086648D01*
X0096476Y0086759D01*
X0096514Y0086871D01*
X0096548Y0086984D01*
X0096578Y0087098D01*
X0096604Y0087213D01*
X0096627Y0087329D01*
X0096646Y0087445D01*
X0096660Y0087562D01*
X0096671Y0087680D01*
X0096678Y0087798D01*
X0096681Y0087916D01*
X0096680Y0088034D01*
X0096675Y0088152D01*
X0096666Y0088269D01*
X0096653Y0088387D01*
X0096636Y0088503D01*
X0096616Y0088620D01*
X0096591Y0088735D01*
X0096563Y0088850D01*
X0096531Y0088963D01*
X0096495Y0089076D01*
X0096455Y0089187D01*
X0096411Y0089296D01*
X0096364Y0089405D01*
X0096314Y0089511D01*
X0096259Y0089616D01*
X0096202Y0089719D01*
X0096141Y0089820D01*
X0096076Y0089919D01*
X0096009Y0090016D01*
X0095938Y0090110D01*
X0095864Y0090202D01*
X0095787Y0090291D01*
X0095707Y0090378D01*
X0095624Y0090462D01*
X0095538Y0090543D01*
X0095450Y0090622D01*
X0095359Y0090697D01*
X0095266Y0090769D01*
X0095170Y0090838D01*
X0095072Y0090904D01*
X0094972Y0090966D01*
X0094870Y0091026D01*
X0094766Y0091081D01*
X0094660Y0091133D01*
X0094552Y0091182D01*
X0094443Y0091227D01*
X0094332Y0091268D01*
X0094221Y0091306D01*
X0094107Y0091340D01*
X0093993Y0091370D01*
X0093878Y0091396D01*
X0093762Y0091418D01*
X0093646Y0091437D01*
X0093529Y0091451D01*
X0093411Y0091462D01*
X0093293Y0091468D01*
X0093175Y0091471D01*
X0093057Y0091470D01*
X0092939Y0091464D01*
X0092822Y0091455D01*
X0092704Y0091442D01*
X0092588Y0091425D01*
X0092471Y0091404D01*
X0092356Y0091380D01*
X0092242Y0091351D01*
X0092128Y0091319D01*
X0092016Y0091282D01*
X0091905Y0091242D01*
X0091795Y0091199D01*
X0091687Y0091151D01*
X0091580Y0091101D01*
X0091476Y0091046D01*
X0091373Y0090988D01*
X0091272Y0090927D01*
X0091173Y0090862D01*
X0091077Y0090794D01*
X0090983Y0090723D01*
X0090891Y0090649D01*
X0090802Y0090572D01*
X0090715Y0090492D01*
X0090631Y0090409D01*
X0090550Y0090323D01*
X0090472Y0090234D01*
X0090397Y0090143D01*
X0090706Y0089924D01*
X0090778Y0090009D01*
X0090853Y0090092D01*
X0090930Y0090172D01*
X0091010Y0090249D01*
X0091093Y0090324D01*
X0091179Y0090395D01*
X0091267Y0090464D01*
X0091357Y0090529D01*
X0091450Y0090591D01*
X0091545Y0090650D01*
X0091642Y0090705D01*
X0091740Y0090757D01*
X0091841Y0090805D01*
X0091943Y0090850D01*
X0092047Y0090891D01*
X0092152Y0090928D01*
X0092258Y0090962D01*
X0092365Y0090992D01*
X0092474Y0091018D01*
X0092583Y0091040D01*
X0092693Y0091058D01*
X0092804Y0091072D01*
X0092914Y0091083D01*
X0093026Y0091089D01*
X0093137Y0091092D01*
X0093249Y0091091D01*
X0093360Y0091085D01*
X0093471Y0091076D01*
X0093582Y0091063D01*
X0093692Y0091046D01*
X0093801Y0091025D01*
X0093910Y0091000D01*
X0094018Y0090971D01*
X0094124Y0090939D01*
X0094230Y0090902D01*
X0094334Y0090862D01*
X0094437Y0090819D01*
X0094538Y0090772D01*
X0094637Y0090721D01*
X0094734Y0090667D01*
X0094830Y0090609D01*
X0094923Y0090548D01*
X0095014Y0090484D01*
X0095103Y0090416D01*
X0095189Y0090346D01*
X0095273Y0090272D01*
X0095354Y0090196D01*
X0095432Y0090116D01*
X0095508Y0090034D01*
X0095580Y0089950D01*
X0095650Y0089863D01*
X0095716Y0089773D01*
X0095779Y0089681D01*
X0095839Y0089587D01*
X0095896Y0089491D01*
X0095949Y0089393D01*
X0095998Y0089293D01*
X0096044Y0089192D01*
X0096087Y0089088D01*
X0096125Y0088984D01*
X0096160Y0088878D01*
X0096191Y0088771D01*
X0096219Y0088663D01*
X0096242Y0088554D01*
X0096262Y0088444D01*
X0096278Y0088334D01*
X0096290Y0088223D01*
X0096298Y0088112D01*
X0096301Y0088001D01*
X0096302Y0087889D01*
X0096298Y0087778D01*
X0096290Y0087666D01*
X0096278Y0087556D01*
X0096262Y0087445D01*
X0096243Y0087336D01*
X0096219Y0087227D01*
X0096192Y0087118D01*
X0096161Y0087011D01*
X0096126Y0086906D01*
X0096087Y0086801D01*
X0096045Y0086698D01*
X0095999Y0086596D01*
X0095949Y0086496D01*
X0095896Y0086398D01*
X0095840Y0086302D01*
X0095780Y0086208D01*
X0095717Y0086116D01*
X0095651Y0086027D01*
X0095581Y0085939D01*
X0095509Y0085855D01*
X0095433Y0085773D01*
X0095355Y0085693D01*
X0095274Y0085617D01*
X0095190Y0085543D01*
X0095104Y0085473D01*
X0095015Y0085405D01*
X0094811Y0085725D01*
X0094893Y0085789D01*
X0094972Y0085856D01*
X0095050Y0085926D01*
X0095124Y0085998D01*
X0095196Y0086074D01*
X0095265Y0086152D01*
X0095331Y0086232D01*
X0095393Y0086315D01*
X0095453Y0086401D01*
X0095509Y0086488D01*
X0095562Y0086577D01*
X0095612Y0086669D01*
X0095658Y0086762D01*
X0095701Y0086857D01*
X0095740Y0086954D01*
X0095775Y0087051D01*
X0095807Y0087151D01*
X0095835Y0087251D01*
X0095859Y0087352D01*
X0095879Y0087454D01*
X0095896Y0087557D01*
X0095908Y0087660D01*
X0095917Y0087764D01*
X0095922Y0087868D01*
X0095923Y0087972D01*
X0095920Y0088076D01*
X0095913Y0088180D01*
X0095902Y0088283D01*
X0095887Y0088386D01*
X0095869Y0088488D01*
X0095847Y0088590D01*
X0095820Y0088691D01*
X0095790Y0088790D01*
X0095757Y0088889D01*
X0095719Y0088986D01*
X0095678Y0089082D01*
X0095634Y0089176D01*
X0095586Y0089268D01*
X0095534Y0089358D01*
X0095480Y0089447D01*
X0095422Y0089533D01*
X0095360Y0089617D01*
X0095296Y0089699D01*
X0095228Y0089778D01*
X0095158Y0089855D01*
X0095085Y0089929D01*
X0095009Y0090000D01*
X0094930Y0090068D01*
X0094849Y0090133D01*
X0094766Y0090196D01*
X0094680Y0090255D01*
X0094592Y0090310D01*
X0094502Y0090363D01*
X0094410Y0090412D01*
X0094317Y0090457D01*
X0094222Y0090499D01*
X0094125Y0090537D01*
X0094027Y0090572D01*
X0093927Y0090603D01*
X0093827Y0090630D01*
X0093725Y0090653D01*
X0093623Y0090673D01*
X0093520Y0090689D01*
X0093417Y0090700D01*
X0093313Y0090708D01*
X0093209Y0090712D01*
X0093105Y0090713D01*
X0093001Y0090709D01*
X0092897Y0090701D01*
X0092794Y0090690D01*
X0092691Y0090674D01*
X0092589Y0090655D01*
X0092487Y0090632D01*
X0092387Y0090605D01*
X0092288Y0090574D01*
X0092189Y0090540D01*
X0092093Y0090501D01*
X0091997Y0090460D01*
X0091903Y0090415D01*
X0091812Y0090366D01*
X0091721Y0090314D01*
X0091633Y0090258D01*
X0091548Y0090199D01*
X0091464Y0090137D01*
X0091383Y0090072D01*
X0091304Y0090004D01*
X0091228Y0089933D01*
X0091155Y0089860D01*
X0091084Y0089783D01*
X0091016Y0089704D01*
X0091326Y0089484D01*
X0091390Y0089557D01*
X0091457Y0089627D01*
X0091526Y0089694D01*
X0091599Y0089759D01*
X0091673Y0089820D01*
X0091750Y0089878D01*
X0091830Y0089934D01*
X0091911Y0089986D01*
X0091995Y0090034D01*
X0092081Y0090079D01*
X0092168Y0090121D01*
X0092257Y0090159D01*
X0092347Y0090194D01*
X0092439Y0090225D01*
X0092532Y0090252D01*
X0092626Y0090275D01*
X0092720Y0090294D01*
X0092816Y0090310D01*
X0092912Y0090322D01*
X0093008Y0090330D01*
X0093105Y0090333D01*
X0093202Y0090334D01*
X0093298Y0090330D01*
X0093395Y0090322D01*
X0093491Y0090310D01*
X0093586Y0090295D01*
X0093681Y0090275D01*
X0093775Y0090252D01*
X0093868Y0090225D01*
X0093959Y0090194D01*
X0094050Y0090160D01*
X0094139Y0090122D01*
X0094226Y0090080D01*
X0094312Y0090035D01*
X0094395Y0089986D01*
X0094477Y0089935D01*
X0094556Y0089879D01*
X0094633Y0089821D01*
X0094708Y0089760D01*
X0094780Y0089695D01*
X0094850Y0089628D01*
X0094917Y0089558D01*
X0094981Y0089485D01*
X0095041Y0089410D01*
X0095099Y0089333D01*
X0095154Y0089253D01*
X0095205Y0089171D01*
X0095253Y0089087D01*
X0095298Y0089001D01*
X0095339Y0088913D01*
X0095376Y0088824D01*
X0095410Y0088733D01*
X0095440Y0088642D01*
X0095466Y0088548D01*
X0095489Y0088454D01*
X0095508Y0088360D01*
X0095522Y0088264D01*
X0095533Y0088168D01*
X0095541Y0088071D01*
X0095544Y0087975D01*
X0095543Y0087878D01*
X0095538Y0087781D01*
X0095530Y0087685D01*
X0095518Y0087589D01*
X0095501Y0087494D01*
X0095481Y0087399D01*
X0095457Y0087305D01*
X0095429Y0087213D01*
X0095398Y0087121D01*
X0095363Y0087031D01*
X0095324Y0086943D01*
X0095282Y0086856D01*
X0095236Y0086770D01*
X0095187Y0086687D01*
X0095134Y0086606D01*
X0095079Y0086527D01*
X0095020Y0086450D01*
X0094958Y0086376D01*
X0094893Y0086304D01*
X0094825Y0086235D01*
X0094754Y0086169D01*
X0094681Y0086106D01*
X0094606Y0086045D01*
X0094400Y0086366D01*
X0094469Y0086423D01*
X0094535Y0086483D01*
X0094599Y0086545D01*
X0094660Y0086611D01*
X0094717Y0086679D01*
X0094772Y0086749D01*
X0094823Y0086822D01*
X0094871Y0086897D01*
X0094916Y0086975D01*
X0094957Y0087054D01*
X0094995Y0087135D01*
X0095029Y0087217D01*
X0095059Y0087301D01*
X0095086Y0087386D01*
X0095109Y0087472D01*
X0095128Y0087560D01*
X0095143Y0087648D01*
X0095154Y0087736D01*
X0095161Y0087825D01*
X0095165Y0087914D01*
X0095164Y0088003D01*
X0095160Y0088092D01*
X0095151Y0088181D01*
X0095138Y0088270D01*
X0095122Y0088357D01*
X0095102Y0088444D01*
X0095078Y0088530D01*
X0095050Y0088615D01*
X0095018Y0088698D01*
X0094983Y0088780D01*
X0094944Y0088861D01*
X0094902Y0088939D01*
X0094856Y0089016D01*
X0094807Y0089090D01*
X0094754Y0089162D01*
X0094698Y0089232D01*
X0094640Y0089299D01*
X0094578Y0089364D01*
X0094514Y0089426D01*
X0094447Y0089484D01*
X0094377Y0089540D01*
X0094305Y0089593D01*
X0094231Y0089642D01*
X0094155Y0089688D01*
X0094076Y0089731D01*
X0093996Y0089770D01*
X0093914Y0089806D01*
X0093831Y0089838D01*
X0093746Y0089866D01*
X0093660Y0089890D01*
X0093574Y0089911D01*
X0093486Y0089927D01*
X0093398Y0089940D01*
X0093309Y0089949D01*
X0093220Y0089954D01*
X0093130Y0089955D01*
X0093041Y0089952D01*
X0092952Y0089945D01*
X0092864Y0089934D01*
X0092776Y0089919D01*
X0092689Y0089900D01*
X0092602Y0089878D01*
X0092517Y0089851D01*
X0092433Y0089821D01*
X0092351Y0089788D01*
X0092270Y0089750D01*
X0092190Y0089709D01*
X0092113Y0089665D01*
X0092038Y0089617D01*
X0091965Y0089566D01*
X0091894Y0089511D01*
X0091826Y0089454D01*
X0091760Y0089393D01*
X0091697Y0089330D01*
X0091637Y0089264D01*
X0091948Y0089043D01*
X0092003Y0089101D01*
X0092061Y0089156D01*
X0092122Y0089208D01*
X0092185Y0089257D01*
X0092250Y0089303D01*
X0092318Y0089346D01*
X0092388Y0089385D01*
X0092459Y0089421D01*
X0092532Y0089453D01*
X0092607Y0089482D01*
X0092683Y0089507D01*
X0092760Y0089528D01*
X0092838Y0089545D01*
X0092917Y0089559D01*
X0092996Y0089568D01*
X0093076Y0089574D01*
X0093156Y0089576D01*
X0093236Y0089574D01*
X0093315Y0089568D01*
X0093395Y0089558D01*
X0093473Y0089544D01*
X0093551Y0089527D01*
X0093628Y0089506D01*
X0093704Y0089480D01*
X0093779Y0089452D01*
X0093852Y0089419D01*
X0093923Y0089383D01*
X0093993Y0089344D01*
X0094060Y0089301D01*
X0094126Y0089255D01*
X0094189Y0089206D01*
X0094249Y0089154D01*
X0094307Y0089099D01*
X0094362Y0089041D01*
X0094415Y0088981D01*
X0094464Y0088918D01*
X0094510Y0088852D01*
X0094553Y0088785D01*
X0094592Y0088715D01*
X0094628Y0088644D01*
X0094661Y0088571D01*
X0094690Y0088496D01*
X0094715Y0088421D01*
X0094736Y0088344D01*
X0094754Y0088266D01*
X0094768Y0088187D01*
X0094778Y0088108D01*
X0094784Y0088028D01*
X0094786Y0087948D01*
X0094784Y0087868D01*
X0094779Y0087788D01*
X0094769Y0087709D01*
X0094756Y0087630D01*
X0094738Y0087552D01*
X0094717Y0087475D01*
X0094692Y0087399D01*
X0094664Y0087324D01*
X0094632Y0087251D01*
X0094596Y0087180D01*
X0094557Y0087110D01*
X0094514Y0087042D01*
X0094469Y0086977D01*
X0094420Y0086914D01*
X0094368Y0086853D01*
X0094313Y0086795D01*
X0094255Y0086739D01*
X0094195Y0086687D01*
X0093988Y0087009D01*
X0094039Y0087057D01*
X0094086Y0087107D01*
X0094131Y0087160D01*
X0094173Y0087215D01*
X0094212Y0087272D01*
X0094247Y0087332D01*
X0094280Y0087393D01*
X0094308Y0087456D01*
X0094333Y0087521D01*
X0094355Y0087587D01*
X0094373Y0087654D01*
X0094387Y0087722D01*
X0094398Y0087790D01*
X0094404Y0087859D01*
X0094407Y0087928D01*
X0094406Y0087998D01*
X0094401Y0088067D01*
X0094392Y0088135D01*
X0094380Y0088204D01*
X0094364Y0088271D01*
X0094344Y0088337D01*
X0094320Y0088402D01*
X0094293Y0088466D01*
X0094262Y0088528D01*
X0094228Y0088589D01*
X0094191Y0088647D01*
X0094151Y0088703D01*
X0094107Y0088757D01*
X0094061Y0088809D01*
X0094012Y0088857D01*
X0093960Y0088904D01*
X0093906Y0088947D01*
X0093849Y0088987D01*
X0093790Y0089023D01*
X0093730Y0089057D01*
X0093667Y0089087D01*
X0093603Y0089114D01*
X0093538Y0089137D01*
X0093471Y0089156D01*
X0093404Y0089172D01*
X0093336Y0089184D01*
X0093267Y0089192D01*
X0093198Y0089196D01*
X0093128Y0089197D01*
X0093059Y0089193D01*
X0092990Y0089186D01*
X0092922Y0089175D01*
X0092854Y0089161D01*
X0092787Y0089142D01*
X0092722Y0089120D01*
X0092657Y0089094D01*
X0092595Y0089065D01*
X0092534Y0089033D01*
X0092474Y0088997D01*
X0092417Y0088957D01*
X0092362Y0088915D01*
X0092310Y0088870D01*
X0092260Y0088822D01*
X0092574Y0088598D01*
X0092619Y0088635D01*
X0092666Y0088669D01*
X0092716Y0088700D01*
X0092767Y0088728D01*
X0092820Y0088752D01*
X0092875Y0088772D01*
X0092931Y0088789D01*
X0092988Y0088802D01*
X0093045Y0088811D01*
X0093103Y0088817D01*
X0093161Y0088818D01*
X0093220Y0088816D01*
X0093278Y0088809D01*
X0093335Y0088799D01*
X0093392Y0088785D01*
X0093447Y0088767D01*
X0093501Y0088746D01*
X0093554Y0088721D01*
X0093605Y0088693D01*
X0093654Y0088661D01*
X0093701Y0088626D01*
X0093745Y0088588D01*
X0093787Y0088547D01*
X0093825Y0088504D01*
X0093861Y0088458D01*
X0093894Y0088409D01*
X0093923Y0088359D01*
X0093949Y0088307D01*
X0093972Y0088253D01*
X0093990Y0088198D01*
X0094005Y0088141D01*
X0094017Y0088084D01*
X0094024Y0088026D01*
X0094028Y0087968D01*
X0094027Y0087910D01*
X0094023Y0087852D01*
X0094015Y0087794D01*
X0094003Y0087737D01*
X0093987Y0087681D01*
X0093968Y0087626D01*
X0093945Y0087572D01*
X0093918Y0087520D01*
X0093889Y0087470D01*
X0093855Y0087422D01*
X0093819Y0087377D01*
X0093780Y0087334D01*
X0093563Y0087665D01*
X0093586Y0087702D01*
X0093606Y0087741D01*
X0093622Y0087781D01*
X0093634Y0087823D01*
X0093643Y0087866D01*
X0093648Y0087909D01*
X0093649Y0087952D01*
X0093646Y0087995D01*
X0093640Y0088038D01*
X0093630Y0088080D01*
X0093616Y0088122D01*
X0093599Y0088161D01*
X0093578Y0088200D01*
X0093554Y0088236D01*
X0093527Y0088270D01*
X0093497Y0088301D01*
X0093464Y0088330D01*
X0093429Y0088355D01*
X0093392Y0088378D01*
X0093353Y0088397D01*
X0093313Y0088413D01*
X0093271Y0088425D01*
X0093229Y0088433D01*
X0093186Y0088438D01*
X0093142Y0088439D01*
X0093099Y0088436D01*
X0093056Y0088429D01*
X0093014Y0088419D01*
X0092973Y0088405D01*
X0092933Y0088387D01*
X0092895Y0088366D01*
D14*
X0040764Y0112201D02*
X0039189Y0114563D01*
X0037614Y0112201D01*
X0040764Y0112201D01*
M02*
