G75*
%MOIN*%
%OFA0B0*%
%FSLAX25Y25*%
%IPPOS*%
%LPD*%
%AMOC8*
5,1,8,0,0,1.08239X$1,22.5*
%
%ADD10C,0.00000*%
%ADD11C,0.00039*%
D10*
X0031167Y0092072D02*
X0031170Y0092289D01*
X0031178Y0092507D01*
X0031191Y0092724D01*
X0031210Y0092940D01*
X0031234Y0093156D01*
X0031263Y0093372D01*
X0031297Y0093586D01*
X0031337Y0093800D01*
X0031382Y0094013D01*
X0031432Y0094224D01*
X0031488Y0094435D01*
X0031548Y0094643D01*
X0031614Y0094851D01*
X0031685Y0095056D01*
X0031761Y0095260D01*
X0031841Y0095462D01*
X0031927Y0095662D01*
X0032017Y0095859D01*
X0032113Y0096055D01*
X0032213Y0096248D01*
X0032318Y0096438D01*
X0032427Y0096626D01*
X0032541Y0096811D01*
X0032660Y0096993D01*
X0032783Y0097173D01*
X0032910Y0097349D01*
X0033042Y0097522D01*
X0033178Y0097691D01*
X0033318Y0097858D01*
X0033462Y0098021D01*
X0033610Y0098180D01*
X0033761Y0098336D01*
X0033917Y0098487D01*
X0034076Y0098635D01*
X0034239Y0098779D01*
X0034406Y0098919D01*
X0034575Y0099055D01*
X0034748Y0099187D01*
X0034924Y0099314D01*
X0035104Y0099437D01*
X0035286Y0099556D01*
X0035471Y0099670D01*
X0035659Y0099779D01*
X0035849Y0099884D01*
X0036042Y0099984D01*
X0036238Y0100080D01*
X0036435Y0100170D01*
X0036635Y0100256D01*
X0036837Y0100336D01*
X0037041Y0100412D01*
X0037246Y0100483D01*
X0037454Y0100549D01*
X0037662Y0100609D01*
X0037873Y0100665D01*
X0038084Y0100715D01*
X0038297Y0100760D01*
X0038511Y0100800D01*
X0038725Y0100834D01*
X0038941Y0100863D01*
X0039157Y0100887D01*
X0039373Y0100906D01*
X0039590Y0100919D01*
X0039808Y0100927D01*
X0040025Y0100930D01*
X0040242Y0100927D01*
X0040460Y0100919D01*
X0040677Y0100906D01*
X0040893Y0100887D01*
X0041109Y0100863D01*
X0041325Y0100834D01*
X0041539Y0100800D01*
X0041753Y0100760D01*
X0041966Y0100715D01*
X0042177Y0100665D01*
X0042388Y0100609D01*
X0042596Y0100549D01*
X0042804Y0100483D01*
X0043009Y0100412D01*
X0043213Y0100336D01*
X0043415Y0100256D01*
X0043615Y0100170D01*
X0043812Y0100080D01*
X0044008Y0099984D01*
X0044201Y0099884D01*
X0044391Y0099779D01*
X0044579Y0099670D01*
X0044764Y0099556D01*
X0044946Y0099437D01*
X0045126Y0099314D01*
X0045302Y0099187D01*
X0045475Y0099055D01*
X0045644Y0098919D01*
X0045811Y0098779D01*
X0045974Y0098635D01*
X0046133Y0098487D01*
X0046289Y0098336D01*
X0046440Y0098180D01*
X0046588Y0098021D01*
X0046732Y0097858D01*
X0046872Y0097691D01*
X0047008Y0097522D01*
X0047140Y0097349D01*
X0047267Y0097173D01*
X0047390Y0096993D01*
X0047509Y0096811D01*
X0047623Y0096626D01*
X0047732Y0096438D01*
X0047837Y0096248D01*
X0047937Y0096055D01*
X0048033Y0095859D01*
X0048123Y0095662D01*
X0048209Y0095462D01*
X0048289Y0095260D01*
X0048365Y0095056D01*
X0048436Y0094851D01*
X0048502Y0094643D01*
X0048562Y0094435D01*
X0048618Y0094224D01*
X0048668Y0094013D01*
X0048713Y0093800D01*
X0048753Y0093586D01*
X0048787Y0093372D01*
X0048816Y0093156D01*
X0048840Y0092940D01*
X0048859Y0092724D01*
X0048872Y0092507D01*
X0048880Y0092289D01*
X0048883Y0092072D01*
X0048880Y0091855D01*
X0048872Y0091637D01*
X0048859Y0091420D01*
X0048840Y0091204D01*
X0048816Y0090988D01*
X0048787Y0090772D01*
X0048753Y0090558D01*
X0048713Y0090344D01*
X0048668Y0090131D01*
X0048618Y0089920D01*
X0048562Y0089709D01*
X0048502Y0089501D01*
X0048436Y0089293D01*
X0048365Y0089088D01*
X0048289Y0088884D01*
X0048209Y0088682D01*
X0048123Y0088482D01*
X0048033Y0088285D01*
X0047937Y0088089D01*
X0047837Y0087896D01*
X0047732Y0087706D01*
X0047623Y0087518D01*
X0047509Y0087333D01*
X0047390Y0087151D01*
X0047267Y0086971D01*
X0047140Y0086795D01*
X0047008Y0086622D01*
X0046872Y0086453D01*
X0046732Y0086286D01*
X0046588Y0086123D01*
X0046440Y0085964D01*
X0046289Y0085808D01*
X0046133Y0085657D01*
X0045974Y0085509D01*
X0045811Y0085365D01*
X0045644Y0085225D01*
X0045475Y0085089D01*
X0045302Y0084957D01*
X0045126Y0084830D01*
X0044946Y0084707D01*
X0044764Y0084588D01*
X0044579Y0084474D01*
X0044391Y0084365D01*
X0044201Y0084260D01*
X0044008Y0084160D01*
X0043812Y0084064D01*
X0043615Y0083974D01*
X0043415Y0083888D01*
X0043213Y0083808D01*
X0043009Y0083732D01*
X0042804Y0083661D01*
X0042596Y0083595D01*
X0042388Y0083535D01*
X0042177Y0083479D01*
X0041966Y0083429D01*
X0041753Y0083384D01*
X0041539Y0083344D01*
X0041325Y0083310D01*
X0041109Y0083281D01*
X0040893Y0083257D01*
X0040677Y0083238D01*
X0040460Y0083225D01*
X0040242Y0083217D01*
X0040025Y0083214D01*
X0039808Y0083217D01*
X0039590Y0083225D01*
X0039373Y0083238D01*
X0039157Y0083257D01*
X0038941Y0083281D01*
X0038725Y0083310D01*
X0038511Y0083344D01*
X0038297Y0083384D01*
X0038084Y0083429D01*
X0037873Y0083479D01*
X0037662Y0083535D01*
X0037454Y0083595D01*
X0037246Y0083661D01*
X0037041Y0083732D01*
X0036837Y0083808D01*
X0036635Y0083888D01*
X0036435Y0083974D01*
X0036238Y0084064D01*
X0036042Y0084160D01*
X0035849Y0084260D01*
X0035659Y0084365D01*
X0035471Y0084474D01*
X0035286Y0084588D01*
X0035104Y0084707D01*
X0034924Y0084830D01*
X0034748Y0084957D01*
X0034575Y0085089D01*
X0034406Y0085225D01*
X0034239Y0085365D01*
X0034076Y0085509D01*
X0033917Y0085657D01*
X0033761Y0085808D01*
X0033610Y0085964D01*
X0033462Y0086123D01*
X0033318Y0086286D01*
X0033178Y0086453D01*
X0033042Y0086622D01*
X0032910Y0086795D01*
X0032783Y0086971D01*
X0032660Y0087151D01*
X0032541Y0087333D01*
X0032427Y0087518D01*
X0032318Y0087706D01*
X0032213Y0087896D01*
X0032113Y0088089D01*
X0032017Y0088285D01*
X0031927Y0088482D01*
X0031841Y0088682D01*
X0031761Y0088884D01*
X0031685Y0089088D01*
X0031614Y0089293D01*
X0031548Y0089501D01*
X0031488Y0089709D01*
X0031432Y0089920D01*
X0031382Y0090131D01*
X0031337Y0090344D01*
X0031297Y0090558D01*
X0031263Y0090772D01*
X0031234Y0090988D01*
X0031210Y0091204D01*
X0031191Y0091420D01*
X0031178Y0091637D01*
X0031170Y0091855D01*
X0031167Y0092072D01*
X0129592Y0092072D02*
X0129595Y0092289D01*
X0129603Y0092507D01*
X0129616Y0092724D01*
X0129635Y0092940D01*
X0129659Y0093156D01*
X0129688Y0093372D01*
X0129722Y0093586D01*
X0129762Y0093800D01*
X0129807Y0094013D01*
X0129857Y0094224D01*
X0129913Y0094435D01*
X0129973Y0094643D01*
X0130039Y0094851D01*
X0130110Y0095056D01*
X0130186Y0095260D01*
X0130266Y0095462D01*
X0130352Y0095662D01*
X0130442Y0095859D01*
X0130538Y0096055D01*
X0130638Y0096248D01*
X0130743Y0096438D01*
X0130852Y0096626D01*
X0130966Y0096811D01*
X0131085Y0096993D01*
X0131208Y0097173D01*
X0131335Y0097349D01*
X0131467Y0097522D01*
X0131603Y0097691D01*
X0131743Y0097858D01*
X0131887Y0098021D01*
X0132035Y0098180D01*
X0132186Y0098336D01*
X0132342Y0098487D01*
X0132501Y0098635D01*
X0132664Y0098779D01*
X0132831Y0098919D01*
X0133000Y0099055D01*
X0133173Y0099187D01*
X0133349Y0099314D01*
X0133529Y0099437D01*
X0133711Y0099556D01*
X0133896Y0099670D01*
X0134084Y0099779D01*
X0134274Y0099884D01*
X0134467Y0099984D01*
X0134663Y0100080D01*
X0134860Y0100170D01*
X0135060Y0100256D01*
X0135262Y0100336D01*
X0135466Y0100412D01*
X0135671Y0100483D01*
X0135879Y0100549D01*
X0136087Y0100609D01*
X0136298Y0100665D01*
X0136509Y0100715D01*
X0136722Y0100760D01*
X0136936Y0100800D01*
X0137150Y0100834D01*
X0137366Y0100863D01*
X0137582Y0100887D01*
X0137798Y0100906D01*
X0138015Y0100919D01*
X0138233Y0100927D01*
X0138450Y0100930D01*
X0138667Y0100927D01*
X0138885Y0100919D01*
X0139102Y0100906D01*
X0139318Y0100887D01*
X0139534Y0100863D01*
X0139750Y0100834D01*
X0139964Y0100800D01*
X0140178Y0100760D01*
X0140391Y0100715D01*
X0140602Y0100665D01*
X0140813Y0100609D01*
X0141021Y0100549D01*
X0141229Y0100483D01*
X0141434Y0100412D01*
X0141638Y0100336D01*
X0141840Y0100256D01*
X0142040Y0100170D01*
X0142237Y0100080D01*
X0142433Y0099984D01*
X0142626Y0099884D01*
X0142816Y0099779D01*
X0143004Y0099670D01*
X0143189Y0099556D01*
X0143371Y0099437D01*
X0143551Y0099314D01*
X0143727Y0099187D01*
X0143900Y0099055D01*
X0144069Y0098919D01*
X0144236Y0098779D01*
X0144399Y0098635D01*
X0144558Y0098487D01*
X0144714Y0098336D01*
X0144865Y0098180D01*
X0145013Y0098021D01*
X0145157Y0097858D01*
X0145297Y0097691D01*
X0145433Y0097522D01*
X0145565Y0097349D01*
X0145692Y0097173D01*
X0145815Y0096993D01*
X0145934Y0096811D01*
X0146048Y0096626D01*
X0146157Y0096438D01*
X0146262Y0096248D01*
X0146362Y0096055D01*
X0146458Y0095859D01*
X0146548Y0095662D01*
X0146634Y0095462D01*
X0146714Y0095260D01*
X0146790Y0095056D01*
X0146861Y0094851D01*
X0146927Y0094643D01*
X0146987Y0094435D01*
X0147043Y0094224D01*
X0147093Y0094013D01*
X0147138Y0093800D01*
X0147178Y0093586D01*
X0147212Y0093372D01*
X0147241Y0093156D01*
X0147265Y0092940D01*
X0147284Y0092724D01*
X0147297Y0092507D01*
X0147305Y0092289D01*
X0147308Y0092072D01*
X0147305Y0091855D01*
X0147297Y0091637D01*
X0147284Y0091420D01*
X0147265Y0091204D01*
X0147241Y0090988D01*
X0147212Y0090772D01*
X0147178Y0090558D01*
X0147138Y0090344D01*
X0147093Y0090131D01*
X0147043Y0089920D01*
X0146987Y0089709D01*
X0146927Y0089501D01*
X0146861Y0089293D01*
X0146790Y0089088D01*
X0146714Y0088884D01*
X0146634Y0088682D01*
X0146548Y0088482D01*
X0146458Y0088285D01*
X0146362Y0088089D01*
X0146262Y0087896D01*
X0146157Y0087706D01*
X0146048Y0087518D01*
X0145934Y0087333D01*
X0145815Y0087151D01*
X0145692Y0086971D01*
X0145565Y0086795D01*
X0145433Y0086622D01*
X0145297Y0086453D01*
X0145157Y0086286D01*
X0145013Y0086123D01*
X0144865Y0085964D01*
X0144714Y0085808D01*
X0144558Y0085657D01*
X0144399Y0085509D01*
X0144236Y0085365D01*
X0144069Y0085225D01*
X0143900Y0085089D01*
X0143727Y0084957D01*
X0143551Y0084830D01*
X0143371Y0084707D01*
X0143189Y0084588D01*
X0143004Y0084474D01*
X0142816Y0084365D01*
X0142626Y0084260D01*
X0142433Y0084160D01*
X0142237Y0084064D01*
X0142040Y0083974D01*
X0141840Y0083888D01*
X0141638Y0083808D01*
X0141434Y0083732D01*
X0141229Y0083661D01*
X0141021Y0083595D01*
X0140813Y0083535D01*
X0140602Y0083479D01*
X0140391Y0083429D01*
X0140178Y0083384D01*
X0139964Y0083344D01*
X0139750Y0083310D01*
X0139534Y0083281D01*
X0139318Y0083257D01*
X0139102Y0083238D01*
X0138885Y0083225D01*
X0138667Y0083217D01*
X0138450Y0083214D01*
X0138233Y0083217D01*
X0138015Y0083225D01*
X0137798Y0083238D01*
X0137582Y0083257D01*
X0137366Y0083281D01*
X0137150Y0083310D01*
X0136936Y0083344D01*
X0136722Y0083384D01*
X0136509Y0083429D01*
X0136298Y0083479D01*
X0136087Y0083535D01*
X0135879Y0083595D01*
X0135671Y0083661D01*
X0135466Y0083732D01*
X0135262Y0083808D01*
X0135060Y0083888D01*
X0134860Y0083974D01*
X0134663Y0084064D01*
X0134467Y0084160D01*
X0134274Y0084260D01*
X0134084Y0084365D01*
X0133896Y0084474D01*
X0133711Y0084588D01*
X0133529Y0084707D01*
X0133349Y0084830D01*
X0133173Y0084957D01*
X0133000Y0085089D01*
X0132831Y0085225D01*
X0132664Y0085365D01*
X0132501Y0085509D01*
X0132342Y0085657D01*
X0132186Y0085808D01*
X0132035Y0085964D01*
X0131887Y0086123D01*
X0131743Y0086286D01*
X0131603Y0086453D01*
X0131467Y0086622D01*
X0131335Y0086795D01*
X0131208Y0086971D01*
X0131085Y0087151D01*
X0130966Y0087333D01*
X0130852Y0087518D01*
X0130743Y0087706D01*
X0130638Y0087896D01*
X0130538Y0088089D01*
X0130442Y0088285D01*
X0130352Y0088482D01*
X0130266Y0088682D01*
X0130186Y0088884D01*
X0130110Y0089088D01*
X0130039Y0089293D01*
X0129973Y0089501D01*
X0129913Y0089709D01*
X0129857Y0089920D01*
X0129807Y0090131D01*
X0129762Y0090344D01*
X0129722Y0090558D01*
X0129688Y0090772D01*
X0129659Y0090988D01*
X0129635Y0091204D01*
X0129616Y0091420D01*
X0129603Y0091637D01*
X0129595Y0091855D01*
X0129592Y0092072D01*
D11*
X0014435Y0092072D02*
X0014458Y0093908D01*
X0014525Y0095742D01*
X0014638Y0097575D01*
X0014795Y0099404D01*
X0014998Y0101229D01*
X0015245Y0103048D01*
X0015536Y0104860D01*
X0015872Y0106665D01*
X0016253Y0108461D01*
X0016677Y0110248D01*
X0017145Y0112023D01*
X0017656Y0113786D01*
X0018210Y0115536D01*
X0018808Y0117272D01*
X0019447Y0118993D01*
X0020129Y0120698D01*
X0020852Y0122385D01*
X0021617Y0124054D01*
X0022422Y0125704D01*
X0023268Y0127334D01*
X0024153Y0128942D01*
X0025077Y0130528D01*
X0026040Y0132091D01*
X0027042Y0133630D01*
X0028080Y0135144D01*
X0029156Y0136632D01*
X0030267Y0138093D01*
X0031414Y0139527D01*
X0032597Y0140931D01*
X0033813Y0142307D01*
X0035062Y0143652D01*
X0036344Y0144966D01*
X0037658Y0146248D01*
X0039003Y0147497D01*
X0040379Y0148713D01*
X0041783Y0149896D01*
X0043217Y0151043D01*
X0044678Y0152154D01*
X0046166Y0153230D01*
X0047680Y0154268D01*
X0049219Y0155270D01*
X0050782Y0156233D01*
X0052368Y0157157D01*
X0053976Y0158042D01*
X0055606Y0158888D01*
X0057256Y0159693D01*
X0058925Y0160458D01*
X0060612Y0161181D01*
X0062317Y0161863D01*
X0064038Y0162502D01*
X0065774Y0163100D01*
X0067524Y0163654D01*
X0069287Y0164165D01*
X0071062Y0164633D01*
X0072849Y0165057D01*
X0074645Y0165438D01*
X0076450Y0165774D01*
X0078262Y0166065D01*
X0080081Y0166312D01*
X0081906Y0166515D01*
X0083735Y0166672D01*
X0085568Y0166785D01*
X0087402Y0166852D01*
X0089238Y0166875D01*
X0091074Y0166852D01*
X0092908Y0166785D01*
X0094741Y0166672D01*
X0096570Y0166515D01*
X0098395Y0166312D01*
X0100214Y0166065D01*
X0102026Y0165774D01*
X0103831Y0165438D01*
X0105627Y0165057D01*
X0107414Y0164633D01*
X0109189Y0164165D01*
X0110952Y0163654D01*
X0112702Y0163100D01*
X0114438Y0162502D01*
X0116159Y0161863D01*
X0117864Y0161181D01*
X0119551Y0160458D01*
X0121220Y0159693D01*
X0122870Y0158888D01*
X0124500Y0158042D01*
X0126108Y0157157D01*
X0127694Y0156233D01*
X0129257Y0155270D01*
X0130796Y0154268D01*
X0132310Y0153230D01*
X0133798Y0152154D01*
X0135259Y0151043D01*
X0136693Y0149896D01*
X0138097Y0148713D01*
X0139473Y0147497D01*
X0140818Y0146248D01*
X0142132Y0144966D01*
X0143414Y0143652D01*
X0144663Y0142307D01*
X0145879Y0140931D01*
X0147062Y0139527D01*
X0148209Y0138093D01*
X0149320Y0136632D01*
X0150396Y0135144D01*
X0151434Y0133630D01*
X0152436Y0132091D01*
X0153399Y0130528D01*
X0154323Y0128942D01*
X0155208Y0127334D01*
X0156054Y0125704D01*
X0156859Y0124054D01*
X0157624Y0122385D01*
X0158347Y0120698D01*
X0159029Y0118993D01*
X0159668Y0117272D01*
X0160266Y0115536D01*
X0160820Y0113786D01*
X0161331Y0112023D01*
X0161799Y0110248D01*
X0162223Y0108461D01*
X0162604Y0106665D01*
X0162940Y0104860D01*
X0163231Y0103048D01*
X0163478Y0101229D01*
X0163681Y0099404D01*
X0163838Y0097575D01*
X0163951Y0095742D01*
X0164018Y0093908D01*
X0164041Y0092072D01*
X0164018Y0090236D01*
X0163951Y0088402D01*
X0163838Y0086569D01*
X0163681Y0084740D01*
X0163478Y0082915D01*
X0163231Y0081096D01*
X0162940Y0079284D01*
X0162604Y0077479D01*
X0162223Y0075683D01*
X0161799Y0073896D01*
X0161331Y0072121D01*
X0160820Y0070358D01*
X0160266Y0068608D01*
X0159668Y0066872D01*
X0159029Y0065151D01*
X0158347Y0063446D01*
X0157624Y0061759D01*
X0156859Y0060090D01*
X0156054Y0058440D01*
X0155208Y0056810D01*
X0154323Y0055202D01*
X0153399Y0053616D01*
X0152436Y0052053D01*
X0151434Y0050514D01*
X0150396Y0049000D01*
X0149320Y0047512D01*
X0148209Y0046051D01*
X0147062Y0044617D01*
X0145879Y0043213D01*
X0144663Y0041837D01*
X0143414Y0040492D01*
X0142132Y0039178D01*
X0140818Y0037896D01*
X0139473Y0036647D01*
X0138097Y0035431D01*
X0136693Y0034248D01*
X0135259Y0033101D01*
X0133798Y0031990D01*
X0132310Y0030914D01*
X0130796Y0029876D01*
X0129257Y0028874D01*
X0127694Y0027911D01*
X0126108Y0026987D01*
X0124500Y0026102D01*
X0122870Y0025256D01*
X0121220Y0024451D01*
X0119551Y0023686D01*
X0117864Y0022963D01*
X0116159Y0022281D01*
X0114438Y0021642D01*
X0112702Y0021044D01*
X0110952Y0020490D01*
X0109189Y0019979D01*
X0107414Y0019511D01*
X0105627Y0019087D01*
X0103831Y0018706D01*
X0102026Y0018370D01*
X0100214Y0018079D01*
X0098395Y0017832D01*
X0096570Y0017629D01*
X0094741Y0017472D01*
X0092908Y0017359D01*
X0091074Y0017292D01*
X0089238Y0017269D01*
X0087402Y0017292D01*
X0085568Y0017359D01*
X0083735Y0017472D01*
X0081906Y0017629D01*
X0080081Y0017832D01*
X0078262Y0018079D01*
X0076450Y0018370D01*
X0074645Y0018706D01*
X0072849Y0019087D01*
X0071062Y0019511D01*
X0069287Y0019979D01*
X0067524Y0020490D01*
X0065774Y0021044D01*
X0064038Y0021642D01*
X0062317Y0022281D01*
X0060612Y0022963D01*
X0058925Y0023686D01*
X0057256Y0024451D01*
X0055606Y0025256D01*
X0053976Y0026102D01*
X0052368Y0026987D01*
X0050782Y0027911D01*
X0049219Y0028874D01*
X0047680Y0029876D01*
X0046166Y0030914D01*
X0044678Y0031990D01*
X0043217Y0033101D01*
X0041783Y0034248D01*
X0040379Y0035431D01*
X0039003Y0036647D01*
X0037658Y0037896D01*
X0036344Y0039178D01*
X0035062Y0040492D01*
X0033813Y0041837D01*
X0032597Y0043213D01*
X0031414Y0044617D01*
X0030267Y0046051D01*
X0029156Y0047512D01*
X0028080Y0049000D01*
X0027042Y0050514D01*
X0026040Y0052053D01*
X0025077Y0053616D01*
X0024153Y0055202D01*
X0023268Y0056810D01*
X0022422Y0058440D01*
X0021617Y0060090D01*
X0020852Y0061759D01*
X0020129Y0063446D01*
X0019447Y0065151D01*
X0018808Y0066872D01*
X0018210Y0068608D01*
X0017656Y0070358D01*
X0017145Y0072121D01*
X0016677Y0073896D01*
X0016253Y0075683D01*
X0015872Y0077479D01*
X0015536Y0079284D01*
X0015245Y0081096D01*
X0014998Y0082915D01*
X0014795Y0084740D01*
X0014638Y0086569D01*
X0014525Y0088402D01*
X0014458Y0090236D01*
X0014435Y0092072D01*
M02*
