%
M48
M72
T01C0.0120
T02C0.0157
T03C0.0354
T04C0.0550
T05C0.1772
%
T01
X2792Y7106
X3208Y6611
X4362Y5904
X5832Y5080
X6182Y5083
X6717Y4866
X7689Y4700
X6732Y14202
X8345Y14379
X12255Y12254
X12255Y11995
X12514Y11995
X12514Y12254
X12774Y12254
X12774Y11995
X13034Y11995
X13034Y12254
X13034Y11735
X12774Y11735
X12514Y11735
X12255Y11735
T02
X4625Y4576
X3925Y5210
X7251Y6086
X7163Y7207
X6458Y8609
X7188Y8919
X6497Y9942
X6497Y10320
X6119Y10320
X6119Y9942
X5741Y9942
X5741Y10320
X5741Y10698
X6119Y10698
X6497Y10698
X8604Y8195
X10025Y7876
X10355Y7873
X10686Y7873
X10686Y7542
X10686Y7211
X10686Y6880
X10686Y6550
X10355Y6550
X10355Y6880
X10355Y7211
X10024Y7211
X10024Y7542
X10355Y7542
X11830Y9008
X11823Y9429
X11923Y10242
X11757Y10935
X10685Y9980
X10685Y9649
X10378Y9649
X10071Y9649
X10071Y9980
X10378Y9980
X10378Y10311
X10071Y10311
X10071Y10641
X10378Y10641
X10378Y10972
X10071Y10972
X9963Y12491
X9963Y12821
X10317Y12821
X10317Y12491
X10648Y12491
X10648Y12821
X12335Y6687
X12473Y4438
X12119Y4273
X12284Y3918
X11930Y3753
X11764Y4107
X11410Y3942
X11056Y3777
X11221Y3422
X10867Y3257
X10701Y3611
X11032Y2903
X11386Y3068
X11764Y3233
X12119Y3399
X12473Y3564
X12804Y3729
X12638Y4084
X11575Y3588
X9107Y4113
X8579Y6132
T03
X7373Y14837
X8160Y14837
X8160Y15625
X7373Y15625
X8947Y15625
X9735Y15625
X10522Y15625
X10522Y14837
X9735Y14837
X8947Y14837
T04
X6073Y3867
X8355Y3057
T05
X4003Y9207
X13845Y9207
M30
