%
M48
M72
T01C0.0120
T02C0.0157
%
T01
X6036Y1145
X6331Y1145
X6627Y1145
X6922Y1145
X7217Y1145
X7513Y1145
X7808Y1145
X8103Y1145
X8398Y1145
X8694Y1145
X8989Y1145
X9284Y1145
X9580Y1145
X9875Y1145
X10170Y1145
X10465Y1145
X10761Y1145
X11056Y1145
X11351Y1145
X11646Y1145
X11843Y1932
X12188Y1932
X12532Y1932
X12877Y1932
X13221Y1932
X13221Y2227
X12877Y2227
X12532Y2227
X12188Y2227
X11843Y2227
X12091Y2828
X11662Y3127
X15382Y1525
X17601Y3076
X13324Y4885
X12980Y4885
X12635Y4885
X12635Y5230
X12980Y5230
X13324Y5230
X13324Y5574
X12980Y5574
X12635Y5574
X5593Y6999
X5096Y6896
X4068Y7592
X3723Y7592
X3379Y7592
X3034Y7592
X2690Y7592
X2345Y7592
X2001Y7592
X1656Y7592
X1312Y7592
X967Y7592
X623Y7592
X3280Y6192
X3532Y5724
X4265Y5180
X4265Y4836
X3920Y4836
X3920Y4491
X3576Y4491
X3576Y4147
X1821Y3842
X1410Y3409
X1066Y3409
X5396Y5820
T02
X3634Y6208
X4406Y6500
X5867Y6631
X6184Y6361
X6544Y6375
X6922Y6361
X7316Y6361
X7854Y6494
X8519Y6317
X8940Y6312
X8940Y5918
X9333Y5918
X9727Y5918
X9727Y5525
X9333Y5525
X8940Y5525
X9190Y4887
X8788Y4610
X7950Y4650
X8694Y3851
X9087Y3851
X9481Y3851
X9875Y3851
X9875Y3458
X9481Y3458
X9087Y3458
X8694Y3458
X7092Y2914
X6538Y3489
X5802Y2687
X4297Y2988
X4346Y3416
X4058Y3704
X3421Y3445
X2422Y3779
X2311Y3207
X1312Y2474
X918Y2474
X524Y2474
X524Y2080
X918Y2080
X1312Y2080
X1312Y1686
X918Y1686
X524Y1686
X524Y1292
X918Y1292
X1312Y1292
X1312Y899
X918Y899
X524Y899
X524Y505
X918Y505
X1312Y505
X5490Y1658
X8568Y2619
X5799Y4978
X6036Y5574
X6381Y5574
X6725Y5574
X6550Y6945
M30
