G75*
%MOIN*%
%OFA0B0*%
%FSLAX25Y25*%
%IPPOS*%
%LPD*%
%AMOC8*
5,1,8,0,0,1.08239X$1,22.5*
%
%ADD10C,0.00000*%
%ADD11R,0.21654X0.15157*%
%ADD12C,0.01181*%
%ADD13C,0.03150*%
%ADD14C,0.02400*%
%ADD15C,0.02775*%
%ADD16C,0.00600*%
%ADD17C,0.07874*%
%ADD18C,0.02400*%
%ADD19C,0.10000*%
%ADD20C,0.05600*%
%ADD21C,0.01142*%
D10*
X0002291Y0002097D02*
X0002291Y0078534D01*
X0179516Y0078534D01*
X0179516Y0002097D01*
X0002291Y0002097D01*
D11*
X0098354Y0023554D03*
X0098354Y0062727D03*
D12*
X0110372Y0062258D02*
X0114839Y0062258D01*
X0114839Y0061078D02*
X0110372Y0061078D01*
X0110372Y0059898D02*
X0114839Y0059898D01*
X0114839Y0058719D02*
X0110372Y0058719D01*
X0110372Y0057539D02*
X0114839Y0057539D01*
X0114839Y0056359D02*
X0110372Y0056359D01*
X0110372Y0055180D02*
X0114839Y0055180D01*
X0114839Y0054000D02*
X0109717Y0054000D01*
X0109674Y0053958D02*
X0110372Y0054655D01*
X0110372Y0070799D01*
X0109674Y0071496D01*
X0087034Y0071496D01*
X0086337Y0070799D01*
X0086337Y0065686D01*
X0085743Y0065933D01*
X0084643Y0065933D01*
X0083626Y0065512D01*
X0082848Y0064734D01*
X0082427Y0063717D01*
X0082427Y0062921D01*
X0081033Y0061526D01*
X0081033Y0061526D01*
X0080428Y0060922D01*
X0080049Y0060542D01*
X0076656Y0060542D01*
X0078292Y0062178D01*
X0079089Y0062178D01*
X0080105Y0062599D01*
X0080883Y0063377D01*
X0081304Y0064394D01*
X0081304Y0065494D01*
X0080883Y0066510D01*
X0080105Y0067288D01*
X0079089Y0067709D01*
X0077989Y0067709D01*
X0076972Y0067288D01*
X0076194Y0066510D01*
X0075773Y0065494D01*
X0075773Y0064697D01*
X0073656Y0062580D01*
X0060854Y0062580D01*
X0060854Y0064588D01*
X0061010Y0064744D01*
X0061431Y0065760D01*
X0061431Y0066860D01*
X0061010Y0067877D01*
X0060854Y0068033D01*
X0060854Y0071650D01*
X0112530Y0071650D01*
X0114839Y0069341D01*
X0114839Y0032873D01*
X0114593Y0032627D01*
X0114229Y0031749D01*
X0114229Y0030798D01*
X0114593Y0029919D01*
X0115266Y0029247D01*
X0116144Y0028883D01*
X0117096Y0028883D01*
X0117974Y0029247D01*
X0118647Y0029919D01*
X0119011Y0030798D01*
X0119011Y0031749D01*
X0118647Y0032627D01*
X0118401Y0032873D01*
X0118401Y0068362D01*
X0120404Y0066357D01*
X0120404Y0066357D01*
X0120471Y0066290D01*
X0120471Y0058901D01*
X0120293Y0058723D01*
X0119420Y0057850D01*
X0119420Y0030168D01*
X0118884Y0029632D01*
X0118520Y0028753D01*
X0118520Y0027802D01*
X0118884Y0026924D01*
X0119556Y0026251D01*
X0120435Y0025887D01*
X0121386Y0025887D01*
X0122265Y0026251D01*
X0122937Y0026924D01*
X0123301Y0027802D01*
X0123301Y0028753D01*
X0122937Y0029632D01*
X0122401Y0030168D01*
X0122401Y0056615D01*
X0123452Y0057666D01*
X0123452Y0067591D01*
X0122579Y0068465D01*
X0122513Y0068465D01*
X0116178Y0074806D01*
X0145635Y0074806D01*
X0152036Y0068404D01*
X0152036Y0016845D01*
X0151791Y0016600D01*
X0151427Y0015721D01*
X0151427Y0014770D01*
X0151791Y0013892D01*
X0152463Y0013219D01*
X0153342Y0012855D01*
X0154293Y0012855D01*
X0155172Y0013219D01*
X0155844Y0013892D01*
X0156208Y0014770D01*
X0156208Y0015721D01*
X0155844Y0016600D01*
X0155598Y0016845D01*
X0155598Y0068404D01*
X0155598Y0069880D01*
X0148578Y0076900D01*
X0177488Y0076900D01*
X0177925Y0076463D01*
X0177925Y0032231D01*
X0177366Y0032791D01*
X0176487Y0033155D01*
X0175536Y0033155D01*
X0174658Y0032791D01*
X0173985Y0032118D01*
X0173621Y0031240D01*
X0173621Y0030892D01*
X0152989Y0010261D01*
X0140348Y0010261D01*
X0134579Y0016030D01*
X0135055Y0016521D01*
X0135596Y0017061D01*
X0135608Y0017090D01*
X0135629Y0017112D01*
X0135911Y0017822D01*
X0136203Y0018528D01*
X0136203Y0018559D01*
X0136215Y0018588D01*
X0136203Y0019352D01*
X0136203Y0020115D01*
X0136191Y0020144D01*
X0136191Y0020175D01*
X0135986Y0020650D01*
X0135986Y0053529D01*
X0135448Y0054827D01*
X0135630Y0055267D01*
X0135630Y0056218D01*
X0135266Y0057097D01*
X0134594Y0057769D01*
X0133715Y0058133D01*
X0132764Y0058133D01*
X0132324Y0057951D01*
X0131026Y0058488D01*
X0128564Y0058488D01*
X0127266Y0057951D01*
X0126826Y0058133D01*
X0125875Y0058133D01*
X0124996Y0057769D01*
X0124324Y0057097D01*
X0123960Y0056218D01*
X0123960Y0055267D01*
X0124142Y0054827D01*
X0123604Y0053529D01*
X0123604Y0023937D01*
X0123600Y0023933D01*
X0123232Y0024301D01*
X0122353Y0024665D01*
X0121402Y0024665D01*
X0120524Y0024301D01*
X0120156Y0023933D01*
X0119787Y0024301D01*
X0118909Y0024665D01*
X0117958Y0024665D01*
X0117079Y0024301D01*
X0116406Y0023629D01*
X0116043Y0022750D01*
X0116043Y0022575D01*
X0115050Y0021582D01*
X0114443Y0020115D01*
X0114443Y0018528D01*
X0115050Y0017061D01*
X0116173Y0015939D01*
X0117639Y0015331D01*
X0122009Y0015331D01*
X0116880Y0009976D01*
X0042207Y0009976D01*
X0024495Y0027688D01*
X0027390Y0027688D01*
X0032229Y0032527D01*
X0032648Y0032108D01*
X0033665Y0031687D01*
X0034765Y0031687D01*
X0035781Y0032108D01*
X0036559Y0032886D01*
X0036980Y0033902D01*
X0036980Y0035002D01*
X0036907Y0035178D01*
X0037933Y0036204D01*
X0038235Y0035474D01*
X0039013Y0034696D01*
X0040030Y0034275D01*
X0040699Y0034275D01*
X0040699Y0033605D01*
X0041120Y0032589D01*
X0041460Y0032249D01*
X0041406Y0032227D01*
X0040628Y0031449D01*
X0040207Y0030433D01*
X0040207Y0029333D01*
X0040628Y0028316D01*
X0041406Y0027538D01*
X0042422Y0027117D01*
X0043522Y0027117D01*
X0044539Y0027538D01*
X0045317Y0028316D01*
X0045432Y0028594D01*
X0061602Y0028594D01*
X0065137Y0032129D01*
X0065933Y0032129D01*
X0066950Y0032550D01*
X0067728Y0033327D01*
X0068149Y0034344D01*
X0068149Y0035444D01*
X0067728Y0036460D01*
X0066950Y0037238D01*
X0065933Y0037659D01*
X0064833Y0037659D01*
X0063817Y0037238D01*
X0063039Y0036460D01*
X0062618Y0035444D01*
X0062618Y0034647D01*
X0060126Y0032156D01*
X0045376Y0032156D01*
X0045809Y0032589D01*
X0046230Y0033605D01*
X0046230Y0034402D01*
X0056543Y0044715D01*
X0077369Y0044715D01*
X0077932Y0044152D01*
X0078705Y0043832D01*
X0054126Y0019253D01*
X0053330Y0018923D01*
X0052552Y0018145D01*
X0052131Y0017129D01*
X0052131Y0016028D01*
X0052552Y0015012D01*
X0053330Y0014234D01*
X0054346Y0013813D01*
X0055446Y0013813D01*
X0056462Y0014234D01*
X0057240Y0015012D01*
X0057661Y0016028D01*
X0057661Y0017129D01*
X0057479Y0017568D01*
X0068255Y0028345D01*
X0068575Y0027574D01*
X0069353Y0026796D01*
X0070369Y0026375D01*
X0071469Y0026375D01*
X0072486Y0026796D01*
X0073263Y0027574D01*
X0073684Y0028590D01*
X0073684Y0029690D01*
X0073413Y0030346D01*
X0086675Y0043608D01*
X0087330Y0043336D01*
X0088431Y0043336D01*
X0089447Y0043757D01*
X0090225Y0044535D01*
X0090646Y0045552D01*
X0090646Y0046398D01*
X0091353Y0046105D01*
X0092453Y0046105D01*
X0093470Y0046526D01*
X0094247Y0047304D01*
X0094668Y0048320D01*
X0094668Y0049421D01*
X0094247Y0050437D01*
X0093470Y0051215D01*
X0092453Y0051636D01*
X0091353Y0051636D01*
X0090337Y0051215D01*
X0089773Y0050652D01*
X0085686Y0050652D01*
X0082638Y0053755D01*
X0082638Y0053765D01*
X0082122Y0054280D01*
X0081611Y0054801D01*
X0081601Y0054802D01*
X0081595Y0054808D01*
X0080865Y0054808D01*
X0080135Y0054815D01*
X0080128Y0054808D01*
X0057029Y0054808D01*
X0057655Y0055434D01*
X0058698Y0056478D01*
X0058698Y0056909D01*
X0058769Y0056980D01*
X0080049Y0056980D01*
X0080794Y0056980D01*
X0081524Y0056980D01*
X0081524Y0056980D01*
X0081524Y0056980D01*
X0082205Y0057661D01*
X0082567Y0058023D01*
X0082936Y0058391D01*
X0084946Y0060402D01*
X0085431Y0060402D01*
X0085780Y0060374D01*
X0085871Y0060337D01*
X0086252Y0060337D01*
X0086337Y0060330D01*
X0086337Y0054655D01*
X0086870Y0054122D01*
X0087053Y0053680D01*
X0087831Y0052902D01*
X0088848Y0052481D01*
X0089948Y0052481D01*
X0090964Y0052902D01*
X0091366Y0053305D01*
X0091768Y0052902D01*
X0092785Y0052481D01*
X0093885Y0052481D01*
X0094901Y0052902D01*
X0095303Y0053305D01*
X0095705Y0052902D01*
X0096722Y0052481D01*
X0097822Y0052481D01*
X0098838Y0052902D01*
X0099616Y0053680D01*
X0099731Y0053958D01*
X0109674Y0053958D01*
X0114839Y0052821D02*
X0098640Y0052821D01*
X0095903Y0052821D02*
X0094703Y0052821D01*
X0091966Y0052821D02*
X0090766Y0052821D01*
X0088029Y0052821D02*
X0083556Y0052821D01*
X0082402Y0054000D02*
X0086921Y0054000D01*
X0086337Y0055180D02*
X0057401Y0055180D01*
X0058580Y0056359D02*
X0086337Y0056359D01*
X0086337Y0057539D02*
X0082083Y0057539D01*
X0082567Y0058023D02*
X0082567Y0058023D01*
X0083263Y0058719D02*
X0086337Y0058719D01*
X0086337Y0059898D02*
X0084443Y0059898D01*
X0081771Y0059745D02*
X0080786Y0058761D01*
X0058031Y0058761D01*
X0056917Y0057647D01*
X0056917Y0057215D01*
X0053965Y0054263D01*
X0053472Y0054263D01*
X0034772Y0035562D01*
X0034215Y0035005D01*
X0034215Y0034452D01*
X0036440Y0032767D02*
X0041046Y0032767D01*
X0040766Y0031588D02*
X0031290Y0031588D01*
X0030110Y0030408D02*
X0040207Y0030408D01*
X0040250Y0029228D02*
X0028930Y0029228D01*
X0027751Y0028049D02*
X0040895Y0028049D01*
X0042972Y0029883D02*
X0043138Y0030148D01*
X0043364Y0030375D01*
X0060864Y0030375D01*
X0065383Y0034894D01*
X0062618Y0035126D02*
X0046954Y0035126D01*
X0048134Y0036306D02*
X0062975Y0036306D01*
X0064414Y0037486D02*
X0049314Y0037486D01*
X0050493Y0038665D02*
X0073538Y0038665D01*
X0072359Y0037486D02*
X0066352Y0037486D01*
X0067791Y0036306D02*
X0071179Y0036306D01*
X0070000Y0035126D02*
X0068149Y0035126D01*
X0067984Y0033947D02*
X0068820Y0033947D01*
X0067640Y0032767D02*
X0067167Y0032767D01*
X0066461Y0031588D02*
X0064596Y0031588D01*
X0065281Y0030408D02*
X0063416Y0030408D01*
X0064101Y0029228D02*
X0062236Y0029228D01*
X0062922Y0028049D02*
X0045049Y0028049D01*
X0045883Y0032767D02*
X0060738Y0032767D01*
X0061917Y0033947D02*
X0046230Y0033947D01*
X0043464Y0034155D02*
X0055805Y0046496D01*
X0079498Y0046496D01*
X0077520Y0044563D02*
X0056391Y0044563D01*
X0055212Y0043384D02*
X0078257Y0043384D01*
X0077077Y0042204D02*
X0054032Y0042204D01*
X0052853Y0041024D02*
X0075898Y0041024D01*
X0074718Y0039845D02*
X0051673Y0039845D01*
X0053958Y0050418D02*
X0040580Y0037040D01*
X0038583Y0035126D02*
X0036929Y0035126D01*
X0036980Y0033947D02*
X0040699Y0033947D01*
X0032758Y0037486D02*
X0026981Y0037486D01*
X0026981Y0037244D02*
X0026981Y0038344D01*
X0026635Y0039178D01*
X0046474Y0059017D01*
X0055767Y0059017D01*
X0052793Y0056044D01*
X0052735Y0056044D01*
X0051691Y0055000D01*
X0049477Y0052786D01*
X0047567Y0052786D01*
X0043138Y0048357D01*
X0034772Y0039499D01*
X0028866Y0033593D01*
X0025474Y0033593D01*
X0025457Y0033637D01*
X0024679Y0034414D01*
X0023662Y0034835D01*
X0023227Y0034835D01*
X0023227Y0035210D01*
X0023666Y0035028D01*
X0024766Y0035028D01*
X0025782Y0035449D01*
X0026560Y0036227D01*
X0026981Y0037244D01*
X0026593Y0036306D02*
X0031579Y0036306D01*
X0030399Y0035126D02*
X0025003Y0035126D01*
X0023429Y0035126D02*
X0023227Y0035126D01*
X0025146Y0033947D02*
X0029220Y0033947D01*
X0023112Y0032070D02*
X0028313Y0026869D01*
X0058017Y0026869D01*
X0060563Y0025690D02*
X0026493Y0025690D01*
X0027673Y0024510D02*
X0059383Y0024510D01*
X0058203Y0023330D02*
X0028853Y0023330D01*
X0030032Y0022151D02*
X0057024Y0022151D01*
X0055844Y0020971D02*
X0031212Y0020971D01*
X0032392Y0019791D02*
X0054665Y0019791D01*
X0053019Y0018612D02*
X0033571Y0018612D01*
X0034751Y0017432D02*
X0052256Y0017432D01*
X0052131Y0016253D02*
X0035930Y0016253D01*
X0037110Y0015073D02*
X0052526Y0015073D01*
X0054152Y0013893D02*
X0038290Y0013893D01*
X0039469Y0012714D02*
X0119502Y0012714D01*
X0118373Y0011534D02*
X0040649Y0011534D01*
X0041828Y0010355D02*
X0117243Y0010355D01*
X0117641Y0008195D02*
X0128768Y0019814D01*
X0128768Y0019322D01*
X0128768Y0019814D02*
X0132213Y0019322D01*
X0129260Y0018830D01*
X0139610Y0008480D01*
X0153727Y0008480D01*
X0176012Y0030764D01*
X0177857Y0029228D02*
X0177925Y0029228D01*
X0177925Y0029297D02*
X0177925Y0004011D01*
X0177602Y0003688D01*
X0003882Y0003688D01*
X0003882Y0027688D01*
X0019458Y0027688D01*
X0039688Y0007457D01*
X0040732Y0006414D01*
X0116926Y0006414D01*
X0116942Y0006398D01*
X0117660Y0006414D01*
X0118379Y0006414D01*
X0118394Y0006430D01*
X0118417Y0006430D01*
X0118914Y0006949D01*
X0119422Y0007457D01*
X0119422Y0007479D01*
X0126941Y0015331D01*
X0130239Y0015331D01*
X0138872Y0006698D01*
X0154465Y0006698D01*
X0176140Y0028374D01*
X0176487Y0028374D01*
X0177366Y0028738D01*
X0177925Y0029297D01*
X0177925Y0028049D02*
X0175815Y0028049D01*
X0174636Y0026869D02*
X0177925Y0026869D01*
X0177925Y0025690D02*
X0173456Y0025690D01*
X0172276Y0024510D02*
X0177925Y0024510D01*
X0177925Y0023330D02*
X0171097Y0023330D01*
X0169917Y0022151D02*
X0177925Y0022151D01*
X0177925Y0020971D02*
X0168738Y0020971D01*
X0167558Y0019791D02*
X0177925Y0019791D01*
X0177925Y0018612D02*
X0166378Y0018612D01*
X0165199Y0017432D02*
X0177925Y0017432D01*
X0177925Y0016253D02*
X0164019Y0016253D01*
X0162840Y0015073D02*
X0177925Y0015073D01*
X0177925Y0013893D02*
X0161660Y0013893D01*
X0160480Y0012714D02*
X0177925Y0012714D01*
X0177925Y0011534D02*
X0159301Y0011534D01*
X0158121Y0010355D02*
X0177925Y0010355D01*
X0177925Y0009175D02*
X0156941Y0009175D01*
X0155762Y0007995D02*
X0177925Y0007995D01*
X0177925Y0006816D02*
X0154582Y0006816D01*
X0153083Y0010355D02*
X0140254Y0010355D01*
X0139074Y0011534D02*
X0154263Y0011534D01*
X0155443Y0012714D02*
X0137894Y0012714D01*
X0136715Y0013893D02*
X0151790Y0013893D01*
X0151427Y0015073D02*
X0135535Y0015073D01*
X0134795Y0016253D02*
X0151647Y0016253D01*
X0152036Y0017432D02*
X0135756Y0017432D01*
X0136214Y0018612D02*
X0152036Y0018612D01*
X0152036Y0019791D02*
X0136203Y0019791D01*
X0135986Y0020971D02*
X0152036Y0020971D01*
X0152036Y0022151D02*
X0135986Y0022151D01*
X0135986Y0023330D02*
X0152036Y0023330D01*
X0152036Y0024510D02*
X0135986Y0024510D01*
X0135986Y0025690D02*
X0152036Y0025690D01*
X0152036Y0026869D02*
X0135986Y0026869D01*
X0135986Y0028049D02*
X0152036Y0028049D01*
X0152036Y0029228D02*
X0135986Y0029228D01*
X0135986Y0030408D02*
X0152036Y0030408D01*
X0152036Y0031588D02*
X0135986Y0031588D01*
X0135986Y0032767D02*
X0152036Y0032767D01*
X0152036Y0033947D02*
X0135986Y0033947D01*
X0135986Y0035126D02*
X0152036Y0035126D01*
X0152036Y0036306D02*
X0135986Y0036306D01*
X0135986Y0037486D02*
X0152036Y0037486D01*
X0152036Y0038665D02*
X0135986Y0038665D01*
X0135986Y0039845D02*
X0152036Y0039845D01*
X0152036Y0041024D02*
X0135986Y0041024D01*
X0135986Y0042204D02*
X0152036Y0042204D01*
X0152036Y0043384D02*
X0135986Y0043384D01*
X0135986Y0044563D02*
X0152036Y0044563D01*
X0152036Y0045743D02*
X0135986Y0045743D01*
X0135986Y0046923D02*
X0152036Y0046923D01*
X0152036Y0048102D02*
X0135986Y0048102D01*
X0135986Y0049282D02*
X0152036Y0049282D01*
X0152036Y0050461D02*
X0135986Y0050461D01*
X0135986Y0051641D02*
X0152036Y0051641D01*
X0152036Y0052821D02*
X0135986Y0052821D01*
X0135790Y0054000D02*
X0152036Y0054000D01*
X0152036Y0055180D02*
X0135594Y0055180D01*
X0135572Y0056359D02*
X0152036Y0056359D01*
X0152036Y0057539D02*
X0134824Y0057539D01*
X0124766Y0057539D02*
X0123325Y0057539D01*
X0123452Y0058719D02*
X0152036Y0058719D01*
X0152036Y0059898D02*
X0123452Y0059898D01*
X0120471Y0059898D02*
X0118401Y0059898D01*
X0118401Y0058719D02*
X0120289Y0058719D01*
X0119420Y0057539D02*
X0118401Y0057539D01*
X0118401Y0056359D02*
X0119420Y0056359D01*
X0119420Y0055180D02*
X0118401Y0055180D01*
X0118401Y0054000D02*
X0119420Y0054000D01*
X0119420Y0052821D02*
X0118401Y0052821D01*
X0118401Y0051641D02*
X0119420Y0051641D01*
X0119420Y0050461D02*
X0118401Y0050461D01*
X0118401Y0049282D02*
X0119420Y0049282D01*
X0119420Y0048102D02*
X0118401Y0048102D01*
X0118401Y0046923D02*
X0119420Y0046923D01*
X0119420Y0045743D02*
X0118401Y0045743D01*
X0118401Y0044563D02*
X0119420Y0044563D01*
X0119420Y0043384D02*
X0118401Y0043384D01*
X0118401Y0042204D02*
X0119420Y0042204D01*
X0119420Y0041024D02*
X0118401Y0041024D01*
X0118401Y0039845D02*
X0119420Y0039845D01*
X0119420Y0038665D02*
X0118401Y0038665D01*
X0118401Y0037486D02*
X0119420Y0037486D01*
X0119420Y0036306D02*
X0118401Y0036306D01*
X0118401Y0035126D02*
X0119420Y0035126D01*
X0119420Y0033947D02*
X0118401Y0033947D01*
X0118507Y0032767D02*
X0119420Y0032767D01*
X0119420Y0031588D02*
X0119011Y0031588D01*
X0116620Y0031273D02*
X0116620Y0070078D01*
X0113267Y0073431D01*
X0059371Y0073431D01*
X0055932Y0069992D01*
X0054623Y0070515D02*
X0058700Y0070515D01*
X0058740Y0071694D02*
X0055805Y0071694D01*
X0056986Y0072874D02*
X0058781Y0072874D01*
X0058806Y0073599D02*
X0058650Y0069076D01*
X0058116Y0069076D01*
X0057100Y0068655D01*
X0056536Y0068091D01*
X0053185Y0068091D01*
X0053347Y0068484D01*
X0053347Y0069240D01*
X0057711Y0073599D01*
X0058806Y0073599D01*
X0060854Y0070515D02*
X0086337Y0070515D01*
X0086337Y0069335D02*
X0060854Y0069335D01*
X0060854Y0068156D02*
X0086337Y0068156D01*
X0086337Y0066976D02*
X0080417Y0066976D01*
X0081179Y0065796D02*
X0084314Y0065796D01*
X0086072Y0065796D02*
X0086337Y0065796D01*
X0082800Y0064617D02*
X0081304Y0064617D01*
X0080908Y0063437D02*
X0082427Y0063437D01*
X0084870Y0062845D02*
X0085193Y0063167D01*
X0081771Y0059745D01*
X0080585Y0061078D02*
X0077192Y0061078D01*
X0079280Y0062258D02*
X0081764Y0062258D01*
X0075693Y0064617D02*
X0060883Y0064617D01*
X0060854Y0063437D02*
X0074513Y0063437D01*
X0074393Y0060798D02*
X0078539Y0064944D01*
X0076660Y0066976D02*
X0061384Y0066976D01*
X0061431Y0065796D02*
X0075899Y0065796D01*
X0065437Y0063754D02*
X0065261Y0064914D01*
X0065261Y0070194D01*
X0065498Y0069447D01*
X0058659Y0069335D02*
X0053442Y0069335D01*
X0053211Y0068156D02*
X0056601Y0068156D01*
X0058666Y0066310D02*
X0046821Y0066310D01*
X0044727Y0068405D01*
X0042670Y0068405D01*
X0036345Y0062079D01*
X0038923Y0061078D02*
X0040099Y0061078D01*
X0039110Y0061529D02*
X0038689Y0060513D01*
X0037911Y0059735D01*
X0036895Y0059314D01*
X0035794Y0059314D01*
X0034778Y0059735D01*
X0034389Y0060124D01*
X0034158Y0059893D01*
X0033279Y0059529D01*
X0032328Y0059529D01*
X0031450Y0059893D01*
X0030777Y0060565D01*
X0030413Y0061444D01*
X0030413Y0062395D01*
X0030531Y0062678D01*
X0030531Y0062811D01*
X0030625Y0062906D01*
X0030777Y0063273D01*
X0031450Y0063946D01*
X0031817Y0064098D01*
X0044620Y0076900D01*
X0004752Y0076900D01*
X0004260Y0076408D01*
X0004260Y0029656D01*
X0014102Y0029656D01*
X0016428Y0031982D01*
X0016428Y0036816D01*
X0016183Y0037062D01*
X0015819Y0037941D01*
X0015819Y0038892D01*
X0016183Y0039770D01*
X0016855Y0040443D01*
X0017734Y0040807D01*
X0018685Y0040807D01*
X0019564Y0040443D01*
X0019665Y0040342D01*
X0019665Y0040644D01*
X0020019Y0040998D01*
X0042084Y0063063D01*
X0041713Y0063435D01*
X0041292Y0064451D01*
X0041292Y0064507D01*
X0039110Y0062326D01*
X0039110Y0061529D01*
X0039110Y0062258D02*
X0041279Y0062258D01*
X0041712Y0063437D02*
X0040221Y0063437D01*
X0044057Y0065002D02*
X0044807Y0063267D01*
X0044602Y0063062D01*
X0063409Y0063062D01*
X0065261Y0064914D01*
X0074393Y0060798D02*
X0047221Y0060798D01*
X0045737Y0060798D01*
X0024437Y0039499D01*
X0024437Y0038515D01*
X0023945Y0038022D01*
X0024216Y0037794D01*
X0026848Y0038665D02*
X0033938Y0038665D01*
X0035098Y0039845D02*
X0027302Y0039845D01*
X0028482Y0041024D02*
X0036213Y0041024D01*
X0037327Y0042204D02*
X0029661Y0042204D01*
X0030841Y0043384D02*
X0038441Y0043384D01*
X0039555Y0044563D02*
X0032020Y0044563D01*
X0033200Y0045743D02*
X0040669Y0045743D01*
X0041783Y0046923D02*
X0034380Y0046923D01*
X0035559Y0048102D02*
X0042897Y0048102D01*
X0044062Y0049282D02*
X0036739Y0049282D01*
X0037918Y0050461D02*
X0045242Y0050461D01*
X0046422Y0051641D02*
X0039098Y0051641D01*
X0040278Y0052821D02*
X0049512Y0052821D01*
X0050691Y0054000D02*
X0041457Y0054000D01*
X0042637Y0055180D02*
X0051871Y0055180D01*
X0053109Y0056359D02*
X0043816Y0056359D01*
X0044996Y0057539D02*
X0054288Y0057539D01*
X0055468Y0058719D02*
X0046176Y0058719D01*
X0038919Y0059898D02*
X0038075Y0059898D01*
X0037740Y0058719D02*
X0004260Y0058719D01*
X0004260Y0059898D02*
X0031444Y0059898D01*
X0034164Y0059898D02*
X0034614Y0059898D01*
X0036560Y0057539D02*
X0004260Y0057539D01*
X0004260Y0056359D02*
X0035380Y0056359D01*
X0034201Y0055180D02*
X0004260Y0055180D01*
X0004260Y0054000D02*
X0033021Y0054000D01*
X0031842Y0052821D02*
X0004260Y0052821D01*
X0004260Y0051641D02*
X0030662Y0051641D01*
X0029482Y0050461D02*
X0004260Y0050461D01*
X0004260Y0049282D02*
X0028303Y0049282D01*
X0027123Y0048102D02*
X0004260Y0048102D01*
X0004260Y0046923D02*
X0025944Y0046923D01*
X0024764Y0045743D02*
X0004260Y0045743D01*
X0004260Y0044563D02*
X0023584Y0044563D01*
X0022405Y0043384D02*
X0004260Y0043384D01*
X0004260Y0042204D02*
X0021225Y0042204D01*
X0020046Y0041024D02*
X0004260Y0041024D01*
X0004260Y0039845D02*
X0016257Y0039845D01*
X0015819Y0038665D02*
X0004260Y0038665D01*
X0004260Y0037486D02*
X0016007Y0037486D01*
X0016428Y0036306D02*
X0004260Y0036306D01*
X0004260Y0035126D02*
X0016428Y0035126D01*
X0016428Y0033947D02*
X0004260Y0033947D01*
X0004260Y0032767D02*
X0016428Y0032767D01*
X0016034Y0031588D02*
X0004260Y0031588D01*
X0004260Y0030408D02*
X0014854Y0030408D01*
X0018209Y0031455D02*
X0041469Y0008195D01*
X0117641Y0008195D01*
X0119916Y0007995D02*
X0137575Y0007995D01*
X0138755Y0006816D02*
X0118786Y0006816D01*
X0121046Y0009175D02*
X0136396Y0009175D01*
X0135216Y0010355D02*
X0122175Y0010355D01*
X0123305Y0011534D02*
X0134036Y0011534D01*
X0132857Y0012714D02*
X0124434Y0012714D01*
X0125564Y0013893D02*
X0131677Y0013893D01*
X0130498Y0015073D02*
X0126694Y0015073D01*
X0121762Y0015073D02*
X0109963Y0015073D01*
X0109674Y0014785D02*
X0110372Y0015482D01*
X0110372Y0031626D01*
X0109674Y0032323D01*
X0103876Y0032323D01*
X0103876Y0039042D01*
X0103095Y0040927D01*
X0101653Y0042369D01*
X0099768Y0043150D01*
X0088378Y0043150D01*
X0086493Y0042369D01*
X0085051Y0040927D01*
X0084776Y0040265D01*
X0084593Y0040081D01*
X0084172Y0039065D01*
X0084172Y0037964D01*
X0084270Y0037727D01*
X0084270Y0035365D01*
X0084172Y0035128D01*
X0084172Y0034027D01*
X0084270Y0033790D01*
X0084270Y0030605D01*
X0084978Y0028897D01*
X0084112Y0028538D01*
X0083334Y0027760D01*
X0082913Y0026744D01*
X0082913Y0025644D01*
X0083334Y0024627D01*
X0084112Y0023849D01*
X0085129Y0023428D01*
X0086229Y0023428D01*
X0086337Y0023473D01*
X0086337Y0015482D01*
X0087034Y0014785D01*
X0109674Y0014785D01*
X0110372Y0016253D02*
X0115859Y0016253D01*
X0114896Y0017432D02*
X0110372Y0017432D01*
X0110372Y0018612D02*
X0114443Y0018612D01*
X0114443Y0019791D02*
X0110372Y0019791D01*
X0110372Y0020971D02*
X0114797Y0020971D01*
X0115619Y0022151D02*
X0110372Y0022151D01*
X0110372Y0023330D02*
X0116283Y0023330D01*
X0117583Y0024510D02*
X0110372Y0024510D01*
X0110372Y0025690D02*
X0123604Y0025690D01*
X0123604Y0024510D02*
X0122728Y0024510D01*
X0121028Y0024510D02*
X0119283Y0024510D01*
X0118939Y0026869D02*
X0110372Y0026869D01*
X0110372Y0028049D02*
X0118520Y0028049D01*
X0118717Y0029228D02*
X0117930Y0029228D01*
X0118849Y0030408D02*
X0119420Y0030408D01*
X0122401Y0030408D02*
X0123604Y0030408D01*
X0123604Y0029228D02*
X0123104Y0029228D01*
X0123301Y0028049D02*
X0123604Y0028049D01*
X0123604Y0026869D02*
X0122883Y0026869D01*
X0115310Y0029228D02*
X0110372Y0029228D01*
X0110372Y0030408D02*
X0114391Y0030408D01*
X0114229Y0031588D02*
X0110372Y0031588D01*
X0114733Y0032767D02*
X0103876Y0032767D01*
X0103876Y0033947D02*
X0114839Y0033947D01*
X0114839Y0035126D02*
X0103876Y0035126D01*
X0103876Y0036306D02*
X0114839Y0036306D01*
X0114839Y0037486D02*
X0103876Y0037486D01*
X0103876Y0038665D02*
X0114839Y0038665D01*
X0114839Y0039845D02*
X0103543Y0039845D01*
X0102997Y0041024D02*
X0114839Y0041024D01*
X0114839Y0042204D02*
X0101818Y0042204D01*
X0098748Y0038515D02*
X0098748Y0038022D01*
X0098748Y0035070D02*
X0094811Y0034578D01*
X0091760Y0036743D02*
X0090874Y0034578D01*
X0090874Y0038022D02*
X0090874Y0038515D01*
X0085148Y0041024D02*
X0084092Y0041024D01*
X0084495Y0039845D02*
X0082912Y0039845D01*
X0081733Y0038665D02*
X0084172Y0038665D01*
X0084270Y0037486D02*
X0080553Y0037486D01*
X0079373Y0036306D02*
X0084270Y0036306D01*
X0084172Y0035126D02*
X0078194Y0035126D01*
X0077014Y0033947D02*
X0084205Y0033947D01*
X0084270Y0032767D02*
X0075834Y0032767D01*
X0074655Y0031588D02*
X0084270Y0031588D01*
X0084352Y0030408D02*
X0073475Y0030408D01*
X0073684Y0029228D02*
X0084840Y0029228D01*
X0083623Y0028049D02*
X0073460Y0028049D01*
X0072559Y0026869D02*
X0082965Y0026869D01*
X0082913Y0025690D02*
X0065600Y0025690D01*
X0064421Y0024510D02*
X0083452Y0024510D01*
X0085679Y0026194D02*
X0090104Y0026194D01*
X0090776Y0026015D01*
X0098354Y0023554D01*
X0098748Y0023948D01*
X0086337Y0023330D02*
X0063241Y0023330D01*
X0062061Y0022151D02*
X0086337Y0022151D01*
X0086337Y0020971D02*
X0060882Y0020971D01*
X0059702Y0019791D02*
X0086337Y0019791D01*
X0086337Y0018612D02*
X0058523Y0018612D01*
X0057536Y0017432D02*
X0086337Y0017432D01*
X0086337Y0016253D02*
X0057661Y0016253D01*
X0054896Y0016579D02*
X0054896Y0017504D01*
X0082746Y0045354D01*
X0082746Y0047638D01*
X0081101Y0049283D01*
X0059378Y0049341D01*
X0058420Y0049341D01*
X0057986Y0049776D01*
X0056848Y0053027D02*
X0054239Y0050418D01*
X0053958Y0050418D01*
X0054239Y0050418D02*
X0054239Y0050418D01*
X0056848Y0053027D02*
X0080857Y0053027D01*
X0084476Y0049341D01*
X0084947Y0048871D01*
X0091903Y0048871D01*
X0094578Y0048102D02*
X0114839Y0048102D01*
X0114839Y0049282D02*
X0094668Y0049282D01*
X0094223Y0050461D02*
X0114839Y0050461D01*
X0114839Y0051641D02*
X0084714Y0051641D01*
X0093866Y0046923D02*
X0114839Y0046923D01*
X0114839Y0045743D02*
X0090646Y0045743D01*
X0090237Y0044563D02*
X0114839Y0044563D01*
X0114839Y0043384D02*
X0088545Y0043384D01*
X0087216Y0043384D02*
X0086451Y0043384D01*
X0086328Y0042204D02*
X0085271Y0042204D01*
X0086650Y0046102D02*
X0087881Y0046102D01*
X0086650Y0046102D02*
X0070697Y0030148D01*
X0070919Y0029140D01*
X0068378Y0028049D02*
X0067960Y0028049D01*
X0066780Y0026869D02*
X0069279Y0026869D01*
X0061742Y0026869D02*
X0025314Y0026869D01*
X0021456Y0025690D02*
X0003882Y0025690D01*
X0003882Y0024510D02*
X0022635Y0024510D01*
X0023815Y0023330D02*
X0003882Y0023330D01*
X0003882Y0022151D02*
X0024995Y0022151D01*
X0026174Y0020971D02*
X0003882Y0020971D01*
X0003882Y0019791D02*
X0027354Y0019791D01*
X0028533Y0018612D02*
X0003882Y0018612D01*
X0003882Y0017432D02*
X0029713Y0017432D01*
X0030893Y0016253D02*
X0003882Y0016253D01*
X0003882Y0015073D02*
X0032072Y0015073D01*
X0033252Y0013893D02*
X0003882Y0013893D01*
X0003882Y0012714D02*
X0034432Y0012714D01*
X0035611Y0011534D02*
X0003882Y0011534D01*
X0003882Y0010355D02*
X0036791Y0010355D01*
X0037970Y0009175D02*
X0003882Y0009175D01*
X0003882Y0007995D02*
X0039150Y0007995D01*
X0040330Y0006816D02*
X0003882Y0006816D01*
X0003882Y0005636D02*
X0177925Y0005636D01*
X0177925Y0004456D02*
X0003882Y0004456D01*
X0003882Y0026869D02*
X0020276Y0026869D01*
X0018209Y0031455D02*
X0018209Y0038416D01*
X0021446Y0039906D02*
X0021446Y0033737D01*
X0023112Y0032070D01*
X0021446Y0039906D02*
X0044807Y0063267D01*
X0034695Y0066976D02*
X0004260Y0066976D01*
X0004260Y0065796D02*
X0033516Y0065796D01*
X0032336Y0064617D02*
X0004260Y0064617D01*
X0004260Y0063437D02*
X0030941Y0063437D01*
X0030413Y0062258D02*
X0004260Y0062258D01*
X0004260Y0061078D02*
X0030565Y0061078D01*
X0032312Y0062074D02*
X0046805Y0076567D01*
X0044132Y0076413D02*
X0004264Y0076413D01*
X0004260Y0075233D02*
X0042953Y0075233D01*
X0041773Y0074054D02*
X0004260Y0074054D01*
X0004260Y0072874D02*
X0040593Y0072874D01*
X0039414Y0071694D02*
X0004260Y0071694D01*
X0004260Y0070515D02*
X0038234Y0070515D01*
X0037055Y0069335D02*
X0004260Y0069335D01*
X0004260Y0068156D02*
X0035875Y0068156D01*
X0080049Y0056980D02*
X0080049Y0056980D01*
X0110372Y0063437D02*
X0114839Y0063437D01*
X0114839Y0064617D02*
X0110372Y0064617D01*
X0110372Y0065796D02*
X0114839Y0065796D01*
X0114839Y0066976D02*
X0110372Y0066976D01*
X0110372Y0068156D02*
X0114839Y0068156D01*
X0114839Y0069335D02*
X0110372Y0069335D01*
X0110372Y0070515D02*
X0113665Y0070515D01*
X0118107Y0072874D02*
X0147567Y0072874D01*
X0146387Y0074054D02*
X0116929Y0074054D01*
X0119286Y0071694D02*
X0148746Y0071694D01*
X0149926Y0070515D02*
X0120464Y0070515D01*
X0121643Y0069335D02*
X0151105Y0069335D01*
X0152036Y0068156D02*
X0122888Y0068156D01*
X0123452Y0066976D02*
X0152036Y0066976D01*
X0152036Y0065796D02*
X0123452Y0065796D01*
X0120471Y0065796D02*
X0118401Y0065796D01*
X0118401Y0066976D02*
X0119786Y0066976D01*
X0118607Y0068156D02*
X0118401Y0068156D01*
X0118401Y0064617D02*
X0120471Y0064617D01*
X0120471Y0063437D02*
X0118401Y0063437D01*
X0118401Y0062258D02*
X0120471Y0062258D01*
X0120471Y0061078D02*
X0118401Y0061078D01*
X0123452Y0061078D02*
X0152036Y0061078D01*
X0152036Y0062258D02*
X0123452Y0062258D01*
X0123452Y0063437D02*
X0152036Y0063437D01*
X0152036Y0064617D02*
X0123452Y0064617D01*
X0124018Y0056359D02*
X0122401Y0056359D01*
X0122401Y0055180D02*
X0123996Y0055180D01*
X0123800Y0054000D02*
X0122401Y0054000D01*
X0122401Y0052821D02*
X0123604Y0052821D01*
X0126350Y0052298D02*
X0126350Y0048853D01*
X0123604Y0049282D02*
X0122401Y0049282D01*
X0122401Y0048102D02*
X0123604Y0048102D01*
X0123604Y0046923D02*
X0122401Y0046923D01*
X0122401Y0045743D02*
X0123604Y0045743D01*
X0123604Y0044563D02*
X0122401Y0044563D01*
X0122401Y0043384D02*
X0123604Y0043384D01*
X0123604Y0042204D02*
X0122401Y0042204D01*
X0122401Y0041024D02*
X0123604Y0041024D01*
X0123604Y0039845D02*
X0122401Y0039845D01*
X0122401Y0038665D02*
X0123604Y0038665D01*
X0123604Y0037486D02*
X0122401Y0037486D01*
X0122401Y0036306D02*
X0123604Y0036306D01*
X0123604Y0035126D02*
X0122401Y0035126D01*
X0122401Y0033947D02*
X0123604Y0033947D01*
X0123604Y0032767D02*
X0122401Y0032767D01*
X0122401Y0031588D02*
X0123604Y0031588D01*
X0128768Y0022274D02*
X0128768Y0021668D01*
X0129795Y0021668D01*
X0132213Y0021668D01*
X0132213Y0022274D01*
X0120632Y0013893D02*
X0055640Y0013893D01*
X0057266Y0015073D02*
X0086746Y0015073D01*
X0153817Y0015246D02*
X0153817Y0069142D01*
X0146392Y0076567D01*
X0149066Y0076413D02*
X0177925Y0076413D01*
X0177925Y0075233D02*
X0150245Y0075233D01*
X0151425Y0074054D02*
X0177925Y0074054D01*
X0177925Y0072874D02*
X0152604Y0072874D01*
X0153784Y0071694D02*
X0177925Y0071694D01*
X0177925Y0070515D02*
X0154964Y0070515D01*
X0155598Y0069335D02*
X0177925Y0069335D01*
X0177925Y0068156D02*
X0155598Y0068156D01*
X0155598Y0066976D02*
X0177925Y0066976D01*
X0177925Y0065796D02*
X0155598Y0065796D01*
X0155598Y0064617D02*
X0177925Y0064617D01*
X0177925Y0063437D02*
X0155598Y0063437D01*
X0155598Y0062258D02*
X0177925Y0062258D01*
X0177925Y0061078D02*
X0155598Y0061078D01*
X0155598Y0059898D02*
X0177925Y0059898D01*
X0177925Y0058719D02*
X0155598Y0058719D01*
X0155598Y0057539D02*
X0177925Y0057539D01*
X0177925Y0056359D02*
X0155598Y0056359D01*
X0155598Y0055180D02*
X0177925Y0055180D01*
X0177925Y0054000D02*
X0155598Y0054000D01*
X0155598Y0052821D02*
X0177925Y0052821D01*
X0177925Y0051641D02*
X0155598Y0051641D01*
X0155598Y0050461D02*
X0177925Y0050461D01*
X0177925Y0049282D02*
X0155598Y0049282D01*
X0155598Y0048102D02*
X0177925Y0048102D01*
X0177925Y0046923D02*
X0155598Y0046923D01*
X0155598Y0045743D02*
X0177925Y0045743D01*
X0177925Y0044563D02*
X0155598Y0044563D01*
X0155598Y0043384D02*
X0177925Y0043384D01*
X0177925Y0042204D02*
X0155598Y0042204D01*
X0155598Y0041024D02*
X0177925Y0041024D01*
X0177925Y0039845D02*
X0155598Y0039845D01*
X0155598Y0038665D02*
X0177925Y0038665D01*
X0177925Y0037486D02*
X0155598Y0037486D01*
X0155598Y0036306D02*
X0177925Y0036306D01*
X0177925Y0035126D02*
X0155598Y0035126D01*
X0155598Y0033947D02*
X0177925Y0033947D01*
X0177925Y0032767D02*
X0177389Y0032767D01*
X0174634Y0032767D02*
X0155598Y0032767D01*
X0155598Y0031588D02*
X0173765Y0031588D01*
X0173137Y0030408D02*
X0155598Y0030408D01*
X0155598Y0029228D02*
X0171957Y0029228D01*
X0170778Y0028049D02*
X0155598Y0028049D01*
X0155598Y0026869D02*
X0169598Y0026869D01*
X0168418Y0025690D02*
X0155598Y0025690D01*
X0155598Y0024510D02*
X0167239Y0024510D01*
X0166059Y0023330D02*
X0155598Y0023330D01*
X0155598Y0022151D02*
X0164880Y0022151D01*
X0163700Y0020971D02*
X0155598Y0020971D01*
X0155598Y0019791D02*
X0162520Y0019791D01*
X0161341Y0018612D02*
X0155598Y0018612D01*
X0155598Y0017432D02*
X0160161Y0017432D01*
X0158981Y0016253D02*
X0155988Y0016253D01*
X0156208Y0015073D02*
X0157802Y0015073D01*
X0156622Y0013893D02*
X0155845Y0013893D01*
X0123604Y0050461D02*
X0122401Y0050461D01*
X0122401Y0051641D02*
X0123604Y0051641D01*
D13*
X0097272Y0055247D03*
X0093335Y0055247D03*
X0089398Y0055247D03*
X0089398Y0059184D03*
X0093335Y0059184D03*
X0097272Y0059184D03*
X0089398Y0063121D03*
X0085193Y0063167D03*
X0078539Y0064944D03*
X0065437Y0063754D03*
X0058666Y0066310D03*
X0065498Y0069447D03*
X0044057Y0065002D03*
X0036345Y0062079D03*
X0057986Y0049776D03*
X0079498Y0046496D03*
X0087881Y0046102D03*
X0091903Y0048871D03*
X0090874Y0038515D03*
X0094811Y0038515D03*
X0098748Y0038515D03*
X0098748Y0034578D03*
X0094811Y0034578D03*
X0090874Y0034578D03*
X0086937Y0034578D03*
X0086937Y0038515D03*
X0070919Y0029140D03*
X0065383Y0034894D03*
X0058017Y0026869D03*
X0042972Y0029883D03*
X0043464Y0034155D03*
X0040580Y0037040D03*
X0034215Y0034452D03*
X0024216Y0037794D03*
X0023112Y0032070D03*
X0054896Y0016579D03*
X0085679Y0026194D03*
D14*
X0116620Y0031273D03*
X0120911Y0028278D03*
X0121878Y0022274D03*
X0125323Y0022274D03*
X0128768Y0022274D03*
X0132213Y0022274D03*
X0132213Y0019322D03*
X0128768Y0019322D03*
X0125323Y0019322D03*
X0121878Y0019322D03*
X0118433Y0019322D03*
X0118433Y0022274D03*
X0116465Y0011448D03*
X0113512Y0011448D03*
X0110559Y0011448D03*
X0107606Y0011448D03*
X0104654Y0011448D03*
X0101701Y0011448D03*
X0098748Y0011448D03*
X0095795Y0011448D03*
X0092843Y0011448D03*
X0089890Y0011448D03*
X0086937Y0011448D03*
X0083984Y0011448D03*
X0081031Y0011448D03*
X0078079Y0011448D03*
X0075126Y0011448D03*
X0072173Y0011448D03*
X0069220Y0011448D03*
X0066268Y0011448D03*
X0063315Y0011448D03*
X0060362Y0011448D03*
X0014102Y0034085D03*
X0010657Y0034085D03*
X0018209Y0038416D03*
X0035756Y0041467D03*
X0035756Y0044912D03*
X0039201Y0044912D03*
X0039201Y0048357D03*
X0042646Y0048357D03*
X0042646Y0051802D03*
X0035323Y0057235D03*
X0032804Y0061919D03*
X0050957Y0068959D03*
X0055932Y0069992D03*
X0040677Y0075916D03*
X0037232Y0075916D03*
X0033787Y0075916D03*
X0030343Y0075916D03*
X0026898Y0075916D03*
X0023453Y0075916D03*
X0020008Y0075916D03*
X0016563Y0075916D03*
X0013118Y0075916D03*
X0009673Y0075916D03*
X0006228Y0075916D03*
X0053965Y0058200D03*
X0126350Y0055743D03*
X0129795Y0055743D03*
X0133240Y0055743D03*
X0133240Y0052298D03*
X0129795Y0052298D03*
X0126350Y0052298D03*
X0126350Y0048853D03*
X0129795Y0048853D03*
X0133240Y0048853D03*
X0176012Y0030764D03*
X0153817Y0015246D03*
D15*
X0067252Y0055739D03*
X0063807Y0055739D03*
X0060362Y0055739D03*
X0061839Y0063613D03*
X0069220Y0063613D03*
X0073157Y0063613D03*
X0013118Y0024735D03*
X0009181Y0024735D03*
X0005244Y0024735D03*
X0005244Y0020798D03*
X0009181Y0020798D03*
X0013118Y0020798D03*
X0013118Y0016861D03*
X0009181Y0016861D03*
X0005244Y0016861D03*
X0005244Y0012924D03*
X0009181Y0012924D03*
X0013118Y0012924D03*
X0013118Y0008987D03*
X0009181Y0008987D03*
X0005244Y0008987D03*
X0005244Y0005050D03*
X0009181Y0005050D03*
X0013118Y0005050D03*
D16*
X0120911Y0028278D02*
X0120911Y0057232D01*
X0121962Y0058284D01*
X0121962Y0066974D01*
X0121895Y0066974D01*
X0113787Y0075089D01*
X0057094Y0075089D01*
X0050957Y0068959D01*
X0032804Y0061919D02*
X0032312Y0062074D01*
D17*
X0089398Y0038022D02*
X0090874Y0038022D01*
X0098748Y0038022D01*
X0098748Y0035070D01*
X0098748Y0034578D02*
X0092350Y0034578D01*
X0089398Y0031625D01*
X0089398Y0038022D01*
X0098748Y0034578D02*
X0098748Y0023948D01*
D18*
X0098354Y0062727D02*
X0086346Y0062727D01*
X0084870Y0062845D01*
D19*
X0129795Y0052298D02*
X0129795Y0048853D01*
X0129795Y0021668D01*
D20*
X0132213Y0019322D01*
X0128768Y0019322D01*
X0118433Y0019322D01*
D21*
X0146392Y0076567D02*
X0046805Y0076567D01*
M02*
